/* XPM */
static char *_112298512bf4195ea00c8b7a60bb395RaekFuQalCfMCvqI[] = {
/* columns rows colors chars-per-pixel */
"80 80 256 2 ",
"   c #7E2100",
".  c #7B3C4E",
"X  c #6F5240",
"o  c #9C0B02",
"O  c #940B01",
"+  c #951300",
"@  c #9C1103",
"#  c #9A1B05",
"$  c #8D1501",
"%  c #A81609",
"&  c #A91513",
"*  c #B51B14",
"=  c #B51717",
"-  c #AC0F0E",
";  c #952400",
":  c #9A2302",
">  c #9D2E03",
",  c #983200",
"<  c #932B0C",
"1  c #A82806",
"2  c #B82B0C",
"3  c #AA3604",
"4  c #B43909",
"5  c #A92716",
"6  c #BC231A",
"7  c #B72716",
"8  c #B53114",
"9  c #AD3115",
"0  c #B71823",
"q  c #9D2B34",
"w  c #BE2423",
"e  c #B82729",
"r  c #AB2E28",
"t  c #C52D1A",
"y  c #C2261B",
"u  c #C73618",
"i  c #C53F0A",
"p  c #C71D2A",
"a  c #D11E2F",
"s  c #C32B25",
"d  c #C5242B",
"f  c #CC242C",
"g  c #C82828",
"h  c #D2222D",
"j  c #D22929",
"k  c #C23629",
"l  c #CD2533",
"z  c #CE2A32",
"x  c #C22D38",
"c  c #D32433",
"v  c #D42835",
"b  c #CE352D",
"n  c #B74819",
"m  c #B04A0D",
"M  c #B54D2D",
"N  c #A4632E",
"B  c #C6471A",
"V  c #C55817",
"C  c #C9550D",
"Z  c #D9771C",
"A  c #C76615",
"S  c #C44723",
"D  c #D25528",
"F  c #DC5B32",
"G  c #CB512C",
"H  c #E75B3E",
"J  c #D7662D",
"K  c #CE7627",
"L  c #DC7625",
"P  c #DB6837",
"I  c #D87638",
"U  c #E66636",
"Y  c #E67731",
"T  c #E36F1C",
"R  c #A43643",
"E  c #B17A6F",
"W  c #8D695B",
"Q  c #E45D40",
"!  c #D96C44",
"~  c #D1764D",
"^  c #E77545",
"/  c #C25943",
"(  c #799968",
")  c #8F883D",
"_  c #B89337",
"`  c #D78816",
"'  c #DC9718",
"]  c #CC8E15",
"[  c #E4951E",
"{  c #E18B10",
"}  c #DBA013",
"|  c #E5A01F",
" . c #DC8A24",
".. c #CA9228",
"X. c #DB9526",
"o. c #D59E32",
"O. c #C88F29",
"+. c #E78C27",
"@. c #E49125",
"#. c #E89926",
"$. c #F3992B",
"%. c #E78835",
"&. c #F48E35",
"*. c #EB9735",
"=. c #F89936",
"-. c #F28B29",
";. c #D5A434",
":. c #DAA836",
">. c #D9AF35",
",. c #E8A42A",
"<. c #FEAC2E",
"1. c #F4A62B",
"2. c #F9B42C",
"3. c #E6AA36",
"4. c #FDAB33",
"5. c #FCA43A",
"6. c #FFAC3C",
"7. c #F8A337",
"8. c #ECB53B",
"9. c #EBB536",
"0. c #F4B232",
"q. c #FDB334",
"w. c #F6B73A",
"e. c #E8B228",
"r. c #938A43",
"t. c #958948",
"y. c #908F4A",
"u. c #B89748",
"i. c #ADA958",
"p. c #B9B55B",
"a. c #AFAC56",
"s. c #B7BA77",
"d. c #B2B16E",
"f. c #A3A773",
"g. c #D99A55",
"h. c #D08C51",
"j. c #E88543",
"k. c #F78B47",
"l. c #ED9442",
"z. c #F99749",
"x. c #E59653",
"c. c #FE9A5A",
"v. c #E68D51",
"b. c #D8A546",
"n. c #DAB94A",
"m. c #CBA959",
"M. c #C9B859",
"N. c #DCBE52",
"B. c #D8BE58",
"V. c #CDA94B",
"C. c #EEA848",
"Z. c #FDAD42",
"A. c #FDA74A",
"S. c #E7B947",
"D. c #FFB444",
"F. c #FEB54C",
"G. c #FCBB4B",
"H. c #F7B843",
"J. c #FDAA58",
"K. c #E7B958",
"L. c #FFB355",
"P. c #FEB45C",
"I. c #FEBC5B",
"U. c #FDB856",
"Y. c #E3A651",
"T. c #ED9D68",
"R. c #C2AB68",
"E. c #DABD62",
"W. c #D7B874",
"Q. c #CAB373",
"!. c #FDAC66",
"~. c #E6BB6A",
"^. c #FBBB6A",
"/. c #FEBC79",
"(. c #EBA664",
"). c #C99E69",
"_. c #B4C874",
"`. c #D9C358",
"'. c #CBC358",
"]. c #E8C456",
"[. c #F7C558",
"{. c #F4C34D",
"}. c #C6C464",
"|. c #D2C363",
" X c #CCCA75",
".X c #D5CF75",
"XX c #FCCA67",
"oX c #F4D272",
"OX c #79BA8F",
"+X c #72E7BD",
"@X c #7CDCCA",
"#X c #70DED5",
"$X c #7CE6CA",
"%X c #6BE8DB",
"&X c #7BE3D4",
"*X c #78E6D8",
"=X c #73EED2",
"-X c #5CEAEC",
";X c #4EEDFD",
":X c #55ECF5",
">X c #5BEBF5",
",X c #56EDFE",
"<X c #5AECFC",
"1X c #58E6F7",
"2X c #4FF0FE",
"3X c #54F1FE",
"4X c #59F1FF",
"5X c #59F1F6",
"6X c #65E4E4",
"7X c #6CE5E3",
"8X c #64EAE3",
"9X c #6AE9E4",
"0X c #64EBEB",
"qX c #6BEAEA",
"wX c #67E6EA",
"eX c #72E5E4",
"rX c #73E9E7",
"tX c #63EBF3",
"yX c #62ECFB",
"uX c #66E7F2",
"iX c #62F1F9",
"pX c #B1BA85",
"aX c #ACACA1",
"sX c #95C595",
"dX c #B7C686",
"fX c #ABCC99",
"gX c #B3D191",
"hX c #9ACDA5",
"jX c #9ACAA9",
"kX c #99D8AB",
"lX c #99CCB2",
"zX c #8AD9B8",
"xX c #98DAB6",
"cX c #8ED4AF",
"vX c #A2CEAB",
"bX c #A6D4A9",
"nX c #A5D5B3",
"mX c #B2D1AE",
"MX c #83E7BB",
"NX c #92F1B5",
"BX c #B1E4B8",
"VX c #C7CE96",
"CX c #CBD28D",
"ZX c #FBDB86",
"AX c #F4C691",
"SX c #F0E494",
"DX c #CEEAAD",
"FX c #87DCC5",
"GX c #96DBC5",
"HX c #83DDD4",
"JX c #86E3C9",
"KX c #94E4CB",
"LX c #85E6D3",
"PX c #91F5C4",
"IX c #ACECC5",
"UX c #B7D0CA",
/* pixels */
",X,X,X,X,X,X,X<X,X,X,X<X,X,X,X,X,X,X,X,X,X,X,X,X,X,X,X,X,X,X,X,X,X,X<X,X,X,X,X,X,X,X,X,X<X,X,X,X,X,X,X,X,X,X,X,X,X,X,X,X,X,X,X,X<X,X,X,X,X,X,X,X,X,X,X,X,X,X,X,X",
",X,X,X,X,X,X,X,X,X,X,X,X,X,X,X,X,X,X,X,X,X,X,X,X,X,X,X,X,X,X,X,X,X,X,X,X,X,X,X,X,X,X,X,X,X,X,X,X,X,X,X,X,X,X,X,X,X,X,X,X,X,X,X,X,X,X,X,X,X,X,X,X,X,X,X,X,X,X,X,X",
",X,X,X,X,X,X,X,X,X,X,X,X<X,X,X,X,X,X,X,X,X,X<X,X,X,X<X,X,X,X,X,X,X,X,X,X,X,X,X,X,X,X,X,X,X,X,X,X<X,X,X,X,X,X,X,X,X,X,X,X,X,X,X,X,X,X,X,X,X,X,X,X,X,X<X,X,X,X,X,X",
",X,X,X,X,X,X,X,X,X,X,X,X,X,X,X,X,X,X,X,X,X,X,X,X,X,X,X,X,X,X,X<X,X,X,X,X,X,X,X,X,X,X,X,X,X,X,X,X,X,X,X,X,X,X,X,X,X,X,X<X,X,X,X,X,X,X,X,X,X,X,X,X,X,X,X,X,X,X,X,X",
",X,X,X,X,X,X,X,X,X,X,X,X,X,X,X,X,X,X,X,X,X,X,X,X,X,X,X,X,X,X,X,X,X,X,X,X,X,X,X,X,X,X,X,X,X,X,X,X,X,X,X,X,X,X,X,X,X,X,X,X,X,X,X,X,X,X,X,X,X,X,X,X,X,X,X,X,X,X,X,X",
",X,X,X,X,X,X,X,X,X,X,X,X,X,X,X,X,X,X,X,X,X,X,X,X,X,X,X,X,X,X,X,X,X,X,X,X,X,X,X,X,X,X,X,X,X,X,X,X,X,X,X,X,X,X,X<X,X,X,X,X,X,X,X,X,X,X,X,X,X,X,X,X,X,X,X,X,X,X,X,X",
",X,X,X,X,X,X,X,X,X,X,X,X,X,X,X,X,X,X,X,X,X,X,X,X,X<X,X,X,X,X,X,X,X,X,X,X,X,X,X,X,X,X,X,X,X,X,X<X,X,X,X,X,X,X,X,X,X,X,X,X,X,X<X,X,X,X,X,X<X,X,X,X,X,X,X,X,X,X,X,X",
",X,X,X,X,X,X,X,X,X,X,X<X,X,X,X,X,X,X,X,X,X,X,X,X,X,X,X,X,X,X,X,X,X,X,X,X,X<X,X,X,X,X<X,X,X,X,X,X,X,X,X,X,X,X,X,X,X,X,X,X,X,X,X,X,X,X,X,X,X,X,X,X,X,X,X,X,X<X,X,X",
",X,X,X,X,X,X,X,X,X,X<X,X,X,X,X,X,X,X,X,X,X,X,X,X,X,X,X,X,X,X,X,X,X,X,X,X,X,X,X,X,X,X,X,X,X,X,X,X,X,X,X,X,X<X,X,X,X,X,X,X,X,X,X,X,X,X,X,X,X,X,X,X,X,X,X,X,X,X,X,X",
",X<X,X,X,X,X,X,X,X,X,X,X,X,X,X,X,X,X,X,X,X,X,X,X,X,X,X,X,X,X,X,X,X,X,X,X,X,X,X,X,X,X<X,X,X,X,X,X,X,X,X,X,X,X,X,X,X,X,X,X,X,X,X,X,X,X,X<X,X,X,X,X,X<X,X,X,X<X,X,X",
",X,X,X,X,X,X,X,X,X,X,X,X,X,X,X,X,X,X,X,X,X,X,X,X,X,X,X,X,X,X,X,X,X,X,X,X,X,X,X,X,X,X,X,X,X,X,X,X,X,X,X,X,X,X,X,X,X,X,X,X,X,X,X,X,X,X,X,X,X,X,X,X,X,X,X,X,X,X,X,X",
",X,X,X,X,X,X,X,X,X,X,X,X,X,X,X,X,X,X,X,X,X,X,X,X,X,X,X,X,X,X<X,X,X,X,X<X,X,X,X,X,X,X,X,X,X,X,X,X,X,X,X,X,X,X,X,X,X<X,X,X,X,X,X,X,X,X,X,X,X,X,X,X,X,X,X,X,X,X,X,X",
",X,X,X,X<X,X,X,X,X,X,X,X,X,X,X,X,X,X,X,X,X,X,X,X,X,X,X,X,X,X,X,X,X,X,X,X,X,X,X,X,X,X,X,X,X,X,X,X,X,X,X,X,X,X,X,X,X,X,X,X,X,X<X,X,X,X,X,X,X,X,X,X,X,X,X,X,X,X,X,X",
",X,X,X,X,X,X,X,X,X,X,X,X,X,X,X,X,X,X,X,X,X,X,X,X,X,X,X,X,X,X,X,X,X,X,X,X,X,X,X,X,X,X,X,X,X,X,X,X,X,X<X,X,X,X,X,X,X,X,X,X,X,X,X,X,X,X,X,X,X,X,X,X,X,X<X,X<X,X,X,X",
",X,X,X,X,X,X,X,X,X,X,X,X,X,X,X,X,X,X,X,X,X,X,X,X,X,X,X,X,X,X,X,X,X,X,X,X,X,X,X,X,X,X,X,X,X,X,X,X,X,X,X,X,X,X,X,X,X,X,X<X,X,X,X,X,X,X,X,X,X,X,X,X,X,X,X,X,X,X,X,X",
",X,X,X,X,X,X,X,X,X,X,X,X,X<X,X,X3X<X,X,X,X,X,X,X,X,X<X<X,X,X3X,X,X,X,X,X>X,X,X,X,X,X,X,X,X,X,X,X,X<X,X,X,X,X,X,X,X,X,X,X,X,X,X,X,X,X,X<X,X,X,X,X,X,X,X,X,X,X,X,X",
",X,X,X,X,X,X,X,X,X,X,X,X,X,X,X,X:X<X<X3X,X,X,X,X,X<X<X>X,X<X,X:X,X:X5X;X>X5X3X3X,X,X,X3X;X;X<X<X<X<X1X<X,X,X,X,X,X,X,X,X,X,X,X<X,X,X,X,X,X,X,X,X,X,X,X,X,X,X,X,X",
",X,X,X,X,X,X,X,X,X,X,X,X,X,X,X,X3X<X,X3X,X,X,X,X,X,X<X,X<X3X3X,X,X3X3X5X>X4X<X5X<X:X3X3X2X,X,X,X,X<X>X<X,X2X;X3X,X3X,X,X,X,X<X<X,X,X,X,X,X,X,X,X,X,X,X,X,X,X,X,X",
",X,X,X,X,X,X,X,X,X,X,X,X,X<X,X,X;X2X3X;X,X,X,X,X,X,X,X,X,X,X,X,X,X,X5X5X<X:X0X8X0X1X:X2X,X3X,X,X,X,X,X,X,X2X,X,X;X,X3X,X2X2X;X3X,X,X,X,X,X,X,X,X,X,X,X,X,X,X,X,X",
",X<X,X,X,X,X,X,X,X,X,X,X,X,X,X,X,X;X,X,X,X<X,X,X,X3X;X,X,X,X,X,X,X,X5X:X<X>X9XPX=X8X-X3X,X,X,X,X3X,X,X,X,X;X,X,X,X2X;X3X;X2X2X,X,X,X,X,X,X,X,X,X,X,X,X,X,X,X<X,X",
",X,X,X,X,X,X<X,X,X,X,X,X,X,X,X,X,X,X,X,X<X5X<X:X:X<X<X,X,X,X,X,X,X3X,X,X<X0XJXNXPX=X0X:X<X<X,X;X;X3X,X,X,X,X>X>X<X<X>X<X3X,X2X,X,X,X,X,X<X,X,X,X,X,X,X,X,X,X,X,X",
",X,X,X,X,X,X,X,X<X,X,X,X,X,X,X,X,X,X,X,X<X:X<X5X<X,X3X,X,X,X<X,X,X3X,X:X,X9X+XNXPX=X-X<X>X<X,X,X3X,X,X,X,X,XyX>X<X<X<X>X<X3X,X3X<X,X,X,X,X,X,X,X,X,X,X,X,X,X,X,X",
",X,X,X,X,X,X,X,X,X,X,X,X,X,X,X,X<X<X,X,X,X,X,X2X2X2X;X,X,X<X<X<X,X,X<X,X4X-X+XNX+X#X-X:X,X<X,X<X<X<X,X,X,X,X,X<X,X;X,X<X3X:X:X<X,X,X,X,X,X,X,X,X<X,X,X,X,X,X,X,X",
",X,X,X,X,X,X,X,X,X,X,X,X,X,X,X,X,X,X,X,X,X3X2X2X2X;X,X,X,X,X<X,X,X,X,X:XyX%X+XNXNXJX9X<X,X,X,X<X<X:X<X,X,X,X<X<X;X,X,X,X<X<X,X,X,X,X,X,X,X,X,X,X,X,X,X,X,X,X,X,X",
",X,X,X,X,X,X,X,X,X,X,X,X,X<X,X,X,X,X,X,X2X;X3X3X,X<X3X:X,X<X3X2X,X;X3X>X7XJXbX_._.gX$X>X4X;X3X,X3X:X,X,X1X,X4X,X,X,X,X,X,X,X,X,X,X,X,X,X,X,X,X,X,X,X,X,X,X,X,X,X",
",X<X,X,X,X,X,X<X,X,X,X,X,X,X,X,X<X,X,X3X2X2X,X,X<X:X>X>X5X;X;X3X3X3X3X0XHXnXCX'.`.p.kX7X1X,X,X,X,X;X<X3X,X,X:X,X,X,X,X,X,X,X;X,X,X,X,X,X,X,X,X,X,X,X<X,X,X,X,X,X",
",X,X,X,X,X,X,X,X,X,X,X,X,X,X,X,X3X<X,X,X,X,X,X,X,X,X4X>X,X,X3X2X:X:X,X9XxX_.}.'.`.'.sXFX9X4X,X,X;X3X<X:X,X3X,X3X,X,X<X>X,X3X,X<X,X,X,X,X,X,X,X,X,X,X,X,X,X,X,X,X",
",X,X,X,X,X,X,X,X,X,X,X,X,X,X,X,X<X:X3X<X<X<X,X,X4X1X>XiX0X0XqXqXuXyX,X7XkX_.`.n.n.'.f.zX9X1X:X<X>X0X9X8X>X,X:X<X3X,X<X3X2X2X3X:X<X,X,X,X,X,X,X,X,X,X,X,X,X,X,X,X",
",X,X,X,X<X,X,X,X,X,X,X,X,X,X,X,X,X,X:X5X<X<X<X;X4X,X>X9X&XKXIXKX&X0X<X0XKXdXM.`.S.a.sX*XqXiX:XtXLXKXKXLX%X0X<X,X:X,X,X;X2X2X:X>X<X,X,X,X,X,X<X,X,X,X,X,X,X,X,X,X",
",X,X,X,X,X,X,X,X,X,X<X,X,X,X,X,X,X<X,X:X:X<X>X>X-XrX*XLXIXDXCXgXkXLX6X7XzXfX.XoXXX XcX#X6XqX%XJXbXVXDXDXIX@X7XuX8X0X<X,X;X;X>X>X,X,X,X,X,X,X,X,X,X,X,X<X<X,X,X,X",
",X,X,X,X,X,X,X,X,X,X,X,X,X,X,X,X,X,X2X,X3X>X0X%XJXkXbXSXSXV._ O.a.fXFX@XKXBX.X`.`..XnX&XrX&XhXs.u.O._ |.SXDXxX@XzXFXwX,X,X3X3X,X,X,X,X,X,X,X,X,X,X,X,X,X,X,X,X,X",
",X,X,X,X,X,X,X,X,X,X,X,X,X,X,X,X,X,X,X3X:X8XJXkXbXVXZXoX..` 4.F.XXCXnXIXbXgX}.].S.M.mXGXHXGXVXoXL.F.,.] b.ZXDXkXsXhXFX%X>X,X;X,X,X,X,X,X,X,X,X,X,X,X,X,X,X,X,X,X",
",X,X,X,X,X,X,X,X,X,X,X,X,X,X,X,X,X,X3X>X8X$XdXW.).AXoX,.] 6.c.n M E aXUXVXM.K.S.3.S.'.VXUXaXE / M U F.#. .].SXpXmXmXs.sXrX<X,X3X,X,X,X,X,X,X,X,X,X,X,X,X,X,X,X,X",
",X,X,X,X,X,X,X,X,X,X,X,X,X,X,X,X,X4X:X8X$XbX(.N N AX[.` 1.D.3 # e R R f.W.n.n.S.H.9.S.oXW . R e d 2 %.G.` 3.ZX).. aXW.f.FX6X5X:X,X,X,X,X,X,X,X,X,X,X,X,X,X,X,X,X",
",X,X,X,X,X,X,X,X,X,X,X,X,X,X,X,X<X,X1XeXfXW.~ 5 ~ AX7.{ 6.L o z l x q ~ [.e.K.].8.9.w.P./ q x d f 6 B c.$.[ XXoXr 5 h.W.sXJX0X<X,X,X,X,X,X,X,X,X,X,X,X,X,X,X,X,X",
",X,X,X,X<X,X,X<X,X,X,X,X,X,X,X<X<XyX>XLXs.x.k 7 (.oX$.+.F.m - a a z 8 c.6.0.N.n.;.8.0.F.G d l l h j 2 k.4.{ {.oXG y 9 g.d.cX7X<X,X,X,X,X,X,X,X,X,X,X,X,X,X,X,X,X",
",X,X,X,X,X,X,X,X,X,X,X,X,X,X,X,X:X>XqXzXR.j.* 7 (.[.| ,.k.# 0 l l w B !.q.0.].N.S.8.0.{.P * g v h f y F 6.] 9.XXF 6 2 ^ m.fX*X,X,X,X,X,X,X,X,X,X,X,X,X,X,X,X,X,X",
",X,X,X,X,X,X,X,X,X,X,X,X,X,X,X,X,X0X*XhXg.V y s P.].' 7.I $ = x l w D L.q.0.n.].8.9.e.D.U 6 b f h c p u 6.} e.XXP 7 y ^ Y.d.&X,X,X,X,X,X,X,X,X,X,X,X,X,X,X,X,X,X",
",X,X,X<X,X,X,X<X,X,X,X,X,X,X,X,X,X6XKXdXg.4 k e /.[.,.$.G + 6 h l w J F.q.q.8.S.3.q.2.D.P * b d h h h t 7.' e.XX! r = H C.p.=X;X,X,X,X,X,X,X,X,X,X,X,X,X,X,X,X<X",
",X,X,X,X,X,X,X,X,X,X,X,X,X,X,X,X,X9XxXs.g.4 s e (.].' 7.B o = f l 6 J U.q.2.S.S.H.2.e.D.F % z f h h c t -.,.e.XX! 5 p H A.a.$X;X,X,X,X,X,X,X,X,X,X,X,X,X,X,X,X,X",
",X,X,X,X,X,X,X,X<X,X,X,X,X,X,X,X<XeXbXd.x.3 w e T.XX*.=.B o = j c 6 J L.4.q.`.`.>.9.e.{.D - j f h h c t &.@.0.XXG e d Q C.a.$X<X<X,X,X,X,X,X,X,X,X,X,X,X,X,X,X<X",
",X,X,X,X,X,X<X,X,X,X,X,X,X,X,X,X:X7XnXQ.x.4 w e h./.*.=.D o * f a y J P.<.0.`.n.>.9.q.D.G & z f h h h u =.#.H.^.b 0 6 Q C.p.LX:X,X,X,X,X,X,X,X,X,X,X,X,X,X,X,X,X",
",X,X,X,X,X,X,X,X,X,X,X,X,X,X,X,X,X8XxXs.g.m * e ~ /.1.=.Y + * p a f n !.4.0.n.`.{.H.2.A.8 0 c c f f p u =.#.F.!.9 g 7 ^ :._.$X,X,X,X,X,X,X,X,X,X,X,X,X,X,X,X,X,X",
",X,X,X,X,X,X,X,X,X,X,X,X,X,X,X,X,X0X$XfXb.C % e M /.Z.$.c.# & p v f 7 c.D.2.S.].3.w.q.=.% 0 v c d b y U 6.' XXj.5 y 2 j.V.dX*X3X,X,X,X,X,X,X,X,X,X,X,X,X,X,X,X,X",
",X,X,X<X,X,X,X,X,X,X,X,X,X,X,X,X3X5X%XkXV.Z o z r T.P.[ L.n o p c f 6 k.A.0.H.3.,.0.w.%.O 0 l f l s 2 k.<.$.^.M 7 t n v.d.bX7X4X,X,X,X,X,X,X,X,X,X<X,X,X,X,X,X,X",
",X,X,X,X,X,X,X,X,X,X,X,X,X,X,X,X,X,X0XzXM.%.% e r ! ^.#.Z.I O 0 f f s D L.8.8.H.w.q.F.A O 0 l p l 6 B A.[ D.!.: 7 t C Y.pXKX0X,X,X,X,X,X,X,X,X,X,X,X,X,X,X,X,X,X",
",X,X,X,X,X,X,X,X,X,X,X,X,X,X,X,X,X>X4X$X_.b.M & e S J.3.,.5.1 - g j d 7 z.F.n.].>.H.J.3 @ = l l a y Y 5.[ U.! O - # K m.lXeX>X,X,X,X,X<X,X,X,X,X,X,X,X,X,X,X,X,X",
",X,X,X,X,X,X,X,X,X,X,X,X,X,X,X,X<X1X4X%XkXs.~ % s 7 v.P.' F.V o y f h 7 U L.K.n.3.G.%.$ & = p l h t =.<.$.^.9 # & < g.dXJX>X,X,X,X,X,X,X,X,X,X,X,X,X,X,X,X,X,X,X",
",X,X,X,X,X,X,X,X,X,X,X<X,X,X,X,X<X,X,X>X*XnXR.B & k M !.,.Z.k.+ % s f * 1 J.H.8.0.I.m % - - = e = B A.#.Z.j.+ & + ~ pXlXeXyX<X,X,X,X,X,X,X,X,X,X,X,X,X,X,X,X,X,X",
",X,X,X,X,X,X,X,X,X,X,X,X,X,X,X,X:X3X,X,XuXHXaXu.; % $ ~ 5.[ J.3 + % % % O D L.q.G.` + + % % & # O ^ <.$.XX, + # n f.nX&XuX<X3X,X,X,X,X,X,X,X,X,X,X,X,X,X,X,X,X,X",
",X,X,X,X,X,X,X<X,X,X,X,X,X,X,X,X,X3X,X,X,X6X$XfXN $ ; , F.` 7.A ; ; # : # , $.1.$.m ; 1 : # : ; 3 =.{ $.K   ; ; f.vXHX0X<X;X,X;X,X,X,X,X,X,X,X,X,X,X,X,X,X<X,X,X",
",X,X,X,X,X,X,X,X,X,X,X,X,X,X,X,X,X,X,X,X,X:X%XzX.Xz.k.*.0.1.#.5.l.k.&.k.z.%.$.$.$.[ &.k.k.k.k.l.*.4.1.6.l.l.*.(.gXFX6X:X3X;X3X4X,X<X,X,X,X,X,X,X,X,X,X,X,X,X,X,X",
",X,X,X,X,X,X,X,X,X,X,X,X,X,X,X,X,X,X<X<XyX<X>XHXp.%.%.*.X.X.[ '  .@.#.-. .+.@.' [ +.+.%.&.*.%.%.X.@.@. .@.X.+.V.jXeXyX<X,X,X<X,X,X,X,X,X,X,X,X,X,X,X,X,X,X,X,X,X",
"<X,X,X,X,X,X,X,X,X,X,X,X,X,X,X<X>X<X,X<X<X<X,X&Xi.O. .L L L Z  ...O.] ` X.Z L L Z +. .....] ` ` Z L T T  .` { _ jXeXyX<X<X<X<X<X,X,X,X,X,X,X,X,X,X,X,X,X,X,X,X,X",
",X,X,X,X,X,X,X,X,X,X,X,X,X,X,X,X<X<X3X2X,X1X:X$X_.U.Y 2 b u T F.E. X.XK.I.A u u B j.K.`..X|.{.5.B t t B =.q.q.|.xX%XuX<X,X,X,X,X,X,X,X,X,X,X,X,X,X,X,X,X,X,X,X,X",
",X,X,X,X,X,X,X,X,X,X,X,X,X,X,X,X<X:X2X2X;X,X<X$XM.U.P 6 v j C A. XCX.Xm.J.C y j t ! E.}.gXp.3.7.i p j i -.2.<.B.cX6XtX<X,X,X;X,X,X,X,X,X,X,X,X,X,X,X<X,X,X,X,X,X",
",X,X,X,X,X,X,X,X,X,X,X,X,X,X,X,X,X,X<X:X3X<X>XFXp.G.I 5 z 6 C Y. XCXp.u.!.m 7 s 1 I E. XCXr.3.5.1 w d 8 -.<.<.N.xX%XtX<X,X,X>X,X,X,X,X,X,X,X,X,X,X,X,X,X,X,X,X,X",
",X,X,X,X<X,X,X,X,X,X,X,X,X,X,X,X2X,X5X:X>X>X>XJX}.H.K > 2 1 A 3.E.a.u.Y.J.V 1 3 3 I Y.M.u.u.9.4.m 3 5 3 +.q.<.n.kX%X0X,X,X,X>X<X,X<X,X,X,X,X,X,X,X,X,X,X,X,X,X,X",
",X,X,X,X,X,X,X,X,X,X<X,X,X,X,X,X2X;X,X3X<X>X<XJX}.9.F.5.$.$.7.9.9.9.8.H.D.6.=.=.=.7.3.H.S.[.q.2.4.=.z.=.4.2.<.`.kX%X-X3X,X3X,X,X,X,X,X,X,X<X,X,X<X,X,X,X,X,X,X,X",
",X,X,X,X,X,X,X,X,X,X,X,X,X,X,X,X,X,X3X,X<X>X<X&X_.n.:.:.>.e.;.:.>.;.>.:.o.;.;.;.:.o.o.3.;.;.o.o.;.o.:.b.:.3.;.p.MX%X5X<X;X;X3X,X,X,X,X,X,X,X,X,X,X,X,X,X,X,X,X,X",
",X,X,X<X,X,X<X,X,X,X,X,X,X,X,X,X<X<X,X,X<X<X3X8XOX( y.t.) t.t.r.r.) y.t.) t.r.) r.r.r.) t.t.y.) ) r.r.t.y.t.y.( @XuX<X,X,X,X,X,X,X,X,X,X<X,X,X,X,X,X,X,X,X,X,X,X",
",X,X,X,X,X,X,X,X,X,X,X,X,X,X,X,X<X<X,X,X<X,X;X-X&XzXlXvXvXjXhXvXlXlXlXvXjXhXhXbXjXvXjXnXvXjXhXhXhXvXlXjXlXjXlXFXwXyX<X<X,X:X,X,X,X,X,X,X,X,X,X,X,X,X,X,X,X,X,X1X",
",X,X,X,X,X,X,X,X,X<X,X,X,X,X,X<X1X<X2X2X,X,X,X:XtXuXuXrX9X7XrX7XrXrX7XqXrX9X%X9X7XrXeX9X6XrXrX7X9X7XeXrXrX*XqXuX>X>X:X<X,X,X,X,X,X,X,X,X,X,X,X,X,X,X,X,X,X,X,X,X",
",X,X,X,X,X,X,X,X,X,X,X,X,X,X,X,X<X<X3X;X,X,X,X,X,X,X1X1X;X;X,X,X:X,X3X2X3X:X3X<X,X,X<X,X;X,X,X,X,X,X,X,X:X:X<X;X,X,X,X,X,X,X,X,X,X,X,X,X,X,X,X,X,X,X,X,X,X,X,X,X",
",X,X,X,X,X<X,X,X,X,X,X,X,X,X,X,X<X,X,X,X,X,X,X,X,X,X,X,X,X,X,X,X,X,X,X,X,X,X,X,X,X,X,X,X,X,X,X,X,X,X,X,X,X<X,X3X,X,X,X,X,X,X,X,X,X,X,X,X,X,X,X,X,X,X,X,X,X,X,X,X",
",X,X,X,X,X,X,X,X,X,X,X,X,X,X,X,X,X,X,X,X,X,X,X,X,X,X,X,X,X,X,X,X,X,X,X,X,X,X,X,X,X,X,X,X,X,X,X,X,X,X,X,X,X,X,X,X,X,X<X,X,X,X,X,X,X,X,X,X,X,X,X,X,X,X,X,X,X,X,X<X",
",X,X,X,X,X,X,X,X,X,X,X,X,X,X,X,X,X,X,X,X,X,X,X,X,X,X,X,X,X,X,X,X,X,X,X,X,X,X,X,X,X,X,X,X,X,X,X,X,X,X,X,X,X,X,X,X,X,X,X,X,X,X,X,X,X,X,X<X,X,X,X,X,X,X,X,X,X,X,X,X",
",X,X,X,X,X,X,X,X<X,X,X,X,X,X,X,X,X,X,X,X,X,X,X<X,X,X,X,X,X,X,X,X,X,X,X,X,X,X,X,X,X,X,X,X,X<X,X,X,X,X,X,X,X,X,X,X,X,X,X,X,X,X,X,X,X,X,X,X,X,X,X,X,X,X,X,X,X,X,X,X",
",X,X,X,X,X,X,X,X,X,X,X,X,X,X,X,X,X,X,X,X,X,X,X,X,X,X,X,X,X,X,X,X,X,X,X,X,X,X,X,X,X,X,X,X,X,X,X,X,X,X,X,X,X,X,X,X,X,X,X,X,X,X,X,X,X,X,X,X,X,X,X,X,X,X,X,X,X,X,X,X",
",X,X,X,X,X,X,X,X,X,X,X,X,X,X<X,X,X,X,X,X,X,X,X,X,X,X,X,X,X,X,X,X,X,X,X,X,X,X,X,X,X,X,X,X,X,X,X,X,X,X,X,X,X,X,X,X,X,X,X,X,X,X,X,X,X,X,X,X,X,X,X,X,X,X,X<X,X,X,X,X",
",X,X,X,X,X,X,X,X,X,X,X,X,X,X,X,X,X,X,X,X,X,X,X,X,X,X,X<X,X,X,X,X,X,X,X,X,X,X,X,X,X,X,X,X,X,X,X,X,X,X,X,X,X,X,X,X,X,X,X,X,X,X,X,X,X,X,X,X,X,X,X<X,X,X,X,X,X,X,X,X",
",X,X<X,X,X,X,X,X,X,X,X,X,X,X,X,X,X,X,X,X,X,X,X,X,X,X,X,X,X,X,X,X,X<X,X,X,X,X,X,X,X,X,X,X<X,X,X,X,X,X,X,X,X,X,X,X,X,X,X,X<X,X,X,X,X,X,X,X,X,X,X,X,X,X,X,X,X,X,X<X",
",X,X,X,X,X,X,X,X,X,X,X,X,X,X,X,X,X,X,X,X,X,X,X,X,X,X,X,X,X,X,X,X,X,X,X,X,X,X,X,X,X,X,X,X,X,X,X,X,X,X,X,X,X,X,X,X,X,X,X,X,X,X,X,X,X,X,X,X,X,X,X,X,X,X<X,X,X,X,X,X",
",X,X,X,X,X,X,X,X,X,X,X,X,X,X,X,X,X,X,X,X,X,X,X,X,X,X,X,X<X,X,X,X,X,X,X,X,X,X,X,X,X<X,X,X,X,X,X,X,X,X,X,X<X,X,X,X,X,X,X,X,X,X,X,X,X,X<X,X,X,X,X,X,X,X,X,X,X,X,X,X",
",X,X,X,X,X,X,X,X,X,X,X,X,X,X,X,X<X,X,X,X,X,X,X,X,X,X,X,X,X,X,X,X,X,X,X,X,X,X,X,X,X,X,X,X,X,X,X,X,X,X,X,X,X,X,X,X,X,X,X,X,X,X,X<X,X,X,X,X,X,X,X,X,X,X,X,X,X,X,X,X",
"<X,X,X,X,X,X,X,X,X,X<X,X,X,X,X,X,X,X,X,X,X,X,X,X,X,X,X,X,X,X,X,X,X,X,X,X,X<X,X,X,X,X,X,X,X,X,X,X,X,X,X,X,X,X,X,X,X,X,X,X,X,X,X,X,X,X,X,X,X,X,X,X,X,X,X,X,X,X,X,X",
",X,X,X,X,X,X,X,X,X,X,X,X,X,X,X,X,X,X,X,X,X,X,X,X,X,X,X,X,X,X,X,X,X,X,X,X,X,X,X,X,X,X,X,X<X,X,X,X,X,X,X,X,X,X,X,X,X,X,X,X,X,X,X,X,X,X,X,X,X,X,X,X,X,X,X,X,X,X,X,X",
",X,X,X,X,X,X<X,X,X,X,X,X,X,X,X,X,X,X,X,X,X,X<X,X,X,X,X,X,X,X,X,X,X<X,X,X,X,X,X,X,X,X,X,X,X,X,X,X,X,X,X,X,X,X,X,X<X,X,X,X,X,X,X,X,X,X,X,X,X,X,X,X,X,X,X,X,X<X,X,X",
",X,X,X,X,X,X,X,X,X,X,X,X,X,X,X,X,X,X,X,X,X,X,X,X,X,X,X,X,X,X,X,X,X,X,X,X,X,X,X,X,X,X,X,X,X,X,X,X,X,X,X,X,X,X,X,X,X,X,X,X,X,X,X,X,X,X,X,X,X,X,X,X,X,X,X,X,X,X,X,X",
",X,X,X,X,X,X,X,X,X,X,X,X,X,X<X,X,X,X,X,X,X,X,X,X,X,X,X,X<X,X,X,X,X,X,X,X,X,X1X,X,X,X,X,X,X,X,X,X,X,X,X<X,X,X,X<X,X,X,X,X,X,X,X,X,X,X,X,X<X,X,X,X,X,X,X,X,X,X,X,X"
};
