/* XPM */
static char *b959feaab57e4b48cd36404132556788E69FMjntSSHtEb2z[] = {
/* columns rows colors chars-per-pixel */
"80 80 252 2 ",
"   c #3A3738",
".  c #653D4C",
"X  c #5C5856",
"o  c #734A59",
"O  c #71556B",
"+  c #7B6A76",
"@  c #CA3526",
"#  c #AE5637",
"$  c #D0502C",
"%  c #D8722C",
"&  c #E2772D",
"*  c #863F5D",
"=  c #82425D",
"-  c #AD7757",
";  c #8C4866",
":  c #86596D",
">  c #A64D71",
",  c #AC4B72",
"<  c #A65277",
"1  c #B3567C",
"2  c #8B6877",
"3  c #946274",
"4  c #97677A",
"5  c #9C6B7D",
"6  c #87797B",
"7  c #A76E7D",
"8  c #A3777A",
"9  c #DE7740",
"0  c #E49A37",
"q  c #908779",
"w  c #D89148",
"e  c #E09F58",
"r  c #D5C97F",
"t  c #555786",
"y  c #5C6590",
"u  c #766F8D",
"i  c #7B7286",
"p  c #7078A5",
"a  c #9F5D82",
"s  c #BA5C82",
"d  c #9C6C83",
"f  c #8A778F",
"g  c #997489",
"h  c #AD6E85",
"j  c #B86788",
"k  c #A87888",
"l  c #B77D94",
"z  c #8E7CAB",
"x  c #BA7FA4",
"c  c #C76A91",
"v  c #CE739A",
"b  c #CC7499",
"n  c #C67D9B",
"m  c #CC7A9D",
"M  c #D07397",
"N  c #D1749A",
"B  c #D27A9C",
"V  c #C57CA2",
"C  c #779297",
"Z  c #6592AC",
"A  c #76A5B0",
"S  c #59BBC9",
"D  c #76ACC8",
"F  c #65B9CA",
"G  c #79B7C6",
"H  c #5DC8DB",
"J  c #70CAD5",
"K  c #5ADBEC",
"L  c #76CBE2",
"P  c #6DD4EA",
"I  c #67DAEC",
"U  c #7BDBE5",
"Y  c #78D8E7",
"T  c #69DEF2",
"R  c #5EE1EE",
"E  c #5AE3F4",
"W  c #56EDFE",
"Q  c #5CE8F8",
"!  c #5BEBFC",
"~  c #77E3EC",
"^  c #64E5F5",
"/  c #6BE4F2",
"(  c #65E8F6",
")  c #6FE8F5",
"_  c #64ECFB",
"`  c #6CEDFC",
"'  c #75EBF7",
"]  c #908991",
"[  c #A58793",
"{  c #B18F93",
"}  c #B68998",
"|  c #A99897",
" . c #8FA095",
".. c #ACAC95",
"X. c #B8A698",
"o. c #8887A6",
"O. c #9290AE",
"+. c #9B93AB",
"@. c #BC87A6",
"#. c #A99AA7",
"$. c #BB97A6",
"%. c #AB94B3",
"&. c #8FADB4",
"*. c #B6A9AB",
"=. c #BCB7A7",
"-. c #AAA7B2",
";. c #B9AAB9",
":. c #ABBABC",
">. c #BBB4B3",
",. c #B9B9BB",
"<. c #BEBCBA",
"1. c #C6839D",
"2. c #D4849D",
"3. c #D68A9E",
"4. c #D19B9E",
"5. c #E49987",
"6. c #CFAF8E",
"7. c #D9B597",
"8. c #E7B690",
"9. c #CD84A2",
"0. c #C789A5",
"q. c #D285A3",
"w. c #D48AA4",
"e. c #D88BA6",
"r. c #C99AA6",
"t. c #D497A4",
"y. c #DA94A3",
"u. c #DB9BA4",
"i. c #D39DAD",
"p. c #D59FB2",
"a. c #E29EA6",
"s. c #E49BB4",
"d. c #C9A5A7",
"f. c #DDA4A6",
"g. c #D9A8AB",
"h. c #C9B8AB",
"j. c #D8BBA9",
"k. c #C7A8B6",
"l. c #D8A8B7",
"z. c #C8B8B7",
"x. c #D8B6B8",
"c. c #E2A6A6",
"v. c #E2ACA9",
"b. c #E4B7A7",
"n. c #E4ABB6",
"m. c #E5A6BB",
"M. c #E9A4BA",
"N. c #ECABBE",
"B. c #E6B3BB",
"V. c #96C2BC",
"C. c #B0C3BB",
"Z. c #D8C397",
"A. c #D7C7A7",
"S. c #C7C5B8",
"D. c #D6C7B7",
"F. c #DBC4BC",
"G. c #D6D3B9",
"H. c #E6C9A8",
"J. c #E5C9BA",
"K. c #ECD5B7",
"L. c #E7D5BA",
"P. c #EFE0BF",
"I. c #9497C5",
"U. c #AA97C9",
"Y. c #B19CC9",
"T. c #8DB1CD",
"R. c #9AB6C9",
"E. c #B6ACCE",
"W. c #A9BBC7",
"Q. c #B7B6C4",
"!. c #AAA4D3",
"~. c #D5AEC3",
"^. c #C9B8C5",
"/. c #D9B8C6",
"(. c #CAB0D0",
"). c #E9ADC0",
"_. c #ECB4C2",
"`. c #EBBCC5",
"'. c #E4BAC8",
"]. c #ECBDCB",
"[. c #F5B6C6",
"{. c #F3BAC6",
"}. c #F3BBC9",
"|. c #C6B4E2",
" X c #8ECCD2",
".X c #97CED5",
"XX c #99D6D7",
"oX c #AAC5C6",
"OX c #B6C4C6",
"+X c #A9C6D3",
"@X c #B5CBD0",
"#X c #A8D5D9",
"$X c #BAD6D2",
"%X c #B2E0DB",
"&X c #84D9E4",
"*X c #9BDAE6",
"=X c #A7D7E4",
"-X c #90E8ED",
";X c #89ECF7",
":X c #94EDF5",
">X c #86F0FA",
",X c #AFEDEF",
"<X c #CAC3C7",
"1X c #D6C7C6",
"2X c #DBC5C2",
"3X c #C8D9CC",
"4X c #DAD9C7",
"5X c #C7CDD5",
"6X c #DAC7D2",
"7X c #C8D9D7",
"8X c #D9D8D5",
"9X c #E7C8C7",
"0X c #EDC4CD",
"qX c #F2C5C7",
"wX c #ECD5C5",
"eX c #E8D8C8",
"rX c #F3D4C3",
"tX c #F4DCC5",
"yX c #F6D6CD",
"uX c #F4DCCB",
"iX c #E6CAD5",
"pX c #ECCCD4",
"aX c #F2C5D1",
"sX c #F3CDD4",
"dX c #EED3D4",
"fX c #EAD9D9",
"gX c #F3D2D5",
"hX c #F3D3DA",
"jX c #F3D9D8",
"kX c #CDE3D5",
"lX c #D5E6DD",
"zX c #EBE3C8",
"xX c #F5E6C9",
"cX c #F5E3CC",
"vX c #EAE7D8",
"bX c #F5E4D3",
"nX c #F5EBD4",
"mX c #F6E8DA",
"MX c #F3ECDA",
"NX c #F8F2D9",
"BX c #CFDDE4",
"VX c #E8DCE0",
"CX c #CBEEEB",
"ZX c #D9E7E7",
"AX c #ECE4E4",
"SX c #E8E9E5",
"DX c #F4E9E8",
"FX c #EDF2E4",
"GX c #F6F4E6",
"HX c #F7EEF1",
"JX c #FAF4F5",
"KX c #FAF7F5",
/* pixels */
"W W W W W W W W W W W W ! W W W W W W W W W W W W W W W W W W W W W W W W W W W W W W W W W W W W W W W W W W W W W W W W W W W W W W W W W W W W W W W W W W W ",
"W W W W W W W W W W W W W W W W W W W W W W W W W W W W W W W W W W W W W W W W W W W W W W W W W W W W W W W W W ! W W W W W W W W W W W W W W W W W W W W W W ",
"W W W W W W W W W W W W W W W W W W W W W W W W W W W W W W W W W W W W W W W W W W W W W W W W W W W W W W W W W W W W W W W W W W W W W W W W W W W W W W W W ",
"W W W W W W W W W W W W W W W W W W W W W W W W W W W W _ W W W W W W W W W W W W W W W W W W W W W W W W W W W W W W W W W W W W W W W W W W W W W W W W W W W ",
"W W W W W W W W W W ! W W W W W W W W W W W W W W W W W W W W W W W W W W W W W W W W W W W W W W W W W W W W W W W W W W W W W W W W W W W W W W W W W W W W W ",
"W W W W W W W W W W W W W W W W W W W W W W W W W W W W W W W W W W W W W W W W W W W W W W W W W W W W W W W W W W W W W W W W W W W W W W W W W W W W W W W W ",
"W W W W W W W W W W W W W W W W W W W W W W W W W W W W W W W W W W W W W W W W W W W W W W W W W W W W W W W W W W W W W W ! W W W W W W W W W W W W W _ W W W ",
"W W W W W W W W W W W W W W W W ! W W W W W W W W W W W W W W W W W W W W W W W W W W W W W W W W W W W W W W W W W W W W W W W W W W W W W W W W W W W W W W W ",
"W ! W W W W W W W W W W W W W W W W W ! W W W W W W W W W W W W W W W W W _ W W W W W W W W W W W W W W W W W W W W ! W W W W W W W W W W W W W W W W W W W W W ",
"W W W W W W W W W W W W W W W W W W W W W W W W W W W W W W W W W W W W W ~ ! W W W W W W W W W W W W W W W W W W W W W W W W W W W W W W W W W W W W W W W W W ",
"W W W W W W W W W W W W W ! W W W W W W W W W W W W W W W W W W W W W W ! ~ ! W W W W W W W W W W W W W W W W W W W W W W W W W W W W W W W W _ W W W W W W _ W ",
"W W W W W W W W W W W W W W W W W W W W W W W W W W W W W W W W W W W W Q  XR _ ! W W W W W W W W _ W W W W W W W W W W W W W W W W W W W W W W W W W W W W W W ",
"W W W W W W W W W W W W W W W W W W W W W W W W W W W W W W W W W W W W ~ =.J ( _ W W W W W W W W W W W W W W W W W W W W W W W W W W W W W W W W W W W W W W W ",
"W W W W W W W W W W W W W W W W W W W W W W W W W W W W W W W W W W W W XX6.A ( ! W W W W W W W W W W W W W W W W W W W W W W W W W W W W W W W W W W W W W W W ",
"W W W W W W W W W W W W W W W W W W W W W W W W W W W W W W ! _ W W W ` 3XH.6  X_ W W W W W W W W W W W W W W W W W W W W W W W W W W W W W W W W W W W W W W W ",
"W W W W W W ! W W W W W W W W W W W W W W W W W W W W W W W _ ` W W W ,XeX7.q  X) W W W W W W W W W W W W W W W W W W W W W W W W W W W W W W W W W W W W W W W ",
"W W W W W W W W W W W W W W W W W W W W W W W W W W W W W W ( / W W _ 3XL.j.X.:.J W W ! W W W W W W W W W W W W W W W W W W W W W W W W W W W W W W W W W W W W ",
"W W W W W W W W W W W W W W W W W W W W W W W W W W W W W W / U W W &XL.L.A.A.h. XW W ! W W W W W W W W W W W W W W W W W W W W W _ W W W W W W W W W W W W W W ",
"W W W W W W W W W W W W W W W W W W W W W W W W W W W W W W  XA ! ` G.H.L.A.D.*.G W W R E W W W W W W W W W W W W W W W W W _ W W W W W W W W W W W W W W W W W ",
"W W W W W W W W W W W W W W W W W W W W W _ W W W W W W W ! oX>.%X3XH.K.wXcX1Xk.&.! W K K W W W W W W W W W W W W W W W W W W W W W W W W W W W W W W W W W W W ",
"W W W W W W W W W W W W W W W W W W W W W W W W W W W W W ( C.S.P.P.xXnXbXjX8X,. .G Q F H W W W W W W W W W W W W W W W W W W W W W W W W W W W W W W W W W W W ",
"W W W W W W W W W W W W W W W W W W W W W W W W W W W W W ( ,.x.xXxXtXL.9XwX9X,.[ f A O.S W W W W W W W W W W W W W W W W W W W W W W W W W W W W W W W W W W W ",
"W W W W W W W W W W W W W W W W W W W W W W W W W W W W W ) OXF.cXL.wXeX/.dXz.6 2 3 6 ] J W W W W W W W W W W W W W W W W W W W W W W W W W W W W W W W W W W W ",
"W W W W W W W W W W W W W W W W W W W W W W W W W W W W W ' OXD.tXD.2XiXo.^.0X| 3 3 3 2 F W W W W W W W W W W W W W W W W W W W W W W W W W W W W W W W W W W W ",
"W W W W W W W W W W W W W W W W W W W W W W W W W W W W W /  .6.wX*.S.1Xo.Q.hXiX5 3 3 2 F W W W W W W W W W W W W W W W W W W W W W W W W W W W W W W W W W W W ",
"W W W W W W W W W W W W W W W W W W W W W W W W W W W _ W ' S.J.wXS.9XvXfXHXKXAX[ 3 3 3 F W W W W W W W W W W W W W W W W W W W W W W W W W W W W W W W W W W W ",
"W W W W W W W W W W W W W W W W W W W W W W W W W W W W W >XFXnXnXnXNXNXDX8X8X^.] ] 3 : S W W W W W W W W W W W W W W W W W W W W W W W W W W W W W W W W W W W ",
"W W W _ W W W W W W W W W W _ W W W W W W W W W W W W W W ;XGXnXcXeX4X2X1X1XiX*.6 6 q C K ! ! W W W W W W W W W W W W W W W W W W W W W W W W W W W W W W W W W ",
"W W W W W W W W W W W W W W W W W W W W W W W W W W W W W :XGXnXL.wXuXyXjXhXhXr.2 + f A _ ~ W W W W W W W W W W W W W W W W W W W W W W W W W W W W W W W W W W ",
"W W W W W W W W W W W W W W W W W W W W W W W W W W W W W CXGXnXcXuXuXgXwXhXhXr.4 i 6 J W ~ ! W W W W W W W W W W W W W W W W W W W W W W W W W W W W W W W W W ",
"W W W W W W W W W W W W W W W W W W W W W W W W W W W W ` CXGXnXtXwXtXyXqXgXhXr.2 O C E W ~ ( W W W W W W W W _ W W W W W W W W W W W W W W W W W W W W W W W W ",
"W W W W W W W W W W W W W W W W W W W W W W W W W W W W ' FXGXnXtXtXtXyXgXgXhXd.2 + o.Q ` =X-XW W W W W W W W W W W W W W W W W W W W W W W W W _ W W W W W W W ",
"W W W W W W W W W W W W W W W W W W W W W W W W W W W W H +XGXnXuXtXuXuXhXgXsXr.3 5  .^ *X$X#X&X` W W W W W W W W W W W W W W W W W W W W W W W W W W W W W W W ",
"W W W W W W W W W W W W W W W W W W W W W W W W W W W W Z &.FXnXtXuX1X1X<XgXhXd.8 7  .=X$X$X$X#X( W W W W W W W W W W W W W W W W W W W W W W W W W W W W W W W ",
"W W W W W W W W W W W W W W W W W W W W W W W W W W W E p C NXxXcXeX*.-.+.iXgXg.8 8 *.3X3X3X3X$XU W W W W W W W W W W W W W W W W W W W W W ! W W W W W W W W W ",
"W W W W W W W W W W W W W W W W W W W W W W W W W W W J p + 4XzXtXF.-.;.;.pXsXd.q | 5X3X3XkX3X3X+X^ W ( W W W W W W W W W W W W W W W W W W W W W W W W W W W W ",
"W W W W W W W W W W W W W W W W W W W W W W W ! ! W Q T.] ] h.4XtXtXyXjXjXsXgXd.+ OX3X3XkX4X4XkX8X XW ~ ( W W W W W W W W W W W W W W W W W W W W W W ! W W W W ",
"W W W W W W W W W W ! W W W W W W W W W W W W ! ' W P -...| S.eXtXtXyXyXgXgXhX%.y @XlXvXMXnXnXnXcXS.XX=.U W W W W W W W W W W W W W W W W W W W W W W W W W W W ",
"W W W W W W W W W W W W W W W W W W W W W W W ! ~ ! #XwXL.G.G.zXxXtXuXjXpXsXhX%.t ;.vXbXuXuXeXeXwX6.6.5.V.W W W W W W W W W W W W W W W W W W W W W W W W W W W ",
"W W W W W W W W W W W W W W W W W W W W W W W ( XX) kXP.K.H.G.4XuX2X^.(.+.(.VXp t ] /.^.^.z.z.z.tXh.7.8...K W W W W W W W W W W W W W W W W W W W W W W W W W W ",
"W W W W W W W W W W W W W _ W W W W W W W W W ~ C.$X4XL.L.L.eXeXjX*.O.Q.u E.pXY.+.#.^.;.^.1XiXeXxXA.8.8.e J W W W W W W W W W W W W W W W W W W W W W W W W W W ",
"W W W W W W W W W W W W ! ( W W W W W W W W W XX6.G.4XL.L.xXGXvXdX#.o.Q.p E.hX0Xg.h.VXAXDXAXvXmXtXH.8.8.6. .Q W W W W W W W W W W W W W W W W W W W W W W W W W ",
"W W W W _ W W W W W W W ~ ~ ! W W W W W W W W #XH.G.L.xXxXnXMXGX2X$.[ E.o.^.sX9Xd.r.6X^.^.6X#.2XtXK.zXtXuXD.#X_ W W W _ ! W W W W W W W W W W W W W W W W W W W ",
"W W W W W W W W W W W W V.V.W W W W W W W W _ 3XH.P.zXxXNXtXqXvXDX8X} 9XiXpXsXpXx.r.Q.Q.Q.8X<X8XmXnXcXcXjXbXFX' W W W ^ ( W W W W W W W W W W W W W W W W W W W ",
"W W W W W W W W W W W ) 7...Q W W W W W W W :XzXJ.K.tXxXyXrXqX0XvXAX6Xd.qXsXaX`.4.4.VXSXAXSXSXMXnXeXF.x.z.x.7X_ W W W U Y W W W W W W W W W W W W W W W W W W W ",
"W W W W W W W W W W W XX8.r J W W W W W W W ,XzXL.L.xXxXrXqX`.'.pXhXHX1X9XsXgX9X4.d.vXDXDXAXmXmXjXh.#.#.#.#.Q.` W W W  XV.W W W W W W W W W W W W W W W W W W W ",
"W W W W W W W W W W ' G.H.b.V.) W W W W W _ ZXzXL.xXxXrXk.9X`.+.'.aXiXJXSXd.x.'.f.4.fXfXjXjXdXhXfXfX<X<XDX<XSX:XW W ! h.X.K W W W ! ' >X>X>X` W W W W W W W W W ",
"W W W W W W W W W ! ,XbXxXxXzXCX_ W W W W :XFXNXNXxXtXL.x.B.].~.].}.pXKXvX*.[ x.4.4.dXgXsXgXgXhXSXJXJXGXKXGXKXCXW W Y 7.e J W W ` ,XZXSXAXvX,X_ W W W W W W W W ",
"W W W W W W W W W W kXG.F.D.J.vX' W W W W CXGXnXNXxXtXqXqXqX{.}./.].0XAXSXvXfX<Xd.d.sXhXhXsXaXfXfX/.p.p.p.i.l.=XW W %XtXrX3X' W :XvXwX9XeX9X7X_ W W W W W W W W ",
"W W W W W W W W W _ kXx.S.A.S.vX>XW W W ' CXvXzXxXxXqXz.`.}.}.'.+.~.sXVX6X9X/.[ | d.k.;.(.hX+.O.%.v N N N B 9.Y ! ^ 8XJ.F.J.BX,XSXx.x.j.B.l.OX! W W W W W W W W ",
"W W ` :X:X:X' W W _ ZXnXxXnXnXFX` W W W ,XvXeXwXcXbX9X#./.-.%./.+.~.pXiX0.@.0.. o r.p y %.hXp y %.q.N N B B 0.P W _ :.X.#.X.4XFXMXJ.g.f.f.u.;.Q W W W W W W W W ",
"W W :XvXbXvXlX` W _ kXL.J.J.wXkX` W W ` lXj.j.x.wXuX9X,.].k.Y.].(.].hXiX0.0.l 2 2 k.+.O.Q.VXQ.Q.(.q.M N B B B W.*X*XC.h.z.z.2X4X9Xj.f.f.c.y.r.R. X^ W W W W W W ",
"W W *XJ.J.J.1X( W W OXv.v.v.f.2XCX,X>X,XcXx.x.b.uXMXbXDXDXDXHXHXKXJXJXVXl.l.d.z.4XAXAXSXSXSXDXSXfX9.M v v N B g.2XD.F.F.F.F.2X9XJ.n.u.f.u.y.q.h 7 J W W W W W W ",
"W W &Xj.v.v.S.! W W #Xg.v.v.f.wXNXMXNXnXuXH.J.J.NXKXKXKXKXKXJXJXJXHXHXhX'.'.l.k.DXvXfXfXhXhXdXdX}.V V 0.m N B u.'.9X9X9XqX`.`.qXqXn.y.u.w.t.0.s > D W W W W W W ",
"W W &Xg.v.v.OX! W W +Xb.c.f.u.J.bXbXbXcXzXL.J.rXyXyXgXgXaX0X0X].].}.}.m.9.9.n 5 `.}.}.].{.{.{.{.).B V x m N N e.{.`.{.{.qXqX{.{.qXc.e.e.w.@.0.s , A W W W W W W ",
"W W  Xf.c.v.OX( W W @Xg.g.u.u.B.rXrXrXrXrXb.n.g.qX{.{.{.).~.}.[.[.[.}.m.q.q.n 3 B.{.{.}.].0X}.{.).B N N v v M w.aXdXpX0XhXdX9X{.}.s.B B B 9.B s , o.W W W W W W ",
"W W .Xg.c.a.W.W W W oXg.u.y.3.n.qXK.qXrXqXv.c.g._.`.0X0Xz t ~.`.'.[.[.).V q.V 3 '.hXdX0XpXpXpX{.).B v b v N v 9.k.d.z.'.} } /.].[.s.B m N v m s , z W W W W W W ",
"W W oXt.y.y.W.! W Q ,.u.y.w.3.l.gXwXrXwX9Xg.t.t.{./.k.'.u t ~.~.k.}.[.M.q.q.m 3 k.$.$.'.@.[ $.{.N.N V x m v v m 5 5 l l.3 4 i.{._.s.v v m @.@.s , f E W W W W W ",
"W W W.y.y.w.R.W W ( ;.w.3.2.2.1.} d.x.{ { 3.w.t._.'.x.B.X.-.l./.'.}.}.M.9.q.n 4 0.3 d l.d 5 k _.N.N V x m v v v 4 d l l.3 4 i.{.[.s.v v v %.@.s , d K W W W W W ",
"W W Q.t.y.2.W.W W I $.0.2.B B h 5 { g.5 7 1.w.y.B.b.e 8.Z.=.8./.(.5X}.).q.q.n 4 @.4 5 l.h d l {.).B v m v v v b n 0.r.B.0.r.B.{._.s.M N v V V c , a K W W W W W ",
"W E ;.i.y.2.R.W W P 0.m M m B j k } n.l l 0.q.e.b.w $ & 0 # & w @X*X'.M.q.q.n 3 l.r.i._.p.l.m.}.).N N N M v v v m.0X{.}.aXsX}.[.[.s.v N v v v c , a L W W W W W ",
"W ^ k.u.e.2.R.W W T @.M M b v w._._.[._.).w.q.e.5.& $ & 0 @ % % .X,X].m.9.q.n 3 _.].[.[.[.}.{.[.M.N N N v v M b ~.hX0X0XiXiX0X}.[.s.v M M v v c , , D Q Q Q W W ",
"W / k.y.y.2.R.W W T @.M v N v e._.{.}.}.N.9.2.w.z.- $ $ 0 @ % # J -X9Xm.2.q.n 3 N.{.[.[.{.{.[.[.M.V N M v v v b l @.k.~.k k l.}.[.s.v v M v v M , , a f A K W W ",
"W Y g.a.t.q.R.W W P V M v v v e.[.].6X].B.w.2.y.*X..& w % % 0 - Z ^ 6XM.9.9.n 3 _.{.}.0X0X{.[.[.N.v N M v v v v s 5 l p.4 4 i.}.[.s.v v v v N M 1 , , , < H W W ",
"W Y g.u.y.2.R.W W P V v v M N B '.R.o.Q./.q.B 0.$X6.0 e w w 0 Z.C.>X8Xm.2.9.n 3 n.].^.g } /.}.}.M.B N v v N v N j d } p.4 d i.}.}.s.b b M v N M 1 1 , , , A W W ",
"W &Xg.f.u.w..XW W Y V v N v N e.+Xu o i @Xq.q.i.A.A.A.Z.Z.Z.A.H.A.G.1Xm.q.q.n 3 B.iXg o ; %.].}.M.m v v v v N v B p.l._.g.l._.}.}.M.v b v M M v 1 , , , , f K W ",
"W &Xc.c.y.w.R.W W L v V N N v q.E.u = f @Xq.9.h.A.h.h.j.G.D.A.A.h.Z.h.M.2.q.m 3 _.].g * o r.}.}.).N N N v v N M B }.}.[.[.}.[.[.[.M.N N M M v v 1 , , , , > Z Q ",
"W .Xc.f.u.r.R.W W L V m V v v V W.+ * i +X9.r.h.h.| + S.gXF.] q X.h.h.l.0.9.@.3 N.}.d o ; p.}.}.s.V N v b V b b 9._.}.[.[.[.}.[.[.M.m m N V v V j > , , , ; f K ",
"_ $XL.F.9Xx.#X! W XX~.l.~.~.l.x..Xu * 2 U  X X-.z.]   z.jX9XX X *... XU L Y Y o.].iXd = ; I.=X=X=X+XW.+X!.W.W.W.W.*X*X&X*X*X=X*X*X*XOX^./.1X/./.k.k 4 4 6 O X H ",
"~ S.D.A.S.S.OX! ^ C.z.,.,.<.<.Q. Xu o f ^ W W L z.x.D.fXdXwX1Xx.X.&.E W W W W A VXVXg o = G _ ' .XOX+XOXoXOXoXoXC.Y W W W W W W W &XQ.,.Q.z.<.<.S.| q 6 q + X H ",
"~ S.S.S.S.C.oXW ^ C.>.>.>.>.=.>. XR.+.D ;XW W W Y &.h.g.d.l.h.{ &.K W W W W W G VXDXk : : :.CXBX>.>.>.>.>.>.>.>.>.U W W W W W W W  X>.>.>.>.>.>.=. .C C C C Z H ",
"! ) ~ ~ ~ / ( W W ^ Y U U U U U ~ ' ' _ >XQ W W W ! T.[ [ | X...R W W W W W W G ZXSXBXBXBXZXZXBXOXQ.oXC.Q.C.,.W.oXI W W W W W W W U oXC.:.oX:.oX X~ Q Q W W W W ",
"W W W W W W W W W W W W W W W W W W W W W W W W W ! !.U.U.U.k.$XQ W W W W W W W ` ` ` ` ` ( _ ^ ( ( ( ( ^ ^ ( Q Q W W W W W W W W W Q ! Q ( ( Q ! W W W W W W W ",
"W W W W W W W W W W W W W W W W W W W W W W W W W W T.U.U.O.*.XXW W W W W W W W W W W W W W W W W W W W W W W W W W W W W W W W W W W W W W W W W W W W W W W W ",
"W W W W W W W W W W W W W W W W W W W W W W W W W Q T.U.;.%.#.&XW W W W W W W W W W W W W W W W W W W W W W W W W W W W W W W W W W W W W W W W W W W W W W W W ",
"W W W W W W W W W W W W W W W W W W W W W W W W W L I.E.(.(.%.D Q W W W W W W W W W W W W W W W W W W W W W W W W W W W W W W W W W W W W W W W W W W W W W W W ",
"W W W W W W W W W W W W W W W W W W W W W W Q W T I.U.|.|.|.U.z H ! W W W W W W W W W W W W W W W W W W W W W W W W W W W W W W W W W W W W W W W W W W W W W W ",
"W W W W W W W W W W W W W W W W W W W W W W W W D z U.|.!.!.!.z Z E W W W W W W W W W W W W W W W W W W W W W W W W W W W W W W W W W W W W W W W W W W W W W W ",
"W W W W W W W W W W W W W W W W W W W W W W Q E I.I.!.!.!.!.!.U.O.P W W W W W W W W W W W W W W W W W W W W W W W W W W W W W W W W W W W W W W W W W W W W W W ",
"W W W W W W W W W W W W W W W W W W W W W W W E E E T T ~ P T / T Q W W W W W W W W W W W W W W W W W W W W W W W W W W W W W W W W W W W W W W W W W W W W W W "
};
