/* XPM */
static char *_e311af1766e459ee0c6c12c688794c3rNVGkQfNAGlqp63z[] = {
/* columns rows colors chars-per-pixel */
"80 80 256 2 ",
"   c #20262F",
".  c #4B3735",
"X  c #053651",
"o  c #5F3D4C",
"O  c #7F3D59",
"+  c #08435B",
"@  c #0D516E",
"#  c #074C76",
"$  c #00467C",
"%  c #01487E",
"&  c #075879",
"*  c #1D5D79",
"=  c #5B4952",
"-  c #6D5257",
";  c #675C6A",
":  c #736B71",
">  c #893F5F",
",  c #83475B",
"<  c #87546C",
"1  c #AC4C72",
"2  c #AB5275",
"3  c #976578",
"4  c #8D7174",
"5  c #A8747A",
"6  c #93837B",
"7  c #AD837D",
"8  c #D7A07E",
"9  c #014B83",
"0  c #064A83",
"q  c #004E8B",
"w  c #02518C",
"e  c #08568A",
"r  c #165285",
"t  c #004F91",
"y  c #015393",
"u  c #0C5693",
"i  c #0B5A95",
"p  c #01569A",
"a  c #025A9C",
"s  c #0B5C9C",
"d  c #155B98",
"f  c #2A578E",
"g  c #08678A",
"h  c #16698A",
"j  c #086898",
"k  c #18649A",
"l  c #0A749B",
"z  c #187799",
"x  c #24669D",
"c  c #2D7090",
"v  c #367998",
"b  c #0F5EA1",
"n  c #225FA1",
"m  c #0966A8",
"M  c #1464A3",
"N  c #1B64A3",
"B  c #156AA9",
"V  c #1C6CAB",
"C  c #0779A6",
"Z  c #1879A7",
"A  c #066AB1",
"S  c #026DB2",
"D  c #166DB0",
"F  c #0675B5",
"G  c #1A75B5",
"H  c #2569A7",
"J  c #2B6EAD",
"K  c #2774AA",
"L  c #3777AA",
"P  c #2474B3",
"I  c #2A79B7",
"U  c #377AB7",
"Y  c #4D5A89",
"T  c #4C7494",
"R  c #737491",
"E  c #457AA9",
"W  c #447DB9",
"Q  c #7F7FA6",
"!  c #267BC1",
"~  c #957388",
"^  c #AB6B86",
"/  c #B46A8F",
"(  c #A77889",
")  c #B6768F",
"_  c #C5698F",
"`  c #CE739A",
"'  c #CA759A",
"]  c #D1769A",
"[  c #C57CA1",
"{  c #32829C",
"}  c #0C82AA",
"|  c #1785AB",
" . c #0788B8",
".. c #1888B6",
"X. c #0B92BC",
"o. c #1993BA",
"O. c #2686A9",
"+. c #3A87A9",
"@. c #2C94AD",
"#. c #278BB6",
"$. c #3985BA",
"%. c #2794BA",
"&. c #3796B9",
"*. c #39A1BD",
"=. c #698795",
"-. c #4A87AA",
";. c #5689AB",
":. c #4D94AC",
">. c #4885B9",
",. c #5589BC",
"<. c #4996B7",
"1. c #5697B9",
"2. c #7190AD",
"3. c #6898B9",
"4. c #63A4BD",
"5. c #79A4BA",
"6. c #078CC4",
"7. c #0B95C8",
"8. c #1895C6",
"9. c #1392CB",
"0. c #2A87C4",
"q. c #3887C4",
"w. c #2799C7",
"e. c #3897C9",
"r. c #369CD3",
"t. c #18A5D2",
"y. c #37A3C9",
"u. c #2CA8D3",
"i. c #37A9D7",
"p. c #34B7E2",
"a. c #4689C5",
"s. c #4B8BC4",
"d. c #548CC5",
"f. c #4895C9",
"g. c #5393CA",
"h. c #5996C8",
"j. c #489BD3",
"k. c #589CD3",
"l. c #6F92C5",
"z. c #669AC9",
"x. c #659DD3",
"c. c #47A8CA",
"v. c #56A7C9",
"b. c #56B4C9",
"n. c #49A7D7",
"m. c #57A5D7",
"M. c #49B2D8",
"N. c #57B5D9",
"B. c #69A7CA",
"V. c #76A7C9",
"C. c #70B5CD",
"Z. c #67A7D7",
"A. c #75A9D8",
"S. c #67B6D6",
"D. c #79B5D9",
"F. c #4BB7E3",
"G. c #6BB8E3",
"H. c #78BBE4",
"J. c #73C3DC",
"K. c #53C3E7",
"L. c #67C5E7",
"P. c #77CAE7",
"I. c #61E9FA",
"U. c #948C91",
"Y. c #A88887",
"T. c #B68897",
"R. c #B39390",
"E. c #B3A89A",
"W. c #8E90AB",
"Q. c #B393AA",
"!. c #91A8B8",
"~. c #B1ACB1",
"^. c #BAB8B7",
"/. c #C7899D",
"(. c #D1889C",
"). c #C69B9B",
"_. c #D0AB98",
"`. c #E5B793",
"'. c #CB8DA7",
"]. c #D286A3",
"[. c #D68CA6",
"{. c #C799A8",
"}. c #D997A6",
"|. c #E39AB3",
" X c #C9A7A7",
".X c #DBA7A9",
"XX c #C5B8A9",
"oX c #CEADB4",
"OX c #D8AAB6",
"+X c #C5B8B7",
"@X c #D9B8B7",
"#X c #E1ABA9",
"$X c #E7A7B9",
"%X c #E6B8B9",
"&X c #ECC097",
"*X c #CEC5B5",
"=X c #D5C8BB",
"-X c #EDC7B3",
";X c #E7C5BA",
":X c #E7D4B9",
">X c #8F9DC5",
",X c #88A9C8",
"<X c #93B5CB",
"1X c #85ABD4",
"2X c #88B6D9",
"3X c #96B9D9",
"4X c #A8B3CA",
"5X c #B9B8C7",
"6X c #87BBE3",
"7X c #95BBE1",
"8X c #C7B8C7",
"9X c #CFB4C8",
"0X c #D8B8C4",
"qX c #ECAFC1",
"wX c #EBB9C7",
"eX c #F3BAC7",
"rX c #F4BAC8",
"tX c #8FC4DA",
"yX c #B7C9CB",
"uX c #A7C5D8",
"iX c #B5C7D9",
"pX c #88C8E7",
"aX c #97C9E8",
"sX c #97D3EA",
"dX c #91D1EF",
"fX c #A5CBE9",
"gX c #B3CEE8",
"hX c #A9D6EB",
"jX c #B8D6EA",
"kX c #A7D6F3",
"lX c #B7DCF3",
"zX c #B5E1EF",
"xX c #BAE3F3",
"cX c #D9C7C7",
"vX c #DBD5C8",
"bX c #CACFD1",
"nX c #D8D7D8",
"mX c #E8C8C9",
"MX c #F2C6C8",
"NX c #E8D7C7",
"BX c #F4DAC8",
"VX c #EACBD3",
"CX c #F2CCD4",
"ZX c #E9D9D7",
"AX c #E9DFDC",
"SX c #F4D5D6",
"DX c #F4E3C9",
"FX c #F1E8CF",
"GX c #EAE5D9",
"HX c #F5E9D6",
"JX c #C4D9EB",
"KX c #D2E6EE",
"LX c #C8E4F4",
"PX c #E8E7E4",
"IX c #F4E8E8",
"UX c #F2F1F0",
/* pixels */
"U U K N i w w w w w w q t y M t t t q q q q 9 9 q 9 q 0 $ $ $ 9 $ 0 9 % $ $ $ $ $ $ $ $ $ $ $ $ $ # $ $ % $ $ $ $ $ $ $ $ $ 9 9 0 r 0 $ 0 0 9 9 9 $ 9 9 9 9 H k ",
"K U >.a.K k u w t w q t t t t t t t t q q 9 9 9 9 q 9 q 9 9 9 $ % $ $ % % $ $ $ $ $ $ $ $ $ $ $ $ $ $ # $ $ % % $ $ $ $ $ $ 0 # f H f r 0 0 9 9 9 9 9 9 9 9 d d ",
"y y s K a.g.I N y w q t y t y y y q t y q q q q q q q 9 9 q 9 w 9 $ 9 9 $ $ $ $ 0 $ $ $ $ # % % 0 0 $ % 0 % % % $ $ $ $ $ $ 0 f R ~ W.Y r 9 9 0 q 9 9 9 9 9 q q ",
"p y w y i J g.g.H s u y t y y y y t t t y q q q q q t q w u i i u 9 9 $ 9 0 % % % $ e w % i e % e 0 % % 9 % % % $ $ $ $ 0 0 # Y ~ VXJXW.f q t t q q t t q q q q ",
"a a s b b M H a.k.W N u a y y y p t t t t q t w q q w u u M k N u e e 0 9 9 9 9 w e g i i e w e $ % w e $ 9 % % $ $ $ 9 9 0 r Y W.ZXnX2.f w w w t q q w q q q w ",
"N V P H P P J U x.A.d.U J s y q t t t t t t t t t t y p j M N >.L k k e 9 r x k e e 9 w s q e 9 9 e w e 9 9 9 % $ 9 9 q q 9 r f Y W.W.Y d p y w t t t q t q q t ",
"I U a.a.s.g.g.x.x.x.A.x.x.P b s y t y t t t t t q y y u s s d K K k k N x ;.2Xd.i V i 9 9 9 9 9 9 w w e 9 w 9 9 i u 0 q q e u d f T T f u y y y t y y y y y y y ",
"J U U U s.g.d.a.W s.g.A.A.g.U U N a y y t t t t t t y t u b b x x h.>.U z.,XaXz.k y w 9 9 9 9 9 9 9 9 w w w w 9 H k e u e u e e i L K d u u u u u u u y y y p p ",
"s a m M M V J P B V V U Z.d.U >.U U M u t t t y y t t t q N d >.>.B.A.L -.>.h.-.e w w w q w 9 q q e w e q q q e e e e u u r d d s I U u d d u u u u u u y u s a ",
"a a M m a b s M b m b b a.x.s.a.s.g.U b p p t t y y y t w q H W >.,.2X-.k I L 2.L x K j u g k 1.v k u y q q e u u u e d d J n d d $.$.d d d d u u u s i i p i y ",
"y b b a a a p p p p p y b g.h.U s.x.x.U M a t y y y t t t y H J $.,.l.,.h.I +.E.,X1.H M V k L 2XB.H s u u e u u d d d d d L d n n %.s.n H H k u d d i N H k s y ",
"p p p p a p a a a a p p a N x.,.V U x.A.d.H b y y p s y i s M J H >.,.-.h.+.5._.2.<.k V V l k x k u s u u u d s d k d x x n n n n &.h.x $.&.K h r d d H A.g.d s ",
"a a a a a a a p p a p a y i s.Z.K B U h.A.s.V p k L U i s V V I K U h.V.D.B.yX_.: 3.V N j i a G M B j s d d b d n n n n n n n H H %.m.K f.M.+.d d d d x x.d.b d ",
"a a a a s a a y s N N y a p P A.g.k s K s.x.d.V K 3XV.H V P J V I $.1.fX2X,X:X`.U.5.V j M M P B D q.N K I n n n n n H n H n x n J o.n.Z L &.K d d x k d n n N b ",
"a s s a H x.J d ,.1Xz.M p a B z.1XJ M m M U Z.d.U x.d.I D j M N $.$.V.A.A.^.:X*X*X!.v V #.K K N s V N B N N n H H H n H n x x x U o.w.J z K x x x d x d N N N N ",
"a V q.D H x.U V z.2Xd.s a m V A.fXg.B M B q.d.D.d.L >.P b j s K >.;.5.$.2.-X:X&X*XW.x P <.V m D M s M M J J n J H J J H J x J x K M.t.#.V | x x x x x H N n B V ",
"m m D m m I J B J n b b b a b ,.7Xd.V M B V $.Z.x.>.I B b m V I H !.*X!.*X:XBXDX*XQ.L B 1.>.P N M M N N W s.W J J J n J J J J J { C.p.@.k | H c H x H H V H V N ",
"m A D D G #.P P P U J V b b M I D.h.P P s.s.<.d.7X2XK b m a K I K !.*XDXDXFXBXSXbXE.=.-.2.2Xz.I V I P P J W W U U J J J Y J L E 3.tXJ.b.Z %.I H H H K J J J J V ",
"D m B G P G U U U a.a.q.P K M V x.A.$.$.A.fX7Xz.A.A.U m m b P a.U ~.=XBX:XNXcXVXoXU.3 ~ =.-.I I P P P I J U W d.U J W J E E E E tXKXzXdX*.J.C.>.W L E L J J J P ",
"A D B D V D V V V V P U I I I P z.V.U $.W A.3Xx.>.A.k.m m m $.q.$.yX=XNX=XBX~.0X{.4 3 3 4 J D V I P P J U d.,.W d.W W E W ,.E T uXKXPXKXP.sXhXx.>.W W U U U I ! ",
"A b b ! ! P U I D D B P q.$.U I A.x.U #.U s.W I >.k.A.>.G U s.$.-.U.XX:X~.mXW.cXAXQ.3 3 ~ n M V P V ! U U W W E W d.W E L E H f 4.tXKXKXpXpXz.U L U ! U ! U U ! ",
"m D J g.g.a.g.U I V A D G P q.a.A.s.I D B B B G D a.6Xx.$.q.s.a.$.yX:XNXcXHXGXUXUX^.3 3 : H V D V H J W d.J J U d.W W W W W +.Z &.J.KXtXb.S.s.W W U W ! ! U ! ! ",
"U U k.A.A.h.A.h.q.I m m D D P x.x.a.U G V m m A A P A.B.U G #.I <.PXHXHXFXGXnXcXcXU.~ 4 : L >.J J J U W ,.W U U W W W W W W W Z *.pXsX&.J.v.a.U a.W q.W q.U q.! ",
"! g.A.1X1Xx.1Xz.g.a.V m m D q.x.s.P P $.$.q.P B G >.2XaX>.B D P S.UXFXNXNXNXNXZXVX~ 4 U.W.7X2X>.U U U U W d.>.d.W d.l.l.>Xd.>.* g c.S.@.kXhX1Xx.a.W q.q.a.q.q.q.",
"! d.1X6XA.A.A.A.l.h.a.a.P s.D.g.! m A D U k.g.V q.6XJXlXB.P D I 3XUXHXDXBXSXBXSXVX( 4 ~ 2.3XV.>.d.W W g.d.d.g.d.W d.l.4Xl.d.W $ g N.b.@.sXdXfXkXA.a.q.j.q.W r.q.",
"a.x.6XA.Z.h.h.A.A.7XA.aXA.6XZ.P D m A A m G q.f.h.3XLXgXh.P ! $.yXIXFXDX:XBXCXSXmX( ; R ,.D.V.<.a.s.g.d.d.d.s.a.W d.l.l.l.l.d.Y { pXS.O.P.c.P.sXkX6Xg.j.j.j.q.q.",
"d.1Xl.x.1X<XuX<X1XA.2XfX2XZ.I A A A A A F D P g.z.A.7X3Xx.$.q.q.uXPXFXDXBXBXSXCXmX( 3 R >.uXuXB.x.g.g.k.g.a.s.a.d.d.d.d.l.d.U b | pX:.| c...M.G.dXkX6Xk.j.j.q.j.",
"iXgXgX4XbX*X*XnX5X,XaXfX2Xf.B A S A A A F D A G U q.k.aXB.I G I 2.PXFXDXBXNXmXSXVX( 3 U.C.yXjXuXx.a.W x.d.a.d.s.d.d.d.a.d.e.z m o.dXtX*.O.} i.i.r.j.H.6Xx.a.j.q.",
"GXGXGXGXnX*X=X=XnXbX3X3X2Xx.G m A S A S S S A A G D q.7XH.q.G U R nXDXBXcX~.~.VXCXY.5 E.yXbXbXyXz.$.s.s.a.s.d.d.d.d.d.e.j.#.# l o.sXzXtX#.C w.8.F } } <.D.Z.k.j.",
"NX=XvXGXGXGXvX=XnXZXnXyX1X7XD.I A A A S F S S A S S 0.A.Z.q.q.3.R *XFXBX+X~.5XVXNXY.Y.yXvXbXvXbX4Xs.d.d.a.x.d.d.d.h.h.%.8.K X & #.pXxXaX&.| ..} C } u.#.%.N.G.H.",
"ZXZX=XvXvXFXGX=XvXvXNXbXbXiX2Xq.A A A A A A S S S S I A.B.G f.W.6 E.NXDXBXBXCXCXmX~ ~.zXbXvXGXGXbX!.3.3.s.x.h.l.z.z.h.#.o.K @ @ @.pXLXhX#.O.#.#.%.w.w.o.| 8.o.f.",
"vXvXvXXX*XvXZXvXNXvXcX*XcXbX<XZ.! A A m A A A A S S 0.A.B.I <X+XE.*XBXBXBXSXSXCXNX=.!.GXGXFXFXHX:X^._.U.a.l.W.4X>X>Xh.| ..| | h c.dXhXhX1.O.&.f.v.h.a.#.| | C g ",
"FX*X*XE.XXvXvX=XvXvX*X^.*XcXuX6Xg.D S S S S S S S S #.A.<X<.vXDX:X:XNXDXcXVX5XwX9XT ~ VXmX8XcX@X:XXX`.R.,.l.8XVX0X4Xz.z O.| g @ O.N.J.lXpX&.1.5.,X!.3.h.#.Z C l ",
"PXFXXXE.XX=X=XE.*XvX*X=XcX=XbX3X2XI F G S F S S S S q.D.XX^.vX:X:X:XNXNXW.^.2.8X9XW.W.8X8X8XcXNXNX`.`.8 2.>X9XIXwX5X3.h O.| & @ <.P.hXLXsX3.!.4X5X8X4X5.1.#...} ",
"FXGXXX7 E.:XXXE.yXvXnXvX=X*XyXuXaXB.G $.F S S F F S q.2XXX*XvX:XDXHXGXmXW.Q.~ 8XCX@X XZXZXIXZXSX:X&X&X`.Y.V.4X8X8X4XE X h | g z c.dXhXxXtX1X4X+XmXNX8X!.3.%.X.Z ",
"GXvXXX6 E.XX7 E.XXE.E.E.E.E.4XuXjXaXa.2.F F F F S S &.tX&X:X:XDXFXFXUXvXQ.5X4X9XCXwX{.8X5X8X^.8XDXBXDXDXNXiX1X5.1X1Xv X * | l { b.pXhXzXuXuXyX=XHXIXvX4XB.w.X.C ",
"vX=XR.4 6 6 4 4 : - - : : 6 !.D.fX3X!.).I F F F F F k.jX:X:XDXDXBXMXCXUX0XOXVXCXCX%X).cXnXnXAXAXHXDXNX:XNXbXA.f.S.,X{ & g } } { N.D.sXhXzXjX4X@XZXGXbX!.1.| X.X.",
"NXE.6 7 ( 4 6 4 4 4 6 6 6 U.3.C.aXgX*X8 E F F F F ! A.ZX:X:XDXDXMXVXwXCXIXcXmXCXCXOX).GXPXIXPXIXZXXXQ.Q.~.4XZ.#.m.^.:.X.o.z + + z @.y.b.C.2X<X4X5X8X4X3.+... .X.",
"@X)._.oX XE.7 6 6 6 6 6 E.U.E g.D.yX-X&XE.q.F G G I 3XGXDXDXDXmX@XwXQ.wXVXIXPXoX@X@X}.SXSXAXSXSXZXZX+XAXcXnX1Xz v._.=.} | & @ ; 5.J.J.pXS.c.<.V.5.5.5.<.%. . . .",
"#X@X@XmX;XXXE.7 7 7 6 4 E.R.2.,.D.GXDXDXDXgX0.F ! f.LXHXHXDX:X;X0XMX0XwXMXIXPX X XoX).CXCXCXCXCXIXUXIXPXIXIX5.& 2.`.8 { } { yXGXGXFXJXhXdXm.@.f.c +.<.&...}  . .",
"@X-X-XMX%XOX).R.7 5 6 - 6 Y.=.U g.bXXX*X-XvXe.I I 2XGXGXFXFXBXmXMXwXwX9XrXIXPXAX9X~.{.wXVXVX0X9X9X[.].].[.{.T * yXBXNXyX&.uX:X;X;X%XbXxXkXv.Z &.h O.&.$.| } X.X.",
"< Y._.*X=XE.5 4 - = - 7 U.E.=.G <.GXNXDXNXnXh.2XuXbXGXDXDXDX0X~.wXoX9XW.wXCX9X'.[ ; T.W.Q 0X>XR Q.] ` ] (.T.h <.bXE. X=XnXGX@X.X#X}.8XxXhX-.g O.@ | e.&.#...X. .",
"=   4 7 R.4 - =     = vXvXGX5.P f.NXNX:XNXbXiXPXGXZX@X-X:XHXwXoX9XQ.wX9XCXCX[.[ / - E.Q.W.bX8X4X8X` ` ] ] '.!.uX+XoX^.+XvXNX#X.X.X}. X+X4Xc # g X C e.&.K @.o.} ",
":   : ).7 7 4 U.    : =X:X=X!.#.B.+X#X#X.XNXUXHXHXDXXX@XNXHXHXIXUXIXUXUXUXIX9X9X XbXAXPXAXPXPXPXVX` ' ] ] ] @XcX=X=X=XmXcX;X#X.X}.}.(./ U.c h * X C %.<.&.%.%.X.",
"~.U. X-X_.7 7 E.; - Y..X#X.X3.I z.+X#X#X#XNXHXFXFXDX:X-XHXIXUXIXIXIXIXCXIXCXqX|.Q.0XSXZXCXCXCXVXqX' [ [ ] ] $XeXwXwXMXrXMXMX}.}.[.{.[ 2 ^ ;.z + X g o.c.b.*.@.%.",
"BXBXSXSX%X).).).).).R..X.X.X!.1X5X@X#X}.}.-XBXDXDXBX%X%XMXMXrXrXrXrXrXrXrXqX].].^ '.rXrXrXrXrXrX|.' [ [ ` ` $XCXMXMXCXCXeXeX}.(.] '.[ 2 ^ 1.z + * :.&.b.J.b.*.@.",
"-XMXSXSXwX#X;X@X.XT.R..X.X.X^.*XXXoX.X}.}.$XMXBXMX-X#X.X%XeXqX9XQ Q.rXrXrXqX].].^ {.CXCXVXCXVXrX$X` ` ` ` ` OX@X0XwX XOXrXrX[.] [ ] _ ^ 2 v l h @.L.b.b.J.b.&.&.",
".X#X;XMX#X). X).Y.3 T..X}.}.E.Y.E..X}.(.(.%XNXMXNX;X}.}.$XwX9XoXY Q.9X9XrXqX].].^ R.{.{.0XT.T.rX$X` [ [ ` ` ) 3 T.{.3 ) rXrX[.] ` [ [ 2 1 T | } w.J.4.b.b.c.*.&.",
"7 ).#X_.7 7 7 7 5 < Y.}.(.(.Y.6 E.{.].].].T.T..XR.T.(.[.qXwX9X9X>X5XwXwXrXqX].].( ) ^ ~ }.3 ~ qX$X` [ [ ` ` / ^ ) {.~ ) wXeX[.` ` [ Q./ 1 Y #.8.u.J.B.h.*.<.@.#.",
".X#X(.5 1 2 5 4 4 - 5 }.}./.Y.6 Y.'.] ] ] 5 ~ }.( ( (.(.qXCXVX6XP.P.JX5X9XrX].[.^ T.( ) OX) T.wX|.` ` ` ` ` ] OXqXqXqXqXrXrX[.` ` ` ` / 1 R c.y.y.dXC.1.%.<.-.+.",
").%X.X5 , 5 7 < . . 7 }.[.(.6 4 ~ ' ` ` ] ] }.qXOX.X].].qXnX3X1.Y R W.,XiXqX[.[ ^ /.qXeXrXeXrXrX|.` ` ` ` ` ].VXVXVXCXVXeXeX[.] ` _ ` _ 1 R B.F.y.dX2X<.%.1.:.3.",
"E.oX_.}./.R.4 = . : )._.(./.7 6 Q.` ` ` ` |.rXrXrX$X].].0X5X5.= o = ; l.9XqX].].) T.rXeXeXeXwXrX$X` ` ` ` ` ` Q.oXOXT.{.eXeX|.` ` ` ` _ 1 1 ~ Q y.dXC.v.%.1.5.~.",
"#X;X_./.7 5 U.>X4XiX.X}.}.(.U.2.W.` ` ` ' [.wXbXwXqX].].wXZXU.= o o o U.9XwX[.].^ T.rXMXwXwXrXrX|.] ` ` ` ` _ ^ ) '.3 ) eXeX[.` ` ` ` _ 1 1 1 3 c.sX2X1.w.4.!.bX",
"%XNX%X).7 Y.bXgXJXbXoX.X}./.3.f.l.` ` ` ` |.5X~ W.9X].].OX{.~ o o o o U.8XqX].].^ /.wX~.< [ wXrX|.` ` ` ` ` ` ) T.{.( ].eXeX|.` ` ` ` _ 1 1 1 1 !.sXhX<.w.B.4XnX",
"%XMX-X#X_.nXbXiXfXiX.X.X}.'.iX6X>X` ` ` ` '.>X, < oX[ [.'.4 : = o o o 2.4XrX].].^ /.rX~ O 3 wXrX|.` ` ` ` ` ` |.rXeXqXeXeXrX[.` ` ` ` _ 1 1 1 1 R V.D.&.u.b.!.yX",
"-XMX-XeXMXbXfX4X3X4X.X#X}.[.JXlX5X` ` ` ` '.!., < 5X].[ oXC.=.= o o o U.8XqX[.[.^ Q.rX( O ~ wXrX$X` ` ` ` ` ` $XrXrXrXrXrXrX|.` ` ` ` ' 1 1 1 1 > W.c.O.w.c.B.5.",
"wXrXCXrXnXJX3X3X2XiX:X=X=X@XgXaXyXoXOXOXoX8X2.O < 4X5X4XaXI.T = o o o 2.>X4X>X>XW.Q.CX~ O 3 bXbXiX~.~.!.~.^.5X^.~.4X4X!.W.4X~.^.*XcX8X0XT.3 4 3 - =.K g O.&.4.3.",
"CXVXZXnXJXiX3X3X2X^.*X*X*XXXuXtX^.+X^.^.^.^.2.< ~ aXI.I.I.I.=.o o o = z.Z.Z.A.A.l.+XIX( O 4 sXhX5XyX^.^.^.yX^.~.c h z * * c.!.^.^.^.^.^.~.6 6 6 ; ; l h b.b.1.;.",
"bXbXJXJXJX4X3X1XV.<X~.^.~.~.!.z.~.!.~.~.~.~.D.<XV.hXI.I.I.L.R = o o = l.x.Z.A.A.V.8XPXoXT.Q.PXPX+X^.^.XX^.^.+X!.z z { h { *.!.^.XXXX^.XXE.R : { { h l #.S.B.3.* ",
"hXgXJXJX3X3X1X,X2.R Y L L E v L E L >.d.k.k.m.j.k.aXkXH.G.N.l.,.Q ,.2.l.Z.A.A.H.A.3XgXgXgXlXgXiX!.=.2.;.=.1.b.b.| z y.w.y.:.* =.2.5.4.2.v X g C X. .l c.P.V.=.* ",
"D.1XtX<X,X<X,X>XW.Y f W f.k.f.a.j.q.j.e.r.q.j.f.m.aXgX6XZ.m.k.k.k.x.x.6X6XfXfXfXaX3X1X7X7XV.* h & & l & l X.7.t. .g <.G.@.@.& + @.u.*.} l + & C 7.8...&.sXV.-.+ ",
"C.B.V.C.V.V.>XW.Q Y T j.n.m.n.j.r.j.j.j.j.j.j.j.Z.aXfXD.Z.m.x.m.m.x.6XdXlXlXJXLXLXLXgX2XD.-.X X e g } & & | u.y.| g <.sXN.%.z z c.K.t.7.} X # Z &.e.y.G.sXV.* + ",
"4.4.C.5.4.V.3.>XQ T d.k.n.m.j.j.j.j.j.j.j.f.j.j.H.gXfXG.m.k.m.k.Z.H.7XlXlXpXaXLXuXtXtX,Xc c g g z j w.@.} b.sXsX<.g 1.hXP.K.c.M.K.p.X.X.7.& z S.tXsXJ.N.pX2.+ + ",
"<.:.4.1.;.z.z.z.>X2.k.n.m.m.n.j.j.j.j.j.j.j.j.k.H.kX6XZ.k.m.k.k.H.7XfXkXkXn.r.aXLXlXhXJXuXN.8.6.y...M.c.M.:.zXxXv.Z S.dXL.L.L.L.M.X.} l t.X.y.pXC.zXsXc.tX-.X @ ",
"-.-.<.:.3.V.h.h.x.z.h.h.k.n.n.j.n.j.n.m.n.n.k.Z.pXdXH.k.k.k.k.Z.aXkXH.F.i.9.p.6XJXJXkX6XlXzXM.7.t.0.o.y.N.C.aXsXkXv.<.M.u.t.w.o.} & + + & } *.b.H.sXsXf.b.V.* & ",
"{ v { -.v ;.h.v.s.d.h.,.x.m.k.m.n.n.m.k.m.m.m.6XpX6XZ.m.m.m.m.6XjXsXr.7.9.i.H.7XlXLXfXZ.S.LXKXH.X.C } %.N.pXsXsXhX4.h c.c.y.w.o.g @ + X @ l o.c.pXsXhX+.h <.v l ",
"O.v +.-.-.-.;.B.d.h.g.s.,.z.A.m.m.n.n.m.Z.H.tXsXpXG.Z.m.m.m.Z.fXlXJ.8.6.t.F.H.6XgXLXKXKXLXUXUXKXtXZ Z C %.c.b.J.J.@.z N.P.L.p.K.M.@.& + + + z @.c.S.b.z # * & } ",
"+.-.+.-.-.-.T E 3.W d.d.s.h.z.Z.m.m.m.m.Z.fXlXhX6XZ.Z.m.Z.Z.H.kXaX8. .o.i.G.pXdXfXlXLXKXUXUXKXUXUXJ.%.m } y.S.J.M.&.S.L.K.K.K.p.p.p.o.& X X & #.n.N.c.l O.*.Z %.",
"v :.+.{ c v =.c E z.s.W s.x.d.l.A.G.A.6XfXLXKXfXZ.m.Z.Z.Z.6XkXlXdXo.F 8.F.H.dXlXkXG.n.G.dXLXhXtXKXKX+.g 8.L.dXkXN.v.dXP.K.K.F.p.p.p.p.7.@ + l u.P.kXn.Z y.&.& l ",
"O.O.O.K h c v T W d.s.U s.d.d.z.l.6XlXLXzXhXLXaXH.G.Z.Z.pXlXlXfXe. . .X...%.e.B.C.n.9.9.8.<.e.%.C.aX<.l w.L.kXxXdXdXsXP.L.M.M.K.p.p.t.t.O.@  .F.P.lXS...@.<.& l ",
"O.@.K h c v T ;.l.h.g.k.h.d.W d.d.l.1XaX2XD.pXA.G.G.G.6XjXJXlXk.F } C C k.pXpXm.Z  .7.F.e. .C F %.&.o.F t.L.lXlXdXdXP.dXL.L.G.K.K.p.p.t.} @ } F.F.dXsXpXD.S.@.} ",
"%.%.z h c v T -.l.l.d.B.z.g.s.d.s.d.l.V.2X6XH.Z.Z.A.6XkXlXLXLXh.C F C j y.m.D.v.B  .t.t.o.F F } C C  . .0.J.xXkXdXpXP.dXP.N.@.&.K.p.p.p.C & } F.N.sXxXxXxXdXM.X.",
"%.@.| h c T T U >.L W h.k.x.d.g.>.g.g.d.V.aXaX6XD.6XfXlXlXJXLXlX1.C  .j  .F ..v.$. .7.9. .| ..pX<.C  ...e.J.hXlXdXdXdXdXN.Z l l @.b.K.p.Z &  .N.dXkXlXzXhXaXn.6.",
"o.} @.{ * Y v a.a.U J U W g.g.a.s.s.h.g.g.Z.7X6XZ.G.6XfXkXfXkXlXsX#.C C C  .y.pXD.m.t.9.e.pXB.D.D.c. .6.i.dXLXLXsXD.dXS. .C } C l } M.N.h g X.F.pXzXzXzXhXdXi.t.",
"@.} { { c c K a.a.a.W ! ! U a.j.q.d.h.d.q.a.k.6XA.g.k.Z.x.H.7X7XaX2XZ C F 9.9.o.O.%.8.t.o.y.F.0.o.u.6.6.p.dXLXLXL.S.dXo.C j j g & & O.b.g e 9.F.dXxXLXLXlXdXu.t.",
"} | z c c v >.f.q.a.! ! P J U s.f.a.<.h.m.j.e.h.6XG.q.e.j.Z.6XH.D.aXf.G }  .6.F F  . .7.7.8.9.6.9.7.6.6.M.kXLXlXM.pXdXo.C g e g l e g ..g e ..i.pXlXlXxXlXdXr.t.",
"} } h c c { a.a.U ! ! 0.0.I ! a.a.f.k.h.x.g.q.q.f.2XD.h.j.e.m.A.H.H.x.k.k.r.r.r.w.w.8.8.t.9.9.6.7. . .6.p.pXzXxXN.sXpX..j g l w.i.| m  .z g j e.pXkXtXlXzXdXr.p.",
"h } c c * { g.q.0.I G 0.0.q.! U U q.f.g.h.k.j.e.f.m.D.6XG.k.j.m.m.Z.Z.A.Z.k.k.m.m.m.n.m.n.r.i.r.u.w.9.9.i.e.pXkXJ.sXB.C F l C i.P.P.e.w.| l ..N.dXlXaXlXkXpXu.p.",
"} { { { =.{ :.q.! ! G G ! ! q.g.a.q.q.f.g.g.k.j.j.v.j.Z.pX6XB.Z.x.k.m.j.j.m.Z.m.m.m.m.n.j.0.j.r.r.r.u.r.i.j.S.m.Z.G.$.G t.0.8.i.M.M.w.w.#.G 8.e.A.A.k.A.Z.m.8.u.",
"| z { { :.:.<.q.0.! ! ! P I ! d.d.f.q.a.a.g.g.k.k.f.e.f.h.H.aXA.Z.k.m.w.0.q.r.n.m.m.m.k.j.r.r.r.r.9.6.6.r.j.m.k.r.0.6.0.r.6...0.8.....9.9.F 6.0.g.g.q.j.k.k.9.r."
};
