/* XPM */
static char *_115404eb58d4c35a4a93c5b268ad70chWbY53l3uuIa6arH[] = {
/* columns rows colors chars-per-pixel */
"80 80 252 2 ",
"   c #383C4A",
".  c #52394E",
"X  c #743B50",
"o  c #334955",
"O  c #3B5067",
"+  c #49464E",
"@  c #4D4659",
"#  c #564557",
"$  c #564E57",
"%  c #734B59",
"&  c #594D63",
"*  c #70596D",
"=  c #546E75",
"-  c #766877",
";  c #746570",
":  c #945C78",
">  c #8D546E",
",  c #A94B77",
"<  c #AC5377",
"1  c #966774",
"2  c #8C6B76",
"3  c #A4697B",
"4  c #A4707D",
"5  c #82525E",
"6  c #79827F",
"7  c #677485",
"8  c #76718C",
"9  c #4A6D83",
"0  c #A75D83",
"q  c #877887",
"w  c #977986",
"e  c #91758D",
"r  c #A96C82",
"t  c #BA6987",
"y  c #B7788C",
"u  c #B77B96",
"i  c #A97A8A",
"p  c #AA7DA7",
"a  c #CB6D98",
"s  c #C57394",
"d  c #CB7494",
"f  c #C5739B",
"g  c #CC759C",
"h  c #C57B9B",
"j  c #CB7A9D",
"k  c #C77B95",
"l  c #D2749C",
"z  c #D2789A",
"x  c #C26E8C",
"c  c #C979A4",
"v  c #D479A4",
"b  c #3F8082",
"n  c #558990",
"m  c #668188",
"M  c #71878E",
"N  c #6D97AD",
"B  c #56A9B6",
"V  c #71ABB2",
"C  c #4C98AF",
"Z  c #5ABBC9",
"A  c #6EB6C6",
"S  c #77C7CB",
"D  c #77C9D4",
"F  c #79D9DB",
"G  c #6CCED2",
"H  c #72E1DE",
"J  c #69DDE8",
"K  c #78DBE7",
"L  c #78DDF3",
"P  c #6ED1E7",
"I  c #5AE6ED",
"U  c #4EEDFD",
"Y  c #4EEDF3",
"T  c #5EE5F3",
"R  c #55EEF6",
"E  c #5CEBF5",
"W  c #54E6FC",
"Q  c #5CE6FB",
"!  c #56EDFE",
"~  c #5AECFD",
"^  c #54E7F7",
"/  c #4EF1FC",
"(  c #4FF2F5",
")  c #53F1F5",
"_  c #53F1FD",
"`  c #5AF1FE",
"'  c #59F2F7",
"]  c #64E5EC",
"[  c #6CE4EC",
"{  c #68E8EB",
"}  c #7BE2E5",
"|  c #76E3E9",
" . c #64E5F3",
".. c #6CE5F4",
"X. c #64EAF4",
"o. c #6AE9F3",
"O. c #63E6FB",
"+. c #63EBFC",
"@. c #6BEBFC",
"#. c #6DE3FA",
"$. c #73E4F4",
"%. c #7CE2F2",
"&. c #77E8F8",
"*. c #70F2FA",
"=. c #5CD8E1",
"-. c #98838A",
";. c #868692",
":. c #938F92",
">. c #A08B96",
",. c #B98797",
"<. c #B7989A",
"1. c #AA8A8D",
"2. c #B8A59C",
"3. c #ABA58F",
"4. c #9B9AA7",
"5. c #8F96A8",
"6. c #B98BA8",
"7. c #AA96A6",
"8. c #B89CAA",
"9. c #AE94B0",
"0. c #98B8BD",
"q. c #92ACB0",
"w. c #BAA7AB",
"e. c #B8AAB5",
"r. c #A9B9B8",
"t. c #B8B7B8",
"y. c #AEAFAA",
"u. c #9BA78F",
"i. c #CB839E",
"p. c #C6889C",
"a. c #D4939D",
"s. c #D1919E",
"d. c #D2B49E",
"f. c #C988A3",
"g. c #D78BA7",
"h. c #C997A7",
"j. c #D797A7",
"k. c #D698B4",
"l. c #E89AB6",
"z. c #E696AC",
"x. c #C7A6AC",
"c. c #DBA8AA",
"v. c #CAB7AC",
"b. c #D4B4AE",
"n. c #C7ACB8",
"m. c #DBAABB",
"M. c #C8B7B9",
"N. c #D7B7B8",
"B. c #E7AAB9",
"V. c #E3B5BB",
"C. c #E3A3A7",
"Z. c #94C3BD",
"A. c #B4C2B7",
"S. c #DBC5A8",
"D. c #CCC4B9",
"F. c #D7C7B9",
"G. c #DCD8B9",
"H. c #D3C9AC",
"J. c #E7C8BA",
"K. c #E5D9BD",
"L. c #EBC5A0",
"P. c #90B8CC",
"I. c #A7BAC6",
"U. c #BBB9C5",
"Y. c #ACB2CD",
"T. c #F09DC2",
"R. c #C8B4C8",
"E. c #D8B9C7",
"W. c #DABDD3",
"Q. c #D2AAC5",
"!. c #E9A9C4",
"~. c #F2A5C2",
"^. c #E5BBC4",
"/. c #EDBACB",
"(. c #E7B6C6",
"). c #F4BBCB",
"_. c #F8B6CC",
"`. c #E8BCD4",
"'. c #FABBD3",
"]. c #96C9C8",
"[. c #86CAD9",
"{. c #98CAD6",
"}. c #88D9DA",
"|. c #95D6D8",
" X c #90CBCB",
".X c #A8C7C8",
"XX c #B5C6C5",
"oX c #B6D5CD",
"OX c #A7CAD6",
"+X c #BAC5D6",
"@X c #A9D6D8",
"#X c #AED5D0",
"$X c #90E4DC",
"%X c #B8E3DA",
"&X c #83DBE3",
"*X c #88D9E8",
"=X c #98DBE5",
"-X c #85DEF5",
";X c #96D7EE",
":X c #A6D8E6",
">X c #B7DAE5",
",X c #A1CFE6",
"<X c #86E6E9",
"1X c #97E5E5",
"2X c #83E3F3",
"3X c #98ECF8",
"4X c #97F4FF",
"5X c #A8E8E9",
"6X c #B3EDF3",
"7X c #B4ECEF",
"8X c #C3C7C7",
"9X c #D9C6C8",
"0X c #C8D8C7",
"qX c #D7D6CB",
"wX c #CBC8D7",
"eX c #DCC4D3",
"rX c #DBC9D6",
"tX c #C9D8D4",
"yX c #DAD7D5",
"uX c #ECCAC5",
"iX c #E8C6C9",
"pX c #F2C7C9",
"aX c #E7D7C8",
"sX c #F4D9C8",
"dX c #E9C8D5",
"fX c #F7C8D6",
"gX c #EAD7D8",
"hX c #F4D5D2",
"jX c #F7D8D8",
"kX c #D8E4D3",
"lX c #F6E4CA",
"zX c #E9E8D8",
"xX c #F8E6D7",
"cX c #F2E8D0",
"vX c #D0D3E6",
"bX c #E9D6E4",
"nX c #FAD8E5",
"mX c #F5D9F2",
"MX c #C6F8EC",
"NX c #C9F9F6",
"BX c #D6F6F8",
"VX c #D2F0EA",
"CX c #E9E4E2",
"ZX c #FDECEC",
"AX c #F9E7E7",
"SX c #ECF6E9",
"DX c #F8F5E8",
"FX c #FDECF4",
"GX c #FCEAF6",
"HX c #E7F6F6",
"JX c #FFF4FF",
"KX c #F9F8F9",
/* pixels */
"! ! ! ! ! ! ! ! ! ! ! ! ! ! ! ! ! ! ! ! ! ! ! ! ! ! ! ! ! ! ! ! ! ! / / ~ +.~ ~ ! U ! ~ ! _ ~ ! ! ! ! ! ! ! ! ! ! ! ! ! ! ! ! ! ! ! ! ! ! ~ ! ! ! ! ! ! ! ! ! ! ",
"! ! ! ! ! ! ! ! ! ! ! ! ! ! ~ ! ! ~ ! ! ! ! ! ! ! ! ! ! ! ! ! ~ ! ! _ ! ~ ! ~ ~ ! ! _ ! ! ! ~ ~ ! ! ! ! ! ! ! ! ! ~ ! ! ! ~ ! ! ! ! ! ! ! ! ! ! ~ ! ! ! ! ! ! ! ",
"! ! ! ! ! ! ! ! ! ! ! ! ! ! ! ! ! ! ! ! ! ! ! ! ! ! ! ~ ! ! ! ! ! ! ! ! ! ! ~ ~ ! ! ! ! ! ! ! ~ ! ~ ! ! ! ! ! ~ ! ! ! ! ! ! ! ! ! ! ! ! ! ! ! ! ! ! ! ! ! ! ~ ! ",
"! ! ! ! ! ! ~ ! ~ ! ! ! ! ! ! ! ! ! ! ! ! ! ~ ! ! ! ! ! ! ! ! ! ! ! ~ ~ R ! ~ ~ ! _ ! ! / ! ! ! ! ! ! ! ! ! ! ! ! ! ! ! ! ! ! ! ! ! ! ~ ! ! ! ! ! ! ! ! ! ! ! ! ",
"! ! ! ! ! ! ! ! ~ ! ! ! ! ! ! ! ! ! ! ! ! ! ~ ! ! ! ! ! ! ! ~ ! ! ~ O.~ U / ! ! ! ! ! ! ! R ! ! ! ! ! ! ! ~ ! ! ! ! ! ! ! ~ ! ! ! ! ! ! ! ! ! ! ! ! ! ! ! ! ! ! ",
"! ! ! ! ! ~ ! ! ! ! ! ! ! ! ! ! ! ! ! ! ! ! ! ! ! ! ! ! ! ! ! ! ! ! O.Q _ _ ! ! ) ! ! ! ! ) ! ! ! ! ! ! ! ! ! ! ! ! ! ! ! ! ! ! ! ! ! ! ! ! ! ! ! ~ ! ! ! ~ ! ! ",
"! ! ! ! ! ! ! ! ! ! ! ! ! ! ! ~ ! ~ ! ! ! ! ! ! ! ! ! ! ! ! ! ! ! ! ~ +.! R ! ! ! ! ~ ! ~ ) _ ! ! ! ! ! ! ! ! ! ! ! ! ~ ! ! ! ! ! ! ! ! ! ! ! ! ! ! ! ! ! ! ! ! ",
"! ! ! ! ! ! ! ! ! ! ! ! ! ! ! ! ! ! ! ! ! ! ! ! ! ! ! ~ ! ! ! ! _ ! ! ! ! _ E E ~ ! ! ! ~ R R ! ! ! ! ! ! ! ! ! ! ! ! ! ! ! ! ! ! ! ! ~ ! ! ! ~ ! ! ! ! ! ! ! ! ",
"! ! ! ! ! ! ! ! ! ! ! ! ! ! ! ! ! ! ! ! ! ! ! ! ! ! ! ! ! ! ! ! ! ! W _ ( R [ [ X.R ! ! _ ~ _ U ! ! ! ! ! ! ! ! ! ! ! ! ! ! ~ ! ! ! ! ~ ! ! ! ! ! ! ! ! ! ! ! ! ",
"! ! ! ! ! ! ! ! ! ! ! ! ! ! ! ! ! ! ! ! ! ! ! ! ! ! ! ! ! ! ! ! ! _ _ / ) E <XG J @.~ ! Q R ! ` ! ! ! ~ ! ! ! ! ~ ! ! ! ! ! ! ! ! ! ! ! ! ! ! ! ! ! ! ! ! ! ! ! ",
"~ ! ! ! ~ ! ! ! ! ! ! ! ! ! ! ! ! ! ! ! ~ ! ! ! ! ~ ! ! ! ~ ! ! ! ~ ! R Y { }.q.D *.^ _ ! ! ~ ! ! ! ! ! ! ! ! ~ ! ! ! ! ! ! ! ! ! ! ! ! ! ! ! ! ! ! ! ! ! ~ ! ! ",
"! ! ! ! ! ! ! ! ! ! ! ~ ! ! ! ~ ! ! ! ! ! ! ! ! ! ! ! ! ! ! ! ! ! ! ! E ' { #Xq.N %.Q ! ~ ! ~ Q ! ! ! ! ! ! ! ! ! ! ! ! ! ! ! ! ! ! ! ! ! ! ! ! ! ~ ! ! ! ! ! ! ",
"! ! ! ! ! ! ~ ! ! ! ! ! ! ! ! ! ! ! ! ! ! ! ! ! ! ! ! ! ! ~ ! ! ~ +.X.o.{ $XkXt.m D X.( R T ~ ~ ~ ! ! ! ! ! ! ! ! ! ! ! ! ! ~ ! ! ! ! ~ ! ! ! ! ! ! ! ! ! ! ! ! ",
"! ! ! ! ! ! ! ! ~ ! ! ! ! ! ! ! ! ! ! ! ! ! ~ ! ! ! ! ! ! ! ! ~ Q @. .[ H $XyXH.:.S ] R ' T ~ ~ ! ! ! ! ! ! ! ! ! ! ! ! ! ! ! ! ! ! ! ! ! ! ! ! ! ! ! ! ! ! ~ ! ",
"! ~ ! ! ! ! ! ! ! ! ! ! ! ! ! ! ! ! ! ! ! ! ! ! ~ ! ! ! ! ! ! ! E  .=.} $X%XqXb.H.q.J R X.' ~ ~ ! ! ! ! ! ! ! ! ! ! ! ! ! ! ! ! ! ! ! ! ! ! ! ! ~ ! ! ! ! ! ! ! ",
"! ! ! ! ! ! ! ! ! ! ! ! ! ! ~ ! ! ` ! ! ! ! ! ! ! ! ! ! ! ! ! ~ o.J B |.oX0XK.S.D.q.F I =.] Q ! ! ~ ! ! ! ! ~ ! ! ! ! ~ ! ! ~ ! ! ! ! ! ! ~ ! ! ! ! ! ! ! ! ! ! ",
"! ! ! ! ! ! ! ! ! ! ~ ! ! ! ! ! ! _ _ _ R ! ! ~ ~ ! ! ! ! ! !  .K *X].0XG.K.lXxX9X5.[.$.Z J ~ ! ~ ~ ~ ! ! _ ! ! ! ! ! ~ ~ ! ~ ~ ~ ! ! ! ! ! ! ! ! ! ! ! ! ! ~ ! ",
"! ! ~ ! ! ! ! ! ! ! ! ! ! ! ~ ! ! ! ! ` _ ! ! ~ ! ! ! ! W ! !  .L  X0XxXlXlXsXgXrXy.M P.C P +.! ~ ~ ! ! ! ! ! ! ! ! ~ ! ! ! ~ ! ! ! ! ! ! ! ! ! ! ! ! ! ! ! ! ! ",
"! ! ! ! ~ ! ! ! ! ! ! ! ! ! ! ! ! ! ! ! _ E E ! ! ! ! _ _ ! !  .<X].XXcXlXG.aXgXe.-.- M N Z @.! ! ! ! ! R ! _ ~ _ ! ! _ / ! ! _ ! ! ! ! ! ! ! ~ ! ! ! ! ! ! ! ! ",
"! ! ! ! ! ! ! ! ! ! ! ! ! ! ! ! ! ~ ~ ~ ~ ~ ~ ! / ! / _ _ ! ! X.<X:X8XaXH.cX>.9Xw.; : q M A @.! ! ! ! ! ~ ~ ~ R ! ! ! ! / / _ ! ! ! ! ! ! ! ! ! ! ! ~ ! ! ! ! ! ",
"! ! ! ! ! ! ! ! ! ! ~ ! ! ! ! ! ~ ~ ~ ~ E ~ ~ ) _ U / U _ ! ~  .<XV y.aX3.iX-.R.FXw.5 2 7 S ' _ _ _ / _ ~ ~ ! ! ! ~ ! ! ! _ ! ! ! ! ! ! ! ! ! ! ! ! ! ! ! ! ! ! ",
"! ! ! ! ! ! ! ! ! ! ! ! ! ! ! ! ! ! ~ ! ~ ~ E _ ) _ / _ ! R ~ ] $X%XqXK.uXAXGXJXJXM.1 ; 7 S X./ _ ! / / ! ~ ! ! _ ` ! ! ! U ! ! ! ! ! ! ! ~ ! ! ! ! ! ~ ! ! ! ~ ",
"! ! ! ! ~ ! ! ! ! ! ! ! ! ! ! ! ! ! ! ! ! ~ _ ! _ ! ! ! ! ! ! ] $XBXSXDXlXzXyXwXdX-.w -.= G X.U ! ! ! ! ~ ~ ! ! ! R ~ W ! ! ~ O.~ ! ! ! ! ! ! ! ! ! ! ! ! ! ! ! ",
"! ~ ! ! ! ! ! ! ! ! ! ! ! ! ! ! _ U R ! ! _ ) ! ! ! ! ! ! ~ !  .$XMXcXG.K.qXaXgXgXw 2 ;.V 2Xo.E ~ ! ! ! ~ Q ~ ! ! ! ~ ~ ! ~ ~ ~ ~ ! ! ! ! ! ! ! ! ! ! ! ! ! ! ! ",
"! ! ! ! ! ! ! ! ! ! ~ ! ! ! ! ! ! / ! ! ! / ! ! ! ~ ~ ~ ! ! !  .5XSXzXlXlXlXaXhXiXw q 7 A %.J o.O.~ ! ! Q ~ ! ! _ ~ ~ ) _ ! ! ! ! ! ! ! ! ! ! ! ! ! ! ! ! ! ! ! ",
"! ! ! ! ! ! ! ! ! ! ! ! ! ! ! ! ! ! ! / _ _ ! ! ~ ~ ~ ! ! U _  .7XKXAXsXuXsXhXhXgX4 % 8 [.} K $.o.~ ! ! ~ ~ ! ! ! ! ~ Q ! _ R _ ! ! ! ! ! ! ! ! ! ! ! ! ! ! ! ! ",
"! ! ! ! ! ! ! ! ! ! ! ! ! ! ! ` ! ! ! _ ! R ! ~ ! ~ W W ` ! _ =.|.KXzXjXxXsXhXhXhXw 2 ;.:X1X}.[.o.E ! ! ! U ! ! ! ! ~ ~ ! ! ! / ! ! ! ! ! ! ! ! ! ! ! ! ! ! ! ! ",
"~ ! ! ! ! ! ~ ! ! ! ! ! ! ! ! ~ ~ ~ ! ! ! ! ~ ~ ~ +._ _ ! ! +.G n KXxXjXxXgXiXhXiX4 q ;.@X@X@X{.| X.E E _ U _ ! ! ~ ~ ~ ~ ! _ ! ! ! ! ! ! ! ! ! ~ ! ! ! ~ ! ! ! ",
"! ! ! ~ ! ! ! ! ! ! ! ! ! ~ ! ! ~ ~ ! _ ! ! ~ Q ! ! ! ! W X.&.A = zXAXhXM.2.2.dXgX-.2 y.oX%X%X#XS H { { R _ _ _ ~ ~ ! ! ~ ~ ~ ! ` ! ! ! ! ! ! ! ! ! ! ! ! ! ! ! ",
"! ! ! ! ! ! ! ! ! ! ! ! ! ! ! ! O.~ ! _ _ ! ~ ~ ~ W ( _ E ..-XN = 9XxXcXv.2.w.gXjXw 1.qXtXkX0XoX X}.}.| I _ U U ! ! ! ! O.~ ! ! ! ! ! ! ! ! ! ! ! ! ! ! ! ! ! ! ",
"! ! ! ! ! ! ! ! ~ ! ! ! ! ! ! ~ ~ ! ! / ! ! ! ~ ` R / ' { | [.V 6 y.aXcXsXjXjXgXbX- y.qXqXkXkXzXtX.X|.D { ' U _ ! ! ! ! +.~ ! / ! ! ! ! ~ ! ! ! ! ! ! ! ! ! ! ! ",
"! ! ! ! ! ! ! ! ! ! ! ! ! ! ! ! ! ! ! U _ ! ! ~ ! ! ) E | $X@XU.A.y.lXlXsXjXbXbXvX; e.KXDXAXSXxXkXt.A.q.| E R _ ! ! U ! ~ ! ! ! ! ! ! ! ! ! ! ~ ! ! ! ! ! ! ! ~ ",
"! ! ! ~ R _ _ ! ! ! ~ ! ! ! ! ! ! ! ` W ! / ! ! ! ~ +...}.#XkXcXG.S.K.cXqXdXU.vXW.. 8 bXyXM.D.v.aX2.d.u.F { ' ` _ ! _ _ ! R ` R ~ ~ ! ! _ / ! ~ ~ ! ! ! R _ ! ~ ",
"! ! ! R ! ! ! _ ! ! ~ ! ! ! ! ! ! ~  . ._ _ ! _ ` ~ O.%.Z.0XG.G.L.K.aXgX>.t.8 R.vXe >.e.w.t.rXqXlXv.L.3.V %.I ' ~ ` _ R ! ` ~ ^ ! ! ! ! R _ ! Q ~ ! ~ ! R _ ! ~ ",
"! U ! ! ~ E ! ! ! ! ~ ~ ~ ~ R _ ! E | H E / _ ~ W ~ +.*XA.H.K.G.cXDXcXaXq e.e Q.mXW.n.FXFXFXbXxXK.S.L.d.M [.$.Q O.~ ~ Q ~ ! W _ U ! ~ Q ! ! ~ ~ ! ! ~ ! U _ ! ~ ",
"! _ _ ! ~ ~ ~ ! _ _ _ ! Q ~ ) / _ ] |.S ] ! ) R ! +.J $X0XG.lXcXcXcXDXqX:.R.9.E.nX`.<.E.w.M.w.M.lXlXxXcXkX>XL O.o.X.E ~ ~ ` W _ / ! ~ Q ~ ~ ! ! ! ! ~ E ! ! ! ! ",
"! ! ! ! ! ~ ! ! U _ ! ! Q ! ! / _ { .Xq.F *.E ! ! +.| 5XqXK.lXcXjXiXaXFXdXw.nXjXpXN.8.F.9XgXCXAXDXlXcXqXqXMX[ ~ { H { X.~ ` ! U / ( R ! _ U ! _ ) ) E ~ _ ! ~ ! ",
"! _ ! ! ! ! ~ ! ! ! ! ! ~ ~ ! ! ) F A.2.V | X._ R X.<XMXD.K.lXlXuX^.iXiXGXE.N.jXjXb.h.xXZXFXCXCXsXx.:.3.u..X%.I H G G | O.~ T T ]  .T ! _ ! U _ ) ) _ E ! ! ~ ! ",
"R ! ! _ ! ! ! ! ~ ! ! ! ~ ! ~ ~ o.1XG.G.y.}.*./ ( I 5XVXK.lXcXJ.V.fX,.^.gXZXFX2.b.b.<.jXjXnXbXnXgXgXe.ZXN.BX3X#.$XZ.V F X.] 2X1X5X3X%. .! ` ! _ ! ) E ~ ! ! ! ! ",
") ! ! ! / W ! ! ~ ! ! ! ~ ~ ! ~ | NXzXxXDX7Xo._ ) H MXSXDXxXlXJ.V.).(.iX^.AXjXw.w.b.<.hXjXdXnXbXJXJXZXnXZXKX3XK #XA.q.Z.H <XNXBXHXBX4X$.~ _ ! R R ! ! ~ ~ ! ! ! ",
"~ ~ ! ! / / ! ! ! ! T +.I X.! T <X%Xy.H.A.VX| ' I } VXxXxXxXuXuXuXpX`.n.eXnXAXAXgXM.h.gXbXbXeXR.Q.h.p.i.6.e.K } VXzXCXyX@XMXtX9X9X8X@X} I ` _ / R ! ! ! ! ! ! ! ",
"E _ ! U _ ! ! ! ! T ] <X<X<Xo.J 1XBXaXlXK.VX<X{ { 5XzXlXxXxXS.x.9Xw.W.w eXAX8.n.-.. w.e ; rX7.# 6.u s k c 8.|.*XA.2.3.9XHXDXb.c.c.x..X1X%.X.R W ! ! ~ ~ ! ! ! ! ",
"_ U _ ! ~ ~ ! ~ E o.1XMXHXBX3X} 1XMXaXsXlXkX1XK =XVXD.b.uXxXN.x.M.>.9Xn.dXdX,.6.e X 8.7.q wXwX7.Q.,.k k h 6.+XwXM.v.x.D.kXaXc.C.C.a.8.I.[.L O.~ ! ~ ~ ~ ! ! R R ",
"! _ ! _ Q ~ ~ ~ ^ L |.0X9XtX=XF |.A.v.c.x.qXNX7XVXzXv.v.aXZXAXAXFXJXFXJXJXFXm.(.Q.dXGXAXSXGXGXGXfXu y j c f.W.eX9XuX9X9X9XF.C.C.C.j.6.e N *XO.W ~ ~ ~ ! ! _ / _ ",
"! _ ! _ ! ~ ! ! _ o.|.A.b.t.}.| }..XN.B.c.hXSXHXDXAXuXsXxXDXFXFXJXAXnXnXfXfXB.B.,.(.nXjXfXdXpXfX_.s k h j j !./.iX^.iXiXuXpXc.g.g.a.p.: 8 [.@.( ~ ! ~ ~ ! _ _ _ ",
"! ! ~ ! E ) ! ! U ] ].A.c.t.}.| |.XXn.c.p.uXjXsXsXjXV.V.J.aXdXE.dXE.`.`._._.u s.1 p.(.E.^.(./._.l.k i.h g s !.jXfXpXnXpXV.pXj.i.i.c j : 8 {.o._ ! ! ! ~ Q ~ ! ! ",
"~ ~ ~ R R ! ! ! ! ..#Xw.c.n.*XK |.XXn.j.j.V.uXJ.K.J.c.C.V.pX/.W.* R.`.`.'._.c h.4 ,.ZXjXdXfXnX).~.g h h j h m./.^.N.c.V.).'.g.j c c a 0 8 P.[ U / ! ! Q ~ ~ ! ! ",
"~ ~ ! E ) _ ! U W #..Xw.j.w.[.*X|.r.x.j.p.B.jXK.sXJ.a.j.B.(.n.M.. q.R.Q.'.!.f.g.4 ,.h.h.iX1.,.'.~.x c h k k u 5 ,.h.% i '.'.g.g a v a 0 8 q.&.( / ! ~ ~ +.~ ! _ ",
"! ~ ! ! ! _ ! ! W $.I.n.h.7.[.*XP.9.h.f.f.k 1.c.1.1.a.s.B.(.R.8X].OXwXW.`.(.f.h.r u : 1 x.5 1 /.l.d i.h a j u > ,.h.1 i fX'.g.a c c v 0 > q.$.R Y ` ~ +.! ! ~ Q ",
"! ! ~ ! _ ! ! ! ! $.I.h.h.7.[.2XP.4.6.c i.< > c.4 4 g.f.Q.nXyXvX>X:XvXwXW.`.f.g.r u 1.,.B.i y _.~.s k h l g h !.(.^.m.(.(.'.z.a g c v t > 5.-XW ! ! ~ Q ! ! ! ~ ",
"! ! ! ! R _ ~ ! ! | I.h.a.7.D 2XOX>.g l d g.B.B.B.C.i.f.E.GXHXq.= 7 q.>XvX`.p.g.3 f.)./.)./.'.'.T.s f g l a g.nXfXfXnXjX(.'.l.a d z a t > e ;XL +.W ~ ! ! / _ _ ",
") ) ! E R ! ! ! R | t.j.a.7.D 2XY.>.g l d j._.)./.(.f.p.R.vXY.o .   o I.vX(.f.g.3 p.fX(.fX/._.'.T.f g v a g v g.m.m.1.h.`.'.g.t d a l x , 0 8 N #.W Q ! ! ( U _ ",
"! ! ! Q ~ ! ! ! ' } t.j.z.6.F %.P.p f c u k.dXrXdXN.g.6.Y.:XM @ & &   ;.wXE.f.a.3 ,.pXiX/.fX).'.T.a a l l z x 5 y h.% i '._.z.d d g l a 0 , > 8 K @.Q ~ ! ! ! ! ",
"_ ! ~ ~ ~ ! ! ! ~ K U.j.a.,.K L Y.p c c x k.R.- >.E.c 6.OX,XM @ . #   M rX9Xp.g.3 p.nXh.% ,.'.'.l.l a a z d s x s.j.4 p.'.'.z.x z z a a , , 0 > A $.O.! ! R ` ~ ",
"U ! ! ~ Q ! ! ~ E &Xt.B.j.9.[.-XY.p f f s k.e.& * n.k.6.I.:XM @ # & + ;.vXE.f.z.r ,.fX1 X : '.'.l.a c f j f j T._.)./.).).).z.y s d l a , , < > 8 P.O.! / R ~ +.",
"/ ! ! ~ ~ _ ! !  .}.t.c.j.7.*X-XY.p u u y h.e.& ; R.6.4.{.;X7 + . #   M vXU.9.6.q 6.fXi X : dXdX!.u u u u u u Q.dXdXeXeX9XrXh.y k y s x , , , 1 . A &.Y _ _ Q O.",
"/ _ ~ ~ ' ~ ! ~ [ =XtXpX^.8X*X*X+Xn.n.b.v.R.9.& = +XP.[.K <X7 + # # o N 3X-XP.{.5.4.mX4 % 2 +X+XU.R.t.r.t.r.U.Y.:X,X,X:X:X@XR.R.E.9XN.N.<.1 1 2 = b *.Y U / ! ! ",
"/ _ Q ~ R _ R E $.}.oX0XD..X[.*XI.R.A.t.A.XXP.& 9 ,X&X[ o.%.n @ # @ O P.-XL #.3XV .XKX8 . * >X:X+XXXI.A..X.X+X,X-XL L -X-X*XOXU.t.U.t.8Xy.- 6 M o 6 { R _ ! ! _ ",
"! ! ~ ~ ! _ ! E [ <X|.].]. X} K [.].Z.Z.Z.].,X;X[.4X@.Q ! ] n o o o o A ..O.Q J B  XBXr.5.q.BXNXI.0.A.A.r.r.I.P.L  .O.O.X.| {.I.r.t.r.I.0.V N B C B o._ _ ! ! ~ ",
"! ! ~ ! R / _ ! ] [ F $X&XH ] { K *X&X<X|.&X-X&.&.O.^ ! _ @.Z V N V B J @.~ ` O.J } 6X6X6X7X6X6X{. X|.].].].{.*X .! ! ! ) ] F {.{.].OX{.}.<X$.&.*.X.Q ! ! ! ~ ! ",
"! ! ~ ~ ! / _ ! ~ E o. .o.X.) E O.@.E I o.O.O.Q Q Q ~ _ U ~ o.&.&.&.@.+.W U _ _ +.@.J L J [ J $.{ [ o.o...#.L #.~ _ ~ ) ( ) X.{ o...$.[  .o.Q O.O.+.~ ! ~ ~ ! ! ",
"W ! ~ ! ! ! ! ! ! ! ! ! ` _ _ _ ` ! U _ ! U R ` ~ ! ! ! R ~ ! R W Q ~ W _ ` U ! W ! +.+.R ! ` ! _ _ _ ! ! ! ! ! _ _ R E ( / _ ! R U U ! _ ! ! ~ W ! ! ~ ~ ! ! ! ",
"! _ ! ! ! ! ! ~ ~ _ ! U Q ~ ! ` U U ! ! ~ ! ` _ ) R ~ ` ` ! ! ! ! ` / _ ! ! U ! ` W ~ ! _ U ! ~ ! ! ! ! ! ! ! _ / _ ! ~ ! ! ! ! _ ! ! ! _ R ~ ~ ! _ ! R ( _ ! ! ",
"R R ! ! ) ! ~ Q ! ! ! ! ~ ! Q ! ! R ` ~ W ~ _ ) ) ~ R E E ! ! ! _ ! / / ! R ` ! Q ! ` U _ U ! ! ! ~ ~ ~ ! R ! _ R _ ! ~ ~ ~ ! ! U _ ! R / _ ~ W ! ! ! R ) _ ! ~ ",
"! ! ! ! ! ! ~ ! ! ! ! ! ! ~ ~ ! ! ` ! ! ~ ! ! ! ~ ! ~ ! ~ ! ! ! ~ ` ! _ ! ! ! ! ! ! ! ! ! ! ! ! ! ! ! ! ~ ! ! ! ` ! ! ! ! ! ! ! ! ! ! ! ! ! ! ~ ~ ` ! ! ! _ ! ! ",
"_ ~ ! ! ! ! ! ! ! ! ! ! ! ! ! ! ! ! ! ! ! ! ! ! ! ! ! ! _ ! ! ~ ! ! ! ! ! ! ! ! ! ! ! ! ! ! ! ! ! ! ! ! ! ! ! ! ! ! ! ! ! ! ~ ! ! ! ! ! ! ! ! ! ! ! ! ! ! ! ! ! ",
"! ~ ! ! ! ! ! ! ! ! ! ! ! ! ! ! ! ! ! ! ! ! ! ! ! ! ! ! ! ! ! ! ! ! ! ! ! ! ! ! ! ! ! ! ! ~ ! ! ! ! ! ! ! ! ! ! ! ! ! ! ! ! ! ! ! ! ! ! ! ! ! ! ! ! ! ! ! ! ! ! ",
"! ! ! ! ! ! ! ! ! ! ! ~ ! ! ! ! ! ! ! ! ! ! ~ ! ! ! ! ! ! ! ! ! ! ! ! ! ! ! ! ! ! ! ! ! ! ! ! ! ! ! ! ! ! ! ! ! ! ! ! ! ! ! ! ! ! ! ! ! ! ! ! ! ! ! ! ! ! ! ! ! ",
"! ! ! ! ! ! ! ! ! ! ! ! ! ! ! ! ! ! ! ! ! ! ! ! ! ! ! ! ! ! ! ! ~ ! ! ! ! ~ ! ! ! ! ! ! ! ! ! ! ! ! ! ! ! ! ! ! ! ! ! ~ ! ! ! ! ! ! ~ ! ! ! ! ~ ~ ! ! ! ! ~ ! ! ",
"! ! ! ! ! ! ! ! ! ! ! ! ! ! ! ! ! ! ! ! ! ~ ! ! ! ! ! ! ! ! ! ! ! ! ! ! ! ! ! ! ! ! ! ! ! ! ! ! ~ ! ! ! ! ! ! ! ! ! ! ! ! ! ! ! ! ! ! ! ! ! ! ! ! ! ! ! ! ! ! ! ",
"~ ! ! ! ! ! ! ! ! ! ! ! ! ! ! ! ! ! ! ! ! ! ! ! ! ! ! ! ! ! ! ! ! ! ! ! ! ! ! ! ! ! ! ! ! ~ ! ! ! ! ! ! ! ! ! ! ! ! ! ! ! ! ! ! ! ! ! ! ! ! ! ! ! ! ! ! ! ! ! ! ",
"! ! ! ! ! ! ! ! ! ! ! ~ ! ! ! ~ ! ! ! ! ! ! ! ! ! ! ! ! ! ! ! ! ! ! ! ! ! ! ! ! ! ~ ! ! ! ! ! ! ! ! ! ! ! ! ~ ! ! ! ! ! ~ ! ! ! ! ! ! ! ! ! ! ! ! ! ! ! ! ! ! ! ",
"! ! ! ! ! ! ! ! ! ! ! ! ! ! ! ! ! ! ! ~ ! ! ! ~ ! ! ! ! ! ~ ! ! ! ! ! ! ! ! ! ! ! ! ! ! ! ! ~ ! ! ! ! ! ! ! ! ! ! ! ! ! ! ! ! ! ! ! ! ! ! ! ! ! ! ! ! ! ! ! ! ! ",
"! ! ! ! ! ! ! ~ ! ! ! ! ! ! ! ! ! ! ! ! ! ! ! ! ~ ! ! ! ! ! ! ! ! ~ ! ! ! ! ! ! ! ! ~ ! ! ! ! ! ! ! ! ! ! ! ~ ! ! ! ! ! ! ! ! ~ ! ! ! ~ ! ! ! ! ! ! ! ! ~ ! ! ! ",
"! ~ ! ! ! ! ! ! ~ ! ! ! ! ! ! ! ! ! ! ! ! ! ! ! ! ! ! ! ! ! ! ! ! ! ! ! ! ! ! ! ! ! ! ! ! ! ! ! ! ! ! ! ! ! ! ! ! ~ ! ! ! ! ! ! ! ! ! ! ! ~ ! ! ! ! ~ ! ! ! ! ! ",
"! ! ! ! ! ! ! ! ! ! ! ! ! ! ! ! ! ! ! ! ! ! ! ! ! ! ! ! ! ! ! ! ! ! ! ! ! ! ~ ! ! ! ! ! ! ! ! ! ! ! ~ ! ! ! ! ! ! ! ! ! ! ! ! ! ! ! ! ! ! ! ! ! ! ! ! ! ! ! ! ! ",
"! ! ! ! ! ! ~ ! ! ! ! ~ ! ! ! ~ ! ! ! ! ! ! ! ! ! ! ! ! ! ! ~ ! ! ! ! ! ! ! ! ! ! ! ! ! ! ! ! ! ! ! ! ! ! ! ! ! ! ! ! ! ! ! ~ ! ! ! ! ! ! ! ! ! ! ! ! ! ! ! ! ! ",
"! ! ~ ! ! ! ! ! ! ! ! ! ! ! ! ! ! ! ! ~ ! ! ! ! ! ! ! ~ ! ! ! ! ! ~ ! ! ! ~ ! ! ! ! ~ ! ! ! ! ! ! ! ! ~ ! ! ! ~ ! ! ~ ! ! ! ! ! ! ! ! ! ! ! ! ! ! ! ! ! ! ! ! ! ",
"! ! ! ! ! ! ! ! ! ! ! ! ! ! ! ! ! ! ! ! ! ! ! ! ! ! ! ! ! ! ! ! ! ! ! ! ! ! ! ! ! ! ! ! ~ ! ! ! ! ! ! ! ! ! ! ! ! ! ! ! ! ! ! ! ! ! ! ! ! ~ ! ! ! ! ~ ! ! ! ~ ! ",
"! ! ! ! ! ! ! ! ! ! ! ! ! ! ! ! ! ! ! ! ! ~ ! ! ! ! ! ! ! ! ! ! ! ! ! ! ! ! ! ! ! ! ! ! ! ! ! ! ! ! ! ! ! ! ! ! ! ! ! ! ! ! ! ! ! ~ ! ! ! ! ! ! ! ! ! ! ! ! ! ! "
};
