/* XPM */
static char *_14d731dd7e54086e5f721c26d35d20352Mf0VCbm1Pl9o0w[] = {
/* columns rows colors chars-per-pixel */
"80 80 256 2 ",
"   c #30191E",
".  c #463B39",
"X  c #003353",
"o  c #013D73",
"O  c #253E7A",
"+  c #4E3C42",
"@  c #07435C",
"#  c #014869",
"$  c #02447C",
"%  c #034978",
"&  c #045678",
"*  c #145979",
"=  c #104B76",
"-  c #2A4E77",
";  c #0D637D",
":  c #30657A",
">  c #6B5152",
",  c #796D74",
"<  c #605D65",
"1  c #8D7572",
"2  c #9A6D6F",
"3  c #938279",
"4  c #A88A7D",
"5  c #014583",
"6  c #024C84",
"7  c #024C8B",
"8  c #084C87",
"9  c #03528C",
"0  c #0C538C",
"q  c #065686",
"w  c #14588B",
"e  c #024E92",
"r  c #034E98",
"t  c #035293",
"y  c #0B5493",
"u  c #0B5A94",
"i  c #02559B",
"p  c #075A9B",
"a  c #135B94",
"s  c #135C9B",
"d  c #175A95",
"f  c #144A82",
"g  c #255B8A",
"h  c #2C5990",
"j  c #066689",
"k  c #176988",
"l  c #1A738C",
"z  c #086899",
"x  c #1B639C",
"c  c #166599",
"v  c #097599",
"b  c #187698",
"n  c #05728F",
"m  c #256799",
"M  c #26769A",
"N  c #377599",
"B  c #306C90",
"V  c #025BA3",
"C  c #055DA7",
"Z  c #0C5DAB",
"A  c #0263AC",
"S  c #0766A8",
"D  c #1B65A3",
"F  c #1869A7",
"G  c #077AA5",
"H  c #1777A8",
"J  c #026CB3",
"K  c #0669B4",
"L  c #166DB3",
"P  c #0875B7",
"I  c #1877B8",
"U  c #236BA4",
"Y  c #236CAB",
"T  c #2869A5",
"R  c #366EA3",
"E  c #2776AA",
"W  c #3778A8",
"Q  c #2473B3",
"!  c #2C7BBB",
"~  c #2878B6",
"^  c #337DBB",
"/  c #377AB5",
"(  c #266DB2",
")  c #45769A",
"_  c #507192",
"`  c #6E7690",
"'  c #477AA7",
"]  c #447CB5",
"[  c #5379AF",
"{  c #6778A5",
"}  c #197AC3",
"|  c #0A77C5",
" . c #277DC2",
".. c #8F7A87",
"X. c #9F7C9A",
"o. c #2E849D",
"O. c #0887A9",
"+. c #1786A9",
"@. c #0986B7",
"#. c #1786B8",
"$. c #1897B8",
"%. c #1893AB",
"&. c #2986A7",
"*. c #3687A8",
"=. c #2787B8",
"-. c #3985BA",
";. c #2696B8",
":. c #3794B9",
">. c #3193AB",
",. c #1F92A9",
"<. c #55859B",
"1. c #708B9B",
"2. c #4787A8",
"3. c #5888A9",
"4. c #4694AC",
"5. c #4384BC",
"6. c #4988B9",
"7. c #5689B8",
"8. c #4A98B7",
"9. c #5796BA",
"0. c #5597AB",
"q. c #6797B8",
"w. c #7898B8",
"e. c #6B8CAC",
"r. c #51A2BB",
"t. c #7AA4BB",
"y. c #69A6BA",
"u. c #1988C5",
"i. c #1898C9",
"p. c #2886C4",
"a. c #3C8CC4",
"s. c #3787C5",
"d. c #2896C4",
"f. c #3997C8",
"g. c #3B9BD4",
"h. c #2D8CD1",
"j. c #28A5C8",
"k. c #39A5C9",
"l. c #37A7D5",
"z. c #32ACD4",
"x. c #29AEDD",
"c. c #438AC4",
"v. c #4B8CC4",
"b. c #4888C6",
"n. c #548BC5",
"m. c #4C93CC",
"M. c #4797C7",
"N. c #5796C9",
"B. c #4A98D3",
"V. c #579AD5",
"C. c #518FD4",
"Z. c #6699C8",
"A. c #759BC7",
"S. c #649CD6",
"D. c #739DD6",
"F. c #48A5C9",
"G. c #56A6C8",
"H. c #49A6D5",
"J. c #59A6D7",
"K. c #59B5D7",
"L. c #4EB4D2",
"P. c #67A6C8",
"I. c #77A8CA",
"U. c #78B4CB",
"Y. c #67A7D7",
"T. c #76A9D7",
"R. c #68B6D9",
"E. c #77B6D8",
"W. c #67B6C7",
"Q. c #5AA8E6",
"!. c #57B7E3",
"~. c #4CB4E8",
"^. c #68ABE3",
"/. c #77ABE5",
"(. c #6AB6E8",
"). c #78B8E7",
"_. c #70BAF2",
"`. c #529CE0",
"'. c #79C2DC",
"]. c #6CC2DA",
"[. c #58C5EC",
"{. c #6AC4E7",
"}. c #78C7E7",
"|. c #79C8F8",
" X c #7BD4F8",
".X c #6BCBF5",
"XX c #6AD2EA",
"oX c #918A8F",
"OX c #B19190",
"+X c #B6A39A",
"@X c #889CB6",
"#X c #8D93AB",
"$X c #95A7B7",
"%X c #8BA7B8",
"&X c #B2ABAE",
"*X c #AC97A9",
"=X c #DAB7B7",
"-X c #C9B1AD",
";X c #D4AEA9",
":X c #D5C8B8",
">X c #E8C6B8",
",X c #87A8C7",
"<X c #96AAC6",
"1X c #86ACD8",
"2X c #87B8D8",
"3X c #96B9D9",
"4X c #93B4CD",
"5X c #A7B6C9",
"6X c #A8B8D6",
"7X c #B1B4CB",
"8X c #87BBE6",
"9X c #95BBE5",
"0X c #8AB2EB",
"qX c #8D9CC6",
"wX c #CFB6C3",
"eX c #E6BCC2",
"rX c #89C5DC",
"tX c #96C7DA",
"yX c #A7C3D6",
"uX c #B7C8D9",
"iX c #B7C5CC",
"pX c #88C6E9",
"aX c #97C8E8",
"sX c #98D4E9",
"dX c #88C9F6",
"fX c #96CAF4",
"gX c #88D7F9",
"hX c #98D8F9",
"jX c #A6C9E7",
"kX c #B8CAE5",
"lX c #A8D4EA",
"zX c #B9D7EB",
"xX c #A7D9FA",
"cX c #B6DBFA",
"vX c #AACCF7",
"bX c #98E6FE",
"nX c #8CE4FC",
"mX c #ABEBFF",
"MX c #A7E4FC",
"NX c #B8E7FD",
"BX c #A6F4FF",
"VX c #B8F5FF",
"CX c #B6E2EE",
"ZX c #C7C7C7",
"AX c #D8D8D7",
"SX c #D0CDD3",
"DX c #ECD3D1",
"FX c #F3E7D8",
"GX c #C6D6E6",
"HX c #DAD9E6",
"JX c #CED6EF",
"KX c #E6D4E9",
"LX c #C6E7FC",
"PX c #D8F7FE",
"IX c #D3EBF7",
"UX c #EEEEF2",
/* pixels */
"&.:.V.( d a |.M.j z F  . .b.R T q 6 y 7 t 9 p i 9 9 9 6 6 6 6 9 5 7 7 8 = o f o $ $ 5 7 5 $ $ $ 6 $ $ = $ # % o - O O 8 5 e 5 5 6 c s 6 5 6 7 5 8 5 5 5 5 5 5 $ ",
"M a d 0 a a V.c q y e r D ( / b.-.9 6 6 t 6 u t 9 t 9 7 6 6 6 9 7 5 7 o 0 $ w $ 5 5 $ 5 5 5 5 6 6 $ $ $ # % % = h - O O 7 7 o e 6 u u 5 5 8 7 8 8 5 5 5 5 5 5 o ",
"j 6 6 8 0 7 x % % q i r r 0 w d -.c.Y $ y u t 9 i 9 7 9 9 9 6 6 7 q u % = % o $ 6 6 6 6 6 7 6 q 6 6 $ $ % % % * { qXh 8 0 9 5 y 5 0 9 6 7 7 8 7 5 5 8 7 o 5 e 5 ",
"q 9 u y 0 5 % & 9 9 e r p a 8 0 u V.m.y 9 u t t 9 t 7 9 t 9 9 7 9 t 0 6 $ 8 # w % 6 9 0 0 6 6 % 6 0 $ o % % = g 9XIX[ O q 9 e 7 6 6 6 6 t 7 7 7 5 5 7 5 f ( / f ",
"q 9 9 e t 0 $ q 0 y r r Z s y x a x c.B.s 7 p t 7 t e t 9 9 t y F c c w 0 % # % q q u z q 6 6 q % q $ o % % & h 9XLX[ f 0 7 0 7 q 9 7 9 u 9 7 e e e e o y S.`.8 ",
"q t t 7 e a % w 0 d L L Y D d m / Y c.(.m.( s 7 e t i t e e e p z F a.x x o m w q u u 9 q % 6 w 6 6 8 $ 8 f f g [ /.h f d 8 7 9 9 q 9 9 u e 7 t e 5 8 5 f  .] 5 ",
"t p p t y 7 w B R E (  . .! c.v.m.V.b.V.^.Q.Q s p p t e e e t p p x E m k w R.^.w q 9 9 6 6 6 0 6 6 0 w q = w w h W f d a 8 0 y 9 t 9 t t e 7 e r 5 7 r r 5 5 8 ",
"z i t i D w m R 6.5. .(  . ./ / C.B.c.B.`._.C.! s r 0 e t t t t p x w v.6.N.dXY.w 9 % 6 q 6 & 8 9 9 d U w w w = m W w w 8 y z 0 q t y 9 t t 7 e 7 r e 5 5 r r f ",
"p p 9 i s T 7.n.Z.g F L L s y d s T ( T T C.C.^ b.D y e s e 8 r y D / Y.N.] 7.R q $ 6 9 7 6 0 0 0 5 8 0 0 f g f d ] w d d 0 a 0 u u e 9 i t e i e 7 e e r 8 8 r ",
"D t S i U 6.Z.e.[ g Y p V V s Y d s x x 0  .S.m.C.s.y e 7 r s e 7 U -.6.).R R m d W m y E ! w w 0 0 y a d d T w T / 0 c w a a u e s s t t t t 5 e e e r r r r y ",
"e D S ~ V.S.{ e.D.h s e i i V d s 7 0 a 5 s C.-.b._.^ 0 y s e y 5 T / ] Y.] m ] (.c Y x V.dXm 0 8 y s a d T R d E a.z E d y a D Y y e r t p C i r r r r r r r r ",
"s ~ p ~ M.7.h A.3XR a r A V r e s e p a y d ^ C.Y V.Y.Y a 7 5 e r d ( / ] S.W 6.5.D U F c s 0 0 y y s d d m T d U F.E M.T d a U ^.Y y s p e t i V r i i r s r i ",
"s s ~ s.W [ _ kX{ - y S A i p s r 7 y y 8 8 D ).T m ^.V.x 0 m.s Y s / T v.).W E / ( F 7 c ^ 0 F T s s U D x T D E H.=.H.( x y T ^.( r D p e i C V i V r V V i i ",
"T T s.V.m o qXqX- - a z V i C r s Z t D Y 0 5 V.5.d ( ^.b.x dX^ D ~ E ( J.dXm a x ~ t z I F -.Y ( s s Y T h h Y #.H.H a.T m d d T y s Z p p L S V V V V i V V i ",
"W / F c.d [ JX6X{ h d p C V F r  .b.D Q.B.d 0 b.S.m f W Y.-.V.s.D L Y / m._.d c -.c L =.F F F c T D D F T T T m =.d.z E T T U d d T Y D p C V i A C V V V V V V ",
"( D x c - cX<XX.qX_ d S A C } !  .B.Q  Xm.6 U V.hXm x W Y.Y.R / F 7  .U Y U c a 9 H F F H z z F Y Y ( Y T T T d :.H.+.E T d T U ( ( D Z F s C S A C V V C C r i ",
"=.z / h e.wX7X` { 1X] s K C L z F Y D D t s 0 -.hXd d g v.^.5.T u L ! a x x % c.x U y -.Y C ( D m.s.x m U m E M 8.K.*.k U c ~ c ( ( D F Z L S S K A A A A C V V ",
"+.F h h JX` X.X.` ' g F | A S L ~ ~ ~ ! Q F y U V.W 5.9.6.).(.a D D ^ s 0 a a N.(.-.U _.Q.( Y ( ~ / 5.E T W B N W.pX2.*.W m Y ! ( ( ( F L S S A A A A A C C V i ",
"H -.5 A.JX< ` qXh - u S L | L F ~ Q s.s.a.^ F D _.N./ hXdXS.N.d s Q b.E a x V.|.hXc.a / ^ Q ( ( R ] n.W R ' ' [ fXVXT.T.T.] T ( ( ( ( L L L K S J A A A A C C V ",
"E / f 1X{ < - R f a z z K } D D U c Y F  .p.-.Y V.c.] N.dXv.).W s (  .|.J.% -._.mX(.U d d ^  .( b.n.n.n.[ [ 7.' xXPXVXfXfX[ n.b./  .~ ( L L L K J A A A A C C C ",
"b.h h 1X_ - - = p i S p L Z 7 / ^ Q ! p L  .s.~ Q.C.T V.x 6.Y.b.U C.-.s./ c 5.Y.|.n.x m T Y D R ] ] R b.[ R ) * q.VXNXE.S.R W /  .^ ! Q I I L K J J K A K A A C ",
"S.] R 0XA.O g d V A p p } Z d C.C.B.c.Y T (  .s.(.Y D T R m Z.).-.s.m./ b.V.v.(.m./ 0 T T T ( b.] ( b.b.] b.W N N.MXpXE.5.W ] / ]  .^  . .} I P J J J A K A A A ",
"C.n.' vXw.g a S C K K Z (  .b.^.Y.V.m./ D D T C.Q. .Y a d g ' T./ E / ( E -.E / c.c.d / / T R ^ b.T ] ] ] n.6.W P.gXr.R.W 5.] a.s. . . .p.} I P P P J J K K A A ",
"C.b.D.fXq.m c i A A A Z ( ] S./.)./.V.v.T a s Q.s.Q s.C.T m N.dX/ U / gX_.D T T -.n./ _._.5./ ] C.b.b.C.C.n.n.w N r.P.bXR.6.-.-.s.s.s.p.p.p.} | K J J J K A A A ",
"b.] S.vXq.h s A A K Z r R *.7.8XT.).Y.I.6.m V.Q.Q F Q B.m.T fXVXm.D ^ (.gX! y F Q c.V.(.V.n.] n.D.n.5.] /.T.9.w ' P.P.hXhX).-.V.-.f.s.p.h. .I u.P J J J J J A A ",
" .] S.vXn.h Z A K K Z  .9.3.I.2X3.3.I.2X2XdX_.c.C C A L a.m.hXmXm.E E Q m.~ F ~ -.^ s.V.V.C.5.S.n.n.n.b.S.N.N.B 9.}.M.P.gXhXY./ B.B.s.p. .p.u.I P P J J J J J A ",
" .~ S.fXq.m F Z Z Z ( C.t.0.t.<.,XtX4Xw.3XhXv.m F L K L p.V._.0Xm.s.B.-.L F ~ _.B. .~ b.C.n.n.S.n.] 7.n.b.n.m.k G.r.&.8.J.|.BXQ.M.s.f.s.p.} h.I I P J J J J J J ",
"I Q P.sXZ.R F S Z ( / Z.4XyXLXtXuXHXGX<XyXaX2.c L K P L I -.-.|.J.F L I I I z h.`.s.! -.b.b.v.N.n.n.5.N.6.V.8.q r.gX>.l L.:.!..XB.f.M.a.f. .p.I } I P P J J J S ",
"} L T.lXP.R ( L Z } [ D.JXKXPXUXAXiXZXCX5X%Xy.q F A | J C F m |._.! L z ~ B.I K h.h.s.! ^ / ] 5.5.N.6.N.8.M.b & F.BXK.n f.v H f.!.J.M.~ f.h.p.u.} } P J S J J S ",
"} Y E.aXA.R F K Z ( [ 6XKXAXiXAXUXFXZXFXAXtXaX*.S A | J A L u J.B.p.d.L K #.I I  .p.h.^ ^ / b.] n.D.6.v.N.-.w # r.nX{.&.+.v d.=.H.(.(.g.s.s.p.p.#.I P P G J J S ",
"} ( /.aXA.N F H } C.[ 7XSXSXAXAX:XFX:XAXFXCXtXy.z V J | J I c H.B.I #.I p.P } } }  .s.p.c.-.b.7.Z.D.Z.Z.n.] m # L.BX{.M >.=.-.f.E M.J._.a.a.s.p.p.#.I P P J J J ",
"L D 1XjXI.W ~ =.( Q.A.kX:X:XFX:X:XFX:XAXZXiXsX].-.A J K J S F R.h.S L L } S p.u.p.I  .^ b.^ b.] { @X1X1X3.' W M K.BX}.W 6.Y.V.W / j E .Xa.g.f.=.p.#.I P P J G S ",
"Q m I.xXA.' s.s.-.3.%XAX:XFXiX+X+XFXZXAXZXiXGXrX6.u | K J P D ^.h.S L S F H F ~  .Q  . .5.6.7.7.1.&XIX6X1.) B & o.}.mXq.w.1X,Xw.W b c |.F.B.c.a.=.=.#.P P P J S ",
"a.E P.aXq.) ] / 5.3.zX:XFXFXAX&X+X:X&X:X:XZXZXyXI.x K K J K F ^.h.J J J F H H ~ ( ^  .c.b.6.6.3.#X7XIXuX<.B M & r.nXMXt.%X6X6Xw.6.&.b H.{.M.V.c.a.p.u.@.@.P J P ",
"a./ ,XlXt.' n.N.Y.lXAXDXFXFXAX+X:X:X&XAXFXAXiXiXsXW L K | J L Q.h.J J P | } P }  .(  .b.c.m.C.N.q.,XcX9Xg w &.; ].BXlX$X7XAXHX<Xr.;.H &..X!.B.a.a.p.@.@.P P P L ",
"V.N.2XyXw.<.T.fX1XLXAXFXFX>XFXOX:X+X+X&X-X&X&XuXCX8.S | | P | Q.#.A | | | | | |  . .] ] b.b.C.`.P.Z.T./.w & b +.L.bXlXiX7XHXUXyXN.H +.z f.gXm.c.a.p.u.@.P P P P ",
"^./.aXzX%X<.q.1X,XJXAXDX>X>X=X2 1 > 1 > > , , $XxXY.F P | | P ~.H P I P | u.| h. .] b.b.n.C.C.C.^.J.N.(.E c b o.].sXCXzXZXHXIX$X8.G #.G I nXQ.B.a.d.#.@.@.P P P ",
"dXdXfXzX5X@X3.3.,XGXSX>X;X>X4 3 3 1 3 3 , OXoX1.lXpX! I J P p.(.H H H S I } }  . . .b.n.n.C.C.S.Y.^.c._.:.E j # ; 2.t.%X$XyXuXt.&.#.$.G +.~. Xm.a.s.u.@.@.P P P ",
"fXdX1X4X3X4Xt.e.t.iX&X4 >X>X;X;X+X+X3 3 1 &X#X{ 2XhXJ.Q H F a.Y.B ' B B N.9.R W ] b.b.n.C.A.Z.D.Y.N.W }.*.E & X 0.W.rXw.q.q.y.8.+.@.@.G G =.|.B.a.s.d.u.@.@.P P ",
"Y.S.Z.1XlXjXU.1.@XHX3 1 DXeX;XeX:X+X4 3 1 #X$X<.Z.hX).E / M N.I._ q.e.@XLXNX,XD.D.C.b.b.n.A.A.A.8X6.* R.b b k @ y.'.bXy.3.*.4.M.#.O.O.G G #.(.Q.m.h.p.#.@.@.@.P ",
"V.V.N.q.9X9X4Xe.@XIXoX-X>X-XDXDX:X:X+XoX, , <X2.2.Y.MX' 2.N ,XIXkXIXzXUX6XuXLXLXZ.n.b.C.Z.Z.A.I.E.) & k k b o.* W.nXMXP.M E &.f.#.O.@.O.O.G ~.|.a.B.#.d.u.@.P u.",
"Q.`.n.7.8XaXaX,X@X#XoX=X  > OX;X>X4 > + , ` e.) W T.xXe.<.iXJXSXUXZXGXJXkXkXA.3.7.n.n.N.V.Z.D.T.T.N 8.k # >.r.k U.nXBX8.M z &.f.#.$.@.G G G f. XM.B.s.d.u.#.#.I ",
"`.C.-.6.Y.2XaX4X{ 5XoX&XoX..  X.4 1 .     #X_ N N 3.lXyXGXFXUXAXHX&XuX@Xe.7.[ 6.n.6.n.N.V.Y.Y.T.pXN.gX&.& &.>.* W.sXmXN * & =.:.+.u.@.G O.G H  XH.a.f.h.$.u.d.#.",
"Q.C.c.v.Y.0XfX3Xw.$XqXwXFXOX  OX4 3 1   < .._ ) 0.e.uXGXUXAXUXAX5X#Xe.' ] R C.b.v.7.N.S.S.Y.^.^.E.R.}.k.+.n &.* E.xXVX2.; @ E F.:.$.%.O.O.G z |._.a.M.d.d.d.p.#.",
"J.M.c.m.V.T.9X9XqX` 7XUXDX+X;XeX+XOXOX> X.` < h %XzXZX&XZXAXSX&X$XA.) 7.m. .`. .b.N.N.Z.A.D./.8X0X). X.X&.@ l w E.aXmXP.: X l r.K.;.%.O.O.v z !. Xf.f.f.f.d.h.p.",
"B.f.-.B.v.Z.2X9X3X#X$XwXKXUXDXFX;X-X+X+X2 ..` #XyXGXZX&XSX&X*X#Xw.7.6.5.c.b.m.B.C.N.Z.Z.A.,X1X9XvX9.W.[.,.n &.* E.xXMX0.; & :.G.|.f.;.O.n v v M.gXH.f.f.f.f.s.p.",
"H.M.a.J.m.Z.1X9X<X@XX.*XwXDXDXDXwXeX>X;X2 2 -XZXiX&X+X-XSXoX#Xw.[ / -.-.b.m.5.m.V.S.S.A.qX<X7XwXkXw.'.XXb & k * E.cXxXo.; >.XXR.{.M.,.+.n n +.;. X(.B.B.g.g.g.f.",
"M.a.a.J.c.n.T.1X3XqX@X*X-X*X;XeXwX-X+X2 > > oXoX&X:X+X+XoX1.@X{ 5.a.M.5.v.] N.^.J.Y.T.A.,X7XSXSXuXy.4.K.k.j j % ).fXpXo.b >.{.r.F.8.>.v O.n G +..X|.B.H.g.H.B.M.",
"M.a.J.|.J.N.Y.1X3X@X7X*XX.oX;X=X2 X.4 2 + 2 3 > +X+X4 3 @X4X3.4.f.h.c.b.n.N.n.n.N.).T.A.$X7XKXDX$X<.o.k.+.z S 6 ).dXBX4.,.>.XXr.8.:.W m b n O.O.[.nX!.H.H.F.G.N.",
"M.m.m.B.B.Y.T.T.1X,X6X&X..*XeX2 2 2 X.> . + 3 4 4 +X3 %XjXvXP.8.-.c.-.n.1XT.[ Z.V./.Y.A.<X7XDXKX5X<.>.$.v z H k }.hXBXr.r.L.pXr.:.*.7.[ m v O.$.~.nX^.J.H.F.N.9.",
"a.M.m.M.Y.^.Y.I.I.4X6X7XOXOX=XX.2 2 , + . < , > , 3 $X4Xw.cXcX{ 3.6.A.2XI.q.Z.7.)./.T.T.4X6XSXHX%X: o.O.n & M 2.U.sXVXy.W.L.gXG.*.4.I.w.W b %.O.d.|.^.Q.L.F.G.N.",
":.a.H.J.^.J.J.R.A.3X7X7X&XOX;X;XOXOX+ + > + , 1.oX&X%X<.e.kXIX7Xe.6XkXqXe._ e./.0XY.D.T.1XkX5X<X%X: @ ; M & <.t.6XzXMXy.G.8.gXN.8.y.3X3X9.o.%.O.+.J.(.Q.J.K.J.J.",
"k.a.J.^.J.V.(.R.D.9X6XwXeX=X=XOX4 3 -XSXGX$X< w.0.t.3.w.yXGXUXUXUXGX*X#X7XyXaX1X/.S././.0XaXw.< yXt.: * 0.l ,X<XGXGXbXy.y.Y.bXN.0.y.IXIXt.4.,.O.v B._.^.J.R.K.K.",
"k.f.R.^.J.^..XJ.).qX<XwXwXeXDXOX3 &XHXSXuXkXw.1.1.0.2XMXcX6XKXUXeXX...oX5X5X4XI.S.D.0X0X/.aXA.: 4XyX: : W.l tX4XkXCXBXW.W.E.xXW.4.tXPXIXrX4.,.O.v :.8XY.J.^.K.K.",
"k.F.K._.(.).(.K.}.q.7XKX=X=XDX>X-XSX7XuXcXcXLXjXrXVXMXfX9X{ &XUXOX, , ` uX4X[ D.D././.0X0XfX2X: %XiX` <.].l U.tX9XVXnXr.U.2XE.9.0.t.zXkXy.4.,.O.v 4.8XS.Y.(.K.K.",
"K.{.Y.)./.^.H.{.R.e.<XKXeXeXeX>XAXZX5X6XvXcXNXcXlXsXpX2Xq._ 7XHXwX, ` ` <X3XD.D.D.D.D.0XfXaXP.@ %XPX%X<.0.l y.sXI.hXG.; pXhXP.2.0.y.I.q.9.r.$.%.;.F.hX/.T.).R.R.",
"K.R.).)./.pX(.{.R.3.7XKXeXeXSXKXKXwX1X9XfXvXlXfX2X8X2XN.' 3.yX4XJX6X{ @Xq.q.P.T./.1X0X0X0XfXrX: %XPX1.0.8.l 9.g m.*.M l F.E.4.* o.y.) 2.6.f.j.O.,. XhXT.T.).].R.",
"H.J.8X0X0X).).}.'.w.jXKXKXeXDXKXJX7XqX0X9XpXpX3X1Xq.7.] W 6.aX4X0XqX{ 1XT.I.Y.T.T.0X0X1X9XaXtXo.: tXo.: ; k &.X l c j j l j q M G.W.N -.M.f.i.O.v |.NXU.2XU.}.}.",
"R.R.8X8X8X).R.}.G.U.zXKXHXKXAXJXJX6X1XZ.N.Z.q.e.3.N N 5.6.M.dX).qXZ.n.T.T.Y.Y.I.1X1X1X9XfXaX9.# ; 4.l l l l o.# k b & # z +.v &.(.G.j -.~.x.x.$.&.}.VXxX2XI.rXE.",
"(.E.8X0X8X8XT.E.y.2XcXJXGXiXuXGX6X<X1X) g R B N ) N -.m.m.M.dXdXS.S.C.S.Y.Y.T.T.1X1X9XaXaXE.* & ; >.:.o.r.9.o.X ; &.b % j #.G :.}.8.6 p.[.~.~.$.f.G.pXNX2XpXpXpX",
"E.E.8X8XpXaX8X}.rXsXjX4XqX%X4X4X4X4X1X) m N.9.n.6.8.B.B.c.m.hXdXJ.V.Y.N.Y.dXfXaX2XU.3XU.g * k b b :.>.; r.G.l # F.:.b % n ;.#.:.hX2.& ;.~.x.j.=.F.r.P.sXU.pXE.E.",
").).dXpXpXsXsXsXsXsX2XU.U.I.U.t.t.t.Z.R ) S.S.N.v.M.H.g.f.J.xX8XV.J.J.Y.8XxXNXLXPXcX2X9.X X E & j :.k.; {.].o.n L.F.>.% q +.F.G.sXg & %.x.d.l.f.(.gXrXW.sXsX8XfX",
").pXdX).E.pXrXrXU.'.U.sXrXP.W.y.t.t.A.7.n.D.^.C.B.g.g.l.H./.cX4XP.G.N.E.fXcXjXcXtXtX0.* k M =.=.&. X X& K.nX[.z..X;.;.j :.}.bXW.rX@ ; ,.z.z.~.Q.G.'.U.r.'.rX8XdX",
").dXhXE.E.rXpXaXW.U.'.nX'.4.8.y.<.q.Z.D.S.`.S.C.H.l.g.g.B.^.vX1XN.J.Z.fXMXxX9.,XLXlXVXW.&.f.f.L.k.nXnXo.}. X.X.X~.n =.>.K.'.bXW.4XX k k.l.!.{.}.gXaXsXsXrXaXfX9X",
"dXdXdX}.R.dX'.}.E.J.pX}.R.8.4.0.y.P.9.N.V.V.J.m.V.J.J.J.m.}.pXY.G.G./.hX_.M.4.R.CXlXtXBX:.,.;.f.{.}.BXW.r.F.;.;.j & # b F.'.sXy.'.l l K. XG.v.hXmXVXNXLXMXrXsXaX",
"pXdXpXE.P.pX}.}.R.8.R.R.G.*.l 2.2.3.N.9.N.m.J.Y.J.N.N.P.Y.dX_.G.G.M.xXxX=.&.K. XNXNX0.sXBX>.b &..X}.bXW.M L.j.&.j @ # n :.}.BX0.o.N &. X}.N.N.E.MXCXLXIXCXrXrXtX",
"pX8XpXE.W.pXE.K.K.F.K.L.G.2.o.2.2.' Y.7.N.m.V.^.Y.P.N.E.dXfX).P.N.P.MX_.d.;.H.pXjXLXPXVXPXvXj E >.K.R.8.o.XX[.!.L.j # 6 G M.'.B X ; >.nXgXT.hXmXMXNXCXCXlXsXrXxX",
"0XdX8XE.R.}.R.8.F.r.F.:.:.*.4.2.3.' 7.7.N.n.N./.S.Z.Z.fXMXpXG.Y.E.Y.xXM.G z..XfXcXPXIXPXLXPXpXz &.(.'.o.K.XX[.~.!.;.& X H F.P.B 4.>.G.nXbX6.pXfX2XtXtX1.y.tX2XtX",
"8X8X8XE.E.}.R.>.:.k.k.>.*.&.:.o.) ) R [ 5.n.N.N.Y.0XfXMXNX8XZ.I.U.pXBXk.+.H.|.MXdX9.U.LXsXNXgXj k.gXnXr.nX!.z.L.f.k.+.# =. XgXB r.; b ].hXZ.pXhXrXlXlXt.2XNXtXlX",
"fX9XaXE.E.E.{.>.L.k.L.k.:.o.*.N g ' ) Z.7.6.n.n.Y.fXcXxXMX8XP.U.aXVXXXb H ~ =.B.[.&.l 8.7.G.nXj F.gXMXgX X[.[..XL.L.k.q ;.|.nXN >.; j ].hXdXpXBXmXNXLXlXCXVXtXtX",
"vXfXaX2X'.}.gX:.k.k.k.l.k.&.o.B B ' 7.Z.C.V.n.n.7.1XfX8X2XI.T.E.mXxX>.z b B.gX(.O.O.[.v q -.;.+.8.bXbXhX XXX[.[.[.k.d.j =.!.bX}.'.8.>.gXmXmXsXbXsXhXNXVXmXVXjXlX",
"cXvXxXtXE.rXnXk.;.z.z.z.k.;.:.l B _ 7.Z.Z.S.n.7.7.9.T.E.2XP.E.xXmXLX*.b v &._.~.z j.j.+.b H n +.:.BXsX'.gX.XL.i.[.K.f.6 f.!.hXVXBXW.&.].VXfXW.8.4.P.lXCXmXmXCXlX",
"NXcXcX3X2X'.}.L.;.z.z.L.k.k.&.E B W ' W 5.J.Y.6.v.7.9.aXhXE.pXMXxXLXhXM H v H f.p.G ;.z B.^.v +.F.bXsXsXnX{.j G >.{.F.q :.gXbXhXnXL.o.XXVXhXP.* B N 0.sXbXtXtXjX",
"LXcXcXaXrX'.'.].,.j.$.j.j.k.&.*.g N 6.-.W -.M.V.6.N.9.N.8XE.Y.hXxXhXMXG.n G p..X|.B.p..X|.|.z.G K.MXVXrX}.*.+.v b F.F.q a.gXmXmXbXr.>.nXmXE.G.*.o.o.B 2.0.0.tXCX",
"LXLXLXzXyXrXpX'.$.j.j.$.j.;.+.E B W 6.c.E Y / M.v.v.9.6.Y.).M.G.E.2XfXdXH v @.d.I g.i.z.l.=.j.O.].BXsXU.R.j G j & v f.q a.|.MXVXbXL.r. XbXE.E.:.&.&.o.2.4.0.2XCX",
"LXNXLXcXlXtXnXgX,.$.$.$.;.,.b M M *.6.a.-.Q ~ -.M.6.G.N.8.R.Y.2.N.8XT.0X:.H #.H S #.i.@.i.@.$.@.{.VXrX'.}.b q n j j &.j >.|.xXmXbXr.r.gXVXhXgXG.b M M M *.8.rXNX",
"cXzXCXGXzXlXxXnX,.%.$.%.$.%.v b m -.6.=.^ s.^ ! c.m.V.Y.-.8._.Y.6.P.T.).Y.B.H.f.l.@.i.x.u.i.@.O.K.bXMXrX{.n t i.f.v v q H |.fXhXBXF.J.bXmXY.E.{.L.H.f.8.F.G.pXCX",
"LXCXzXLXzXCXxXbX4.O.$.$.O.O.v b M 6.5.E (  .s.s.-.V.C.N.n.6.^.|.(./ ^./.Y.K.H.H.~.~.x.x.x.i.i.j.B.R.gXgX:.H G h. Xl.d.H a.gXhXxXbXF.K. XpX6.M.H.!.L.H.J.L.r.U.2X",
"LXLXCXIXGXLXNXmXW.O.,.%.%.+.o.&.*.v.-.~ Q  . .B.b.c.b.m.Y.V.V.Q.hX^.S.N.F.M.H.Q.`.Q.~.I `.~.l.d.H.J.J.(.H g.$.x.[.g.#.I =.!.E.R.Y.a.M.K.R.Y.Y.H.H.g.d.f.F.G.'.sX",
"CXCXzXGXzXLXNXVX X%.,.j.O.+.+.o.6.6.-.-.s.( ( s.C./ n.V.C.V.b.b.B.hXT.Y.H.+.c.C.^.`.~.`.b.C.I p.f.H.F.*.&.u.u.i.@.@.;.#.p.:.7.2.J.:.M.R.E.Y.J.K.~.H.H.!.K.F.U.rX"
};
