/* XPM */
static char *c0bd1fd37db543728f92b527629284aaSdEttEdHeAyOn91Z[] = {
/* columns rows colors chars-per-pixel */
"80 80 256 2 ",
"   c #2F2A1A",
".  c #172F28",
"X  c #32332D",
"o  c #1B211D",
"O  c #492812",
"+  c #723D05",
"@  c #473B2A",
"#  c #3A5035",
"$  c #124737",
"%  c #5C4A1A",
"&  c #7C4607",
"*  c #674918",
"=  c #774A16",
"-  c #6F5113",
";  c #564B25",
":  c #58522B",
">  c #4A4A35",
",  c #475737",
"<  c #565739",
"1  c #494B2C",
"2  c #634E25",
"3  c #675727",
"4  c #72572B",
"5  c #7A6636",
"6  c #66673B",
"7  c #58623C",
"8  c #315549",
"9  c #376959",
"0  c #3A6548",
"q  c #357069",
"w  c #565C46",
"e  c #4D564A",
"r  c #685944",
"t  c #49745B",
"y  c #526C52",
"u  c #6B714F",
"i  c #4F776C",
"p  c #677670",
"a  c #183D46",
"s  c #813E00",
"d  c #844500",
"f  c #8C4C01",
"g  c #864902",
"h  c #8C5407",
"j  c #965805",
"k  c #91510F",
"l  c #A75A13",
"z  c #99670E",
"x  c #A66816",
"c  c #B77C1C",
"v  c #A97213",
"b  c #956F2F",
"n  c #AA7825",
"m  c #B47925",
"M  c #AD732D",
"N  c #845B26",
"B  c #8C7D77",
"V  c #957555",
"C  c #7A8957",
"Z  c #508671",
"A  c #6F9071",
"S  c #78A97F",
"D  c #BC831C",
"F  c #B78519",
"G  c #AC821B",
"H  c #99893B",
"J  c #B98526",
"K  c #BA8935",
"L  c #B08C34",
"P  c #C38828",
"I  c #C8942C",
"U  c #C48833",
"Y  c #CB9936",
"T  c #D29B35",
"R  c #D0972C",
"E  c #D6A638",
"W  c #C4911E",
"Q  c #8A8A47",
"!  c #958A48",
"~  c #909154",
"^  c #A88F46",
"/  c #ADA95C",
"(  c #899669",
")  c #AEB472",
"_  c #9FA275",
"`  c #D39A44",
"'  c #DAA647",
"]  c #CEAC51",
"[  c #E6B64A",
"{  c #E8B853",
"}  c #E9B34D",
"|  c #C9B071",
" . c #F6C358",
".. c #EAC047",
"X. c #F9D366",
"o. c #CEC278",
"O. c #647682",
"+. c #54938D",
"@. c #719689",
"#. c #55A599",
"$. c #6AA998",
"%. c #74AE92",
"&. c #5BADAC",
"*. c #78BCA9",
"=. c #6BB6B4",
"-. c #6CB1AA",
";. c #5A9BA4",
":. c #77C7B8",
">. c #75CAB4",
",. c #72C49E",
"<. c #7DBCC6",
"1. c #78C9C6",
"2. c #79D4C6",
"3. c #79C8DA",
"4. c #67D7DC",
"5. c #78D7D8",
"6. c #6BCDD4",
"7. c #79E4DA",
"8. c #71E5D9",
"9. c #6BD9E9",
"0. c #74DDEB",
"q. c #77D8E6",
"w. c #6DDEF2",
"e. c #77DCF3",
"r. c #71CEE4",
"t. c #59E8EB",
"y. c #4DEDFC",
"u. c #4DEAF5",
"i. c #5BE6F3",
"p. c #54EDF5",
"a. c #5CEBF4",
"s. c #5BE6FB",
"d. c #56EDFE",
"f. c #5AECFD",
"g. c #55E6FA",
"h. c #4EF2FD",
"j. c #4FF1F6",
"k. c #53F1F6",
"l. c #52F1FC",
"z. c #5AF2FD",
"x. c #5AF1F5",
"c. c #63E4EC",
"v. c #6CE3ED",
"b. c #64EBEC",
"n. c #6AE9E7",
"m. c #7CE4E3",
"M. c #74EAE3",
"N. c #73EBEC",
"B. c #78E7EA",
"V. c #64E4F3",
"C. c #6BE4F4",
"Z. c #63EBF4",
"A. c #6BEAF3",
"S. c #62E6FA",
"D. c #6BE5F9",
"F. c #63EBFB",
"G. c #69EAFB",
"H. c #77E7F4",
"J. c #64F1F9",
"K. c #74F1F2",
"L. c #5ADFEE",
"P. c #3B8D8B",
"I. c #8B9491",
"U. c #8AAD91",
"Y. c #B4AC94",
"T. c #81B9AA",
"R. c #88B7B8",
"E. c #94B2AF",
"W. c #B1B5AF",
"Q. c #CAB496",
"!. c #92C29C",
"~. c #88C9AC",
"^. c #91CABA",
"/. c #87D6B7",
"(. c #8BCDB6",
"). c #ACCEAF",
"_. c #ACC58C",
"`. c #CEC6B2",
"'. c #DCCF9B",
"]. c #99BECE",
"[. c #A4BCC9",
"{. c #A9BED2",
"}. c #9BC5C7",
"|. c #88D9CA",
" X c #87C9DA",
".X c #9CC6DC",
"XX c #9CCADB",
"oX c #98C9D7",
"OX c #89D8D9",
"+X c #97D5DA",
"@X c #8ED1C8",
"#X c #A6C8CB",
"$X c #A4C5D3",
"%X c #A4CAD5",
"&X c #A4C5DB",
"*X c #ABC5DC",
"=X c #A4CADB",
"-X c #ABCAD7",
";X c #B7CBD7",
":X c #A8D4DB",
">X c #B9D3D9",
",X c #ABD6CA",
"<X c #86E5DA",
"1X c #91E3D6",
"2X c #88CBE3",
"3X c #9CCCE3",
"4X c #95CCE4",
"5X c #87D7E7",
"6X c #96D6E8",
"7X c #85DBF2",
"8X c #97D2F1",
"9X c #A3CCE3",
"0X c #A7C8E3",
"qX c #A9D5E5",
"wX c #B8D8E5",
"eX c #B5D4E8",
"rX c #86E6E8",
"tX c #88E9F6",
"yX c #97E9F5",
"uX c #98ECF3",
"iX c #BAE4EC",
"pX c #A9ECF8",
"aX c #BAE8F5",
"sX c #A9F4FD",
"dX c #B8F9FE",
"fX c #ABE2EC",
"gX c #B5E3D7",
"hX c #C5D7DA",
"jX c #C2CCCA",
"kX c #C4DBE7",
"lX c #CFDEEF",
"zX c #C7E2EB",
"xX c #D6E9EB",
"cX c #C9E8F5",
"vX c #D6EBF8",
"bX c #C4FDFF",
"nX c #CBFDFF",
"mX c #C7F4FE",
"MX c #D3F4FC",
"NX c #DDF3FD",
"BX c #D5FDFF",
"VX c #DCFDFF",
"CX c #DDF4F5",
"ZX c #FBFAEB",
"AX c #E4F4F4",
"SX c #E4F5FD",
"DX c #EBF5FE",
"FX c #E4FBFE",
"GX c #EBFBFF",
"HX c #E9F6F6",
"JX c #F1F5FC",
"KX c #F3FCFE",
"LX c #FAFFFE",
"PX c #F7FAF6",
"IX c #E5EEEE",
"UX c #EBE6D1",
/* pixels */
"d.d.d.d.f.d.d.p.k.k.l.y.l.d.f.s.f.f.s.d.g.d.d.l.l.l.d.y.d.d.p.d.l.l.d.d.d.d.s.s.d.z.f.d.f.d.s.G.V.0.0.5X5X6XiXiXcXcXxXxXCXxXxXxXzX>XqX6XOX0.w.D.f.d.h.h.y.d.d.l.",
"d.d.d.d.d.d.d.d.l.l.l.l.d.d.d.f.f.f.d.d.d.d.d.l.d.d.d.d.d.f.d.d.d.d.f.d.d.d.f.f.l.k.k.z.d.f.S.w.v.tXsXdXbXnXBXVXFXFXDXDXSXFXGXGXGXVXBXnXdXsXyX0.9.V.f.d.d.d.l.d.",
"p.l.d.d.d.d.d.d.d.d.d.d.l.l.l.h.d.d.p.d.d.l.l.l.l.l.d.d.d.d.f.f.d.d.f.f.j.h.f.d.z.j.k.p.y.i.tXpXnXVXVXVXFXVXFXGXVXSXDXJXDXFXFXGXFXFXFXNXVXVXBXbX X3.9.C.F.d.s.f.",
"l.d.l.d.d.d.d.d.f.f.f.f.d.p.h.l.l.l.d.k.p.d.d.d.l.d.d.d.f.d.d.d.d.d.f.f.p.h.p.f.p.t.b.V.c.H.yXcXkXkXkXwX>X>X;X;X,X;X;XhXeXwXlXvXNXSXGXGXFXGXFXBX=X3X X4.9.S.G.S.",
"f.d.p.d.d.d.d.d.f.f.s.f.f.f.f.f.p.l.z.z.x.f.f.f.f.f.f.a.d.d.l.l.k.p.f.p.d.l.l.d.c.B.5.OXOX6X:XwXhXzXxXvXCXxXvXlXkXhX>X;X-X#X[.].*X-XeXwXzXzXwX-X=X:X3X2X Xr.w.Z.",
"f.f.f.d.z.d.d.d.d.f.f.f.f.f.f.f.g.d.g.p.a.i.f.S.F.F.f.d.d.p.d.d.k.p.p.f.d.g.s.C.tXpXbXMXFXFXFXFXGXKXGXGXDXDXJXJXKXFXFXVXNXMXcXkX;X-X$X#X}.$X%X%X-X&X0X0X4X3.4.0.",
"F.f.f.f.k.k.l.l.d.d.f.d.d.d.a.d.f.f.f.F.S.D.D.D.C.C.D.V.a.d.d.d.d.d.d.z.p.b.tXpXVXKXGXKXGXDXDXDXDXDXFXAXGXHXDXFXGXFXFXFXFXGXGXSXFXAXvXkXeX-X&XoX9X0X0X9X3X6X2X3.",
"f.f.f.p.p.k.k.p.d.d.d.f.f.a.c.v.v.H.H.H.tX7Xq.q.r.r.r.9.9.9.c.V.G.s.d.z.t.H.dXGXLXLXLXLXJXHXHXDXDXDXFXFXHXFXFXSXSXFXFXSXDXSXDXGXFXSXGXGXGXNXcXeX&X&X&X&X9X3X4XoX",
"p.f.d.d.f.d.d.d.d.d.z.t.v.m.rXpXdXnXBXBXVXVXVXMXaXqXoX4X X2X3.3.9.w.s.f.v.yXBXGXKXLXLXDXHXGXDXDXDXGXFXCXFXAXAXGXDXDXGXSXDXGXFXAXFXSXGXDXDXDXFXFXzX:XoX&X3X3X4X].",
"l.l.d.d.f.f.f.F.G.c.9.rXsXdXnXVXFXGXDXKXDXSXSXGXKXvX-X=X=X9X3X4X2Xr.w.G.D.r.BXFXDXDXDXGXSXSXGXDXGXSXGXFXFXGXCXGXDXDXDXDXSXFXAXGXSXGXDXKXDXJXGXAXGXkX#X=X9X3X4X2X",
"y.l.l.d.f.s.s.c.0.uXdXFXKXGXVXSXGXDXDXGXGXGXFXFXNXiX=X=X9X9X3X3XXX4Xr.e.D.9. XMXFXGXFXGXVXFXGXSXFXGXSXDXSXAXGXAXDXJXDXDXDXGXGXAXDXDXDXKXHXDXDXSXGXzX=X=X3X4X5Xq.",
"l.h.d.d.s.S.H.tXdXVXKXLXKXKXGXGXGXFXSXvXvXcXiX>X=X&XXX=X=XXXXX=XoX3X2Xe.G.G.1.R.:XiXiXaXmXmXcXvXMXVXGXDXDXFXwX$X#XSXDXDXGXHXGXDXDXDXDXDXKXSXGXFXzXqX.X4X5Xr.w.C.",
"l.d.d.d.V.H.pXBXFXKXKXHXAXCXlXhX>X%X#X%X#X].}.$X%X%X=X&X=X=X0X=X%XoX8Xr.s.V.2.q $.@X X3. X XoXoX%X;XNXDXGXzX1.+X[.^.FXGXGXHXGXGXDXDXGXSXFXwX0X-X3X2X5Xe.V.s.f.f.",
"d.d.f.V.tXdXVXGXKXHXhX>X,X-X;X>XwXwXwXwXwXwX-X&X=X=X=XXXXX3X3XoX=X=Xq.w.z.Z.5.9 +.OXq.w.e.r.q. XR.E.lXGXMXoX5XrX@.$ >XFXAXFXvXvXAXSXGXSXGXkX=X4X2Xq.w.s.d.l.l.d.",
"f.i.0.yXbXFXFXzX>X;X>XiXvXSXSXDXGXGXGXFXGXGXvXlX*X$X=X3X4X X2X X}.+.4.f.d.c.1X9 t 1Xb.p.f.f.Z.rXO.X E.VXBXOX0.r.8 X :XBXFXcX{.0XkXCXFXSXGXvX*X3X2Xq.C.V.f.d.f.d.",
"p.t.yXnXFXxXhXhXxXVXFXVXFXGXDXDXSXDXGXDXDXDXKXDXwX&X9X3X5X5.0.5X}.q 4.d.d.V.<XZ 9 OXb.h.z.d.i.rXe @ ].mXbXOX7X;.. I.wXbXVX0X4X].#XxXFXSXGXFX-X9X3.0.Z.f.f.d.f.d.",
"z.v.bXMXzXxXKXKXJXKXGXVXAXFXSXDXDXGXGXFXSXDXGXFXwX].0X8Xr.C.A.B.*.q 4.l.l.t.M.+.8 @XA.y.d.s.K.=.. p 3XdXbX+XoX8 $ @XOXdXBXoX5X6X].jXDXSXDXSX;X4X2Xw.S.d.d.d.d.d.",
"Z.q.iXAXKXLXLXLXPXZXGXFXFXHXDXSXKXAXSXFXGXGXFXhX}.qX0X2X9.F.p.N.T.9 8.k.l.k.n.#.# U.v.d.d.H.rXq . R. XpXbX>XI.. q <X5XsXnX%XXX&.a E.JXDXSXGXwX.Xq.w.s.d.d.d.d.d.",
"q.uXVXKXLXLXLXLXPXIXDXFXFXAXJXDXDXGXGXGXvXkX:X-X>X}.<.tXG.i.p.M.%.0 8.h.d.S.H.=., A K.d.p.N.R.. 9 <Xq.uXVXhXr o &.rXq.sXNX[.w . 8 =.FXAXHXDXkX=X2X0.S.d.d.d.d.f.",
"6XbXGXKXLXLXJXJXJXDXDXDXGXGXDXSXcXzX;X;X*X.X9X#XI.e i 5XC.f.j.K.A t M.l.f.S.A.2.< w q.z.t.rXy . &.K.4.uXSXW.O @ 1.rX6XmXNX@.o p @XuXMXGXKXDXkXoX2Xe.S.d.l.l.p.f.",
"cXFXDXJXDXFXDXKXGXGXDXJXDXSXkX-XoXoXoX&X3X+X<.t : - < ^.K.l.j.M.i Z 8.k.l.d.x.7.u 6 :.4.M.=.  8 9.Z.c.tXBXB O < +XoXO.[.SX;.;.B.n.n.aXVXFXFXzX.X2Xe.D.p.l.d.f.f.",
"cXFXDXDXFXFXSXvXvXFXGXSXSXkX[.$X X XoX+.;.6XOX$.: - % A M.j.j.n.0 A M.d.l.h.l.7.U.u %.1X|.9 . @.H.u.a.q.eXe O 4 @.8 o p oX5.K.p.p.c.sXVXFXFXkX.X2Xe.G.f.f.f.p.d.",
" XqXcXvXwXeX0X*X*XcXFXFXFX>X[.].5Xm.tXP.t ^.M.8.S 6 5 6 >.K.J.2.8 %.H.f.h.z.j.8.!.( C `.( , 9 |.c.l.a.rX}.1 O O   . q 6.9.a.f.f.z.c.yXBXFXDXkX9Xr.w.s.f.f.p.f.l.",
"0.r.3. X X3. X2X3. XnXFXMX>XE.q +.2.<X@X> @.M.t.7./.( C %.<X<X#.8 R.H.s.h.j.j.n.2.A ~ ! 4 : $.<XB.B.<X=.t X O X y T.rXG.x.h.p.d.g.V.tXbXSXGXeX4Xe.w.s.d.f.f.l.l.",
"a.F.C.C.v.c.V.V.C.4.6XBXFX>XU.9 8 0 t U.5 < 7.b.t.n.7.%.A !./.Z Z <XH.i.l.h.y.x.m.%.! G * u +XOX^.A w X o X i =.<Xv.i.d.d.p.d.d.f.S.e.sXVXvX3X2Xw.f.f.d.f.d.d.h.",
"l.l.f.f.d.h.d.p.d.b.rXnXFXwX].R./.%.t < ; < $.8.7.7.7.~.C ~ ) A -.m.b.f.k.p.z.g.n.>.H x + Y.U.Z , > @ X p ].5XH.c.G.F.F.S.G.D.Z.f.S.V.0.8X6X Xq.i.d.d.d.d.d.d.d.",
"f.d.f.f.d.d.d.d.d.G.q.bXFXwX1.rXM.M.K.2.+.t 0 0 Z ( !._./ H H ~ >.n.b.x.p.z.z.t.N.(.Q h & N @ 1 e Z #.5.A.A.C.v.0.rX5X5X7X7Xe.w.D.G.Z.t.4.9.9.c.g.l.f.d.f.d.d.d.",
"f.f.d.f.d.d.z.d.f.S.e.pXFXfX5.c.f.p.d.G.H.OXT.A 7 C A A Q ! L ~ |.t.t.z.f.l.u.K.2.%.b & * ; 5 A *.7.K.b.a.c.B.uXdXbXBXmXaXqX4X7XH.C.f.z.i.i.a.f.k.l.d.F.f.d.l.l.",
"d.d.l.p.d.d.d.d.p.f.w.yXVXiX3.Z.i.F.f.a.V.c.v.B.7.2.>.$.%.C H ~ /.M.Z.d.p.k.k.8.S ! N - A ,.5.m.M.b.t.4.7.pXnXVXVXVXBXVXDXSXiX2X6X7XS.f.d.d.g.z.f.f.f.f.f.d.d.h.",
"d.l.l.l.d.d.f.d.p.f.V.tXVXfXr.G.a.g.F.f.l.z.l.f.z.x.N.7.|./.( C A ,.7.N.A.v.M.,.Q L g 5 1Xb.J.p.p.G.N.rXdXVXFXGXFXFXGXGXJXDXMXqXXX6XC.s.d.l.p.f.p.f.f.f.f.d.d.p.",
"d.d.d.f.d.d.d.p.p.p.a.H.mXqXr.F.d.d.f.f.h.j.u.l.z.g.a.J.b.7./.A ~ ^ C %.OX1X!.C ^ n k u m.z.g.d.p.w.yXVXFXVXSXGXDXSXNXSXSXGXGX>XoX6XH.S.f.d.f.f.d.d.d.d.d.d.f.a.",
"d.d.f.f.d.d.d.k.z.f.a.C.6X5X9.f.d.d.f.d.l.j.z.p.z.f.d.d.k.t.K.~.~ ^ ^ 3 y S ~ L J n + u M.h.d.f.V.sXBXGXSXSXGXDXDXGXGXGXSXSXGX>X=X2XD.S.d.d.d.a.l.d.h.h.d.d.F.F.",
"d.d.d.p.p.l.l.d.d.d.s.F.r.6.n.a.a.s.s.f.g.i.a.V.f.f.f.d.f.f.a.m.U.Q L z % - L L K x & u 5.l.d.c.uXBXGXDXDXSXFXFXFXAXDXDXDXSXcX=X8X7Xw.F.d.p.d.d.d.d.d.d.d.d.d.f.",
"d.l.d.d.l.l.d.d.f.f.d.i.H.9.9.N.H.H.H.H.tXtXtXH.v.C.V.S.f.d.y.A.OX( L v & j U J U z + 6 m.x.f.H.nXGXDXSXFXGXSXGXHXAXJXKXGXMX=X4X5Xe.D.S.d.h.l.l.d.d.d.d.d.d.d.f.",
"d.d.l.d.p.l.f.s.s.d.l.d.C.tXpXbXBXBXBXVXVXVXVXnXaXpX6Xe.f.d.z.b.rXU.! F h f J K U l & r m.F.C.sXFXKXKXKXFXSXSXGXGXDXFXcXeXXX3X4Xe.C.S.a.d.l.d.d.f.d.d.d.d.l.p.l.",
"d.d.f.k.d.f.f.f.f.d.u.J.tXnXVXKXKXLXJXPXJXJXDXFXGXVXdX6Xw.J.p.t.n.,.! I f d m U U j & 6 5.F.e.dXFXHXDXKXGXSXFXDXNXwX&X=X=X&X3X7XH.D.f.d.l.l.d.d.f.f.d.d.d.l.f.f.",
"f.f.f.f.d.h.d.d.d.d.d.v.bXFXFXGXKXKXKXDXJXJXHXFXGXFXFXmX6Xm.b.a.b.,.! U j d v T U j g < 5.Z.e.dXVXFXSXvXcXSXSXvX$X*X9X&X#XqX@X0.C.d.f.l.d.d.d.d.f.f.f.d.d.d.l.d.",
"F.f.f.p.h.d.d.d.d.d.z.B.aXDXKXGXKXGXGXGXJXDXHXHXSXGXDXDXzX XH.c.J.>.V U x & x ' I j d 3 2.f.v.tXfXwX=X{.[.;XSXcX$X9X4X=X;X@.#.K.p.l.l.l.d.d.d.f.f.f.d.d.d.d.d.d.",
"f.f.f.d.h.h.d.d.z.l.u.v.6XvXGXGXHXDXDXDXDXSXAXFXFXGXSXGXNX=X7Xe.N.>.! U M + x ' ' j d 3 2.z.F.V.B.5X4XeXhX[.vXwX%XoX6X6XA # 1.t.p.h.h.h.d.d.d.f.f.d.d.d.d.d.l.d.",
"f.a.f.l.y.d.f.f.f.d.p.Z.5XXXzXGXFXGXDXDXDXGXFXFXFXFXFXSXGXeX3X7XH.2.~ m U d x ' [ j d 3 2.f.f.f.S.9.6X+.I.jXIXkX}.:XOX+Xw w 5.p.d.h.d.d.d.d.d.d.d.d.d.d.d.d.d.d.",
"f.f.d.y.d.d.d.d.f.f.d.p.n.5X9X*XcXFXGXDXDXKXSXVXFXSXAXGXVXzX.X6XK.2.Q K U f l T { z g 3 2.F.d.d.f.c.8.+.> `.KX>X-XBX+X$.1 I.m.u.d.d.d.d.d.f.d.d.d.d.d.l.d.d.d.f.",
"f.d.d.y.d.d.d.d.s.f.d.z.a.A.7X3X.XwXcXGXDXDXGXFXAXGXAXVXFXwXoX8XK.>.Q J P j j E { z & - :.G.d.l.l.p.N.+.# Y.KX>XkXGX>Xt # ^.v.d.d.d.d.d.f.d.d.d.l.l.l.d.d.f.f.f.",
"d.d.d.d.d.d.h.h.s.S.f.d.l.f.C.7X4X3X$XkXNXDXJXDXGXGXGXGXzX%X=X XK.>./ ' ..W F ..X.I z 5 :.J.a.l.p.f.N.-.1 _ PX>XhXLXY.# Z OXD.d.f.d.f.f.F.f.d.d.h.y.d.d.d.f.d.f.",
"d.d.d.d.d.l.h.l.f.f.f.d.d.l.f.D.7X8X=X#X>XSXJXDXGXxXzX>X-X%X9X6XA.|./ {  .F G ..X.D h 3 :.Z.p.l.p.f.V.1.; V PXjXhXPXV > =.H.S.d.f.f.s.f.f.f.d.d.l.l.d.d.f.f.d.d.",
"d.d.d.d.d.d.d.d.s.f.d.d.d.d.d.a.V.0.@X#X#XxXDXGXwX}.-X;X0X0X4X5XG.2.! I E G z E  .c + 2 =.J.g.j.l.d.F.OXw V PXjXIXY.@ u 7.a.f.f.d.f.f.f.f.d.d.l.d.l.d.d.f.d.d.d.",
"d.d.d.d.d.d.d.d.f.f.d.h.d.d.d.d.p.C.1.#.^.hXDXSX=XoX%X-X*X0X8XH.D.2.! P [ F z L  .D d 3 :.J.d.l.l.d.f.rXp r xX,X`.r > %.N.d.f.J.d.d.d.d.f.d.l.d.y.d.f.f.d.d.d.h.",
"h.p.d.f.f.f.d.d.f.d.d.h.d.d.f.f.f.i.v.=.Z xXKXvX&XqX%X%X*X].<Xc.Z.2.! F ' I G [ X.E l b :.A.i.f.p.d.d.B.I.e {.jX^ 2 t 1Xc.z.y.p.l.l.d.d.d.d.d.l.d.d.f.f.f.d.l.h.",
"d.l.f.f.F.d.d.l.d.d.d.d.d.d.f.f.a.f.V.H.=.#XSXCX*X.X+X6XI.8 4.Z.x.2.! F [ E G E  .I f 3 *.G.i.f.d.l.u.N.@Xe E.`.N @ *.M.t.f.z.y.d.l.l.d.d.d.d.d.d.f.s.F.f.d.l.y.",
"d.l.d.d.d.d.d.d.f.d.d.d.d.d.f.f.f.f.f.G.w.5XBXSX*X3X5X+Xy t m.t.a.2.H F E E G L } D h % -.C.f.d.d.z.f.V.<XZ u ~ 2 u 7.a.p.k.f.d.d.d.d.d.d.d.d.d.d.f.d.d.d.d.d.d.",
"d.d.d.d.f.d.d.d.d.d.d.d.d.d.d.d.d.d.f.f.i.H.mXVXeXoXOX(.# A N.p.x.2.~ I E ..I I } F d % *.A.f.d.d.d.f.L.7.*.; - < R.N.p.f.z.g.z.d.d.d.d.f.d.f.d.d.d.d.d.d.d.d.d.",
"d.d.d.d.d.d.d.d.d.d.d.d.d.d.d.d.d.d.d.d.f.w.bXFX:XXXgX@.8 T.H.f.Z.|.) [ ..X.E Y ' J h % $.n.a.k.p.z.f.S.B.~.: : @.m.a.z.d.l.k.l.d.d.f.d.d.d.d.d.d.d.d.d.d.d.d.d.",
"d.d.d.d.d.d.d.f.d.f.d.d.d.d.d.d.d.l.y.d.d.w.aXFXqX,XU.e 0 @XC.F.Z.,.H F W ..I c Y m j 3 %.M.t.x.p.p.d.C.5.t : u OXa.f.z.y.l.l.p.d.d.d.d.d.d.d.d.d.d.f.d.f.d.d.d.",
"d.d.d.d.d.d.d.d.d.d.f.d.d.d.d.d.p.l.l.d.l.B.aXFXwX#XB ; +.5Xb.x.G.2./ E R  .I c J c j 3 %.K.x.f.x.l.d.tXA : , ,.H.S.f.s.f.f.d.d.d.d.d.d.d.f.d.d.d.d.d.d.f.d.d.d.",
"d.d.d.d.d.d.d.d.d.d.d.d.f.d.d.d.d.f.l.d.d.v.fXNX=X>XB > T.rXt.k.b././ ' I { I W P c f * +.N.Z.l.p.b.B.#.< 1 $.<XV.f.f.f.d.f.d.d.d.d.d.d.d.d.d.d.d.d.d.d.d.d.d.d.",
"d.d.d.f.d.d.d.d.d.d.d.d.d.d.d.d.d.d.z.g.h.b.yXaX.XwXI.> A 1Xb.x.b.*.H G z } R D P m f + A n.Z.k.p.m.%.w ; A 2.b.a.d.g.f.f.d.d.p.d.d.d.d.d.d.d.d.d.d.d.d.d.d.d.d.",
"d.d.d.d.f.d.d.d.d.d.d.d.d.d.f.d.d.d.d.d.h.a.5X4X3X=X#Xw # %.M.t.M.,.^ F j } T c m U l N @.rXZ.k.N.>.< : w /.N.p.p.d.z.g.d.l.p.l.d.d.f.d.d.d.d.d.d.f.d.d.d.d.d.f.",
"d.d.d.d.d.d.d.d.f.d.d.d.d.d.d.d.d.h.p.p.h.f.e.6X4X6XrX1., , *.7.8.,./ T z } { T [ ' x N A <Xb.M.~.< 2 w :.M.A.g.d.d.l.d.l.l.l.d.d.d.d.d.d.d.f.d.d.d.d.d.d.d.d.d.",
"d.d.f.d.d.d.d.d.d.d.d.d.d.d.d.d.d.d.l.h.d.f.B.5Xe.e.G.8.U., t }.1X%.H D f T } U J I j = y |.7.>.w ; w U.B.g.f.F.d.d.d.l.l.p.p.d.d.d.d.d.d.d.d.d.d.d.d.d.d.d.f.d.",
"d.d.d.d.d.f.d.f.d.d.d.d.d.d.d.f.f.f.f.f.d.f.Z.A.G.i.x.b.B.+.< ( )._./ R f U ` G F F f % u ,X!.7 2 ; $.rXG.d.d.d.f.f.d.d.d.d.d.f.f.d.f.d.f.d.d.d.f.d.d.d.d.d.d.d.",
"d.d.d.d.d.d.d.d.d.d.d.f.f.d.d.d.s.f.s.f.f.d.f.f.d.f.k.u.t.m.y 5 _ ~ K P d n Y J I R z z u Y.3 3 ; S <Xa.f.d.z.d.d.f.d.f.d.f.f.f.d.d.d.d.d.d.d.d.d.d.f.d.d.d.d.d.",
"d.d.d.d.d.d.d.d.d.d.d.d.d.d.d.d.d.d.f.f.f.d.f.f.f.s.a.x.k.n.|.Z Q H m c d m ' } { { n g & = = ; A <Xn.u.z.y.h.h.d.d.f.f.f.d.d.d.d.d.d.d.d.d.d.d.d.d.d.d.d.d.d.d.",
"d.f.d.d.d.f.d.d.d.d.d.f.d.d.d.d.l.d.f.f.f.f.d.f.s.G.f.p.k.t.M./.( L ^ x s x R T Y Y j & k = 3 A rXt.t.k.d.d.h.l.l.d.f.d.f.d.d.d.d.d.d.d.f.d.d.d.d.d.d.f.d.d.f.d.",
"d.d.d.d.d.d.d.d.d.d.d.d.d.d.d.f.d.y.p.l.d.d.d.y.d.f.p.p.d.f.z.M.~.~ L n d l D D m m x & = : @.rXc.d.h.h.f.i.z.d.d.f.d.d.d.l.d.d.d.d.d.d.d.d.d.d.d.d.d.d.d.d.f.d.",
"d.f.d.d.d.d.d.d.d.f.d.d.d.d.d.d.d.d.l.p.d.f.y.d.d.d.f.z.d.l.d.b.1XC L x + l P D J U x & = ( <Xi.f.h.h.h.f.f.d.d.f.f.d.d.h.d.p.d.f.d.d.d.d.d.d.f.d.d.d.d.d.d.d.d.",
"d.d.d.d.d.d.d.d.f.d.d.d.d.d.d.d.f.d.f.f.f.f.d.d.d.d.g.d.d.l.l.b./.) ] D j x P J W I n & = ( 7.t.d.d.d.y.d.f.d.d.f.f.f.d.f.d.d.d.d.d.d.d.d.f.d.d.d.d.d.d.d.d.d.d.",
"d.d.d.d.f.d.d.d.d.d.d.d.d.d.d.d.d.d.f.d.d.d.d.d.d.d.d.d.d.d.h.n./.) o.I l x P J R E Y x b ( 7.a.d.d.d.d.d.l.f.p.f.f.g.d.d.d.d.d.d.d.d.d.d.d.d.d.d.d.f.d.d.d.d.d.",
"d.f.d.d.d.d.d.d.d.d.d.d.d.d.d.d.k.h.p.d.d.d.d.l.d.d.d.d.d.d.p.n./.) ] v f j J J R I m h z u m.d.d.f.f.f.d.l.l.d.f.f.f.d.d.d.d.d.d.d.d.d.d.d.d.d.d.d.d.d.d.d.f.d.",
"d.d.d.d.d.d.f.d.d.d.d.f.f.d.d.d.p.k.l.l.l.d.l.l.y.d.d.f.d.d.d.N.U.~ ^ h d j m D T Y n g d 6 5.J.f.f.f.f.d.d.d.l.f.f.d.d.l.h.l.d.d.d.d.d.d.f.d.d.d.d.f.d.d.d.d.d.",
"d.f.d.d.d.d.d.d.d.d.d.d.d.d.d.d.d.d.d.d.d.d.d.f.d.f.d.f.g.f.d.M.U.~ L j f f c D T E U k s 2 :.G.p.d.f.d.d.d.d.d.d.d.d.d.h.l.l.d.d.f.d.d.d.d.d.d.d.d.d.d.d.d.d.d.",
"d.d.d.d.d.d.d.f.d.d.d.d.f.d.d.d.d.d.f.f.d.d.f.p.d.f.k.p.d.p.z.7._ ! K f s f P R { { ' m l N :.A.p.d.d.d.d.d.y.d.d.d.d.d.d.l.d.f.d.d.d.d.d.d.d.f.f.d.d.d.d.d.d.f.",
"d.d.d.d.d.d.d.d.f.d.d.d.d.d.d.f.d.d.d.d.d.f.f.d.k.d.l.l.l.p.d.7.) ] ' z f f m D T E U l k 4 $.A.p.l.d.p.f.f.l.l.l.l.d.d.f.f.f.f.d.d.d.d.d.d.d.d.d.d.d.d.d.d.d.d.",
"d.d.d.d.f.d.d.d.d.d.d.d.d.d.d.d.d.d.d.d.d.d.f.l.l.f.d.d.d.g.p.7.) { [ x k k m m Y ` M N + ; +.H.a.f.l.k.z.a.l.d.l.k.p.f.a.f.f.d.d.d.d.d.f.d.d.d.d.d.d.d.d.f.d.d.",
"d.d.d.d.d.d.d.d.d.d.d.d.d.d.d.d.d.d.d.d.p.z.a.p.p.p.p.f.p.a.G.:.! R J N & = M / | '.`.Q.Y.I.-.7Xv.Z.z.h.d.f.f.f.d.d.d.s.d.d.f.d.d.d.d.d.d.d.d.d.d.d.d.d.f.d.d.d.",
"d.f.d.d.f.d.d.d.d.f.d.d.d.d.d.d.y.d.f.F.D.v.v.B.tXtXtXH.0.0.B.>.! K M N b Y.UXUXZXZXZXPXLXAXiXOXe.C.k.h.d.f.f.S.d.f.F.d.d.d.d.p.f.d.d.d.d.d.d.f.d.d.f.d.d.d.d.d.",
"d.d.d.d.d.d.d.d.d.d.d.d.d.d.d.d.p.f.c.B.5XpXnXBXBXVXVXMXiX:X+XE.o.{ | `.ZXZXZXLXKXJXPXIXHXDXMXqX4X7XZ.x.d.f.S.S.S.f.g.d.l.l.y.l.d.d.d.d.d.d.d.d.d.d.d.d.d.d.d.d.",
"d.d.f.d.d.d.d.f.d.d.f.d.d.f.d.f.Z.v.tXdXFXGXKXKXKXDXDXJXGX>X}.).) '.ZXPXPXPXJXKXJXDXJXHXDXGXNXeX3X8Xv.c.c.H.tXtXtXtXH.S.d.l.d.l.d.d.d.f.f.d.d.d.d.d.d.d.d.d.d.d.",
"d.d.d.d.d.d.d.d.d.d.f.d.d.d.d.a.0.uXnXFXGXKXHXAXGXSXJXDXFX>X}.#X).IXAXIXJXIXIXIXDXDXDXKXGXNXwX&X0X4X7XuXdXbXBXVXFXVXdX7Xc.f.f.f.d.d.d.d.d.d.d.d.f.d.d.d.d.d.d.f.",
"d.d.f.d.d.d.d.d.d.d.d.d.d.d.d.G.5.pXVXGXDXJXKXGXGXGXDXvXwX#XoX+XwXFXVXSXJXKXFX;XSXDXSXNXlX>X=X3X0X3XfXdXFXGXGXGXKXSXiX5Xv.x.d.f.d.d.d.d.d.f.d.f.d.d.d.d.d.d.d.d.",
"f.d.d.d.d.d.d.d.f.d.d.d.d.f.d.S.D.5X6XiXvXlXzXcXiXwXwX*X.X3X+XoXeXMXMXMXMXcXeX.XeXwX-X-X=X.XoX4X8X+X4XfXcXcXkXzXzXqXoX5XZ.p.f.f.d.d.d.d.d.d.d.d.d.d.d.f.d.d.d.d.",
"d.d.d.d.d.f.d.d.d.d.d.d.d.d.d.f.w.7X4X9X$X-X#X#XoX%X0X0X0X3X+X6X=X%X#X#X#XoX3X9X=X&X&XXX9X9XqX3X2X5X+XoXoX$X%X%X.X.X6Xe.Z.k.d.d.d.d.f.d.d.d.d.d.d.d.d.d.f.d.d.d."
};
