/* XPM */
static char *_2318554039940ca820b324be1e15f1aA5ipE1PPLLJON2dT[] = {
/* columns rows colors chars-per-pixel */
"80 80 251 2 ",
"   c #030202",
".  c #0B0707",
"X  c #161210",
"o  c #221B15",
"O  c #221D22",
"+  c #372F31",
"@  c #453838",
"#  c #4A413C",
"$  c #524C4B",
"%  c #64585B",
"&  c #756C6A",
"*  c #7F635F",
"=  c #563F47",
"-  c #836D6C",
";  c #877977",
":  c #967B7A",
">  c #88746E",
",  c #A17F77",
"<  c #7F807B",
"1  c #9A877A",
"2  c #92867C",
"3  c #A48D7F",
"4  c #796898",
"5  c #767596",
"6  c #6A6C92",
"7  c #7877A6",
"8  c #67618E",
"9  c #987984",
"0  c #867897",
"q  c #8A6F96",
"w  c #846EA4",
"e  c #8877A9",
"r  c #8B78B2",
"t  c #947DB8",
"y  c #927AAD",
"u  c #748A8B",
"i  c #7997B7",
"p  c #728CAD",
"a  c #77A9B3",
"s  c #5B8BA0",
"d  c #7699C3",
"f  c #76B8D5",
"g  c #73B0CA",
"h  c #75C8D8",
"j  c #76D8E6",
"k  c #75DCF4",
"l  c #75D3EA",
"z  c #4EEFFC",
"x  c #54EDF6",
"c  c #5CEBF5",
"v  c #56EDFE",
"b  c #5AEBFD",
"n  c #5AE6F8",
"m  c #4FF1FC",
"M  c #53F0FD",
"N  c #59F1FE",
"B  c #51F1F7",
"V  c #6CE5ED",
"C  c #68E9ED",
"Z  c #78E5EA",
"A  c #64E5F4",
"S  c #6CE4F4",
"D  c #63EAF4",
"F  c #6BE9F5",
"G  c #63EBFB",
"H  c #69E8FA",
"J  c #77E6F5",
"K  c #998986",
"L  c #998A98",
"P  c #919192",
"I  c #A58B87",
"U  c #A89689",
"Y  c #B3958D",
"T  c #A79698",
"R  c #B69A95",
"E  c #A88C97",
"W  c #93AA95",
"Q  c #B5A48C",
"!  c #A9A69A",
"~  c #BBA39C",
"^  c #B8A897",
"/  c #BAB599",
"(  c #AAAA8E",
")  c #9885A8",
"_  c #899BA6",
"`  c #9998A7",
"'  c #8B87B4",
"]  c #9C8CBC",
"[  c #9787B7",
"{  c #9C93BB",
"}  c #868BB1",
"|  c #A38AA9",
" . c #AB98A8",
".. c #B39BA8",
"X. c #A38CBC",
"o. c #A48BB5",
"O. c #A394BD",
"+. c #A897B8",
"@. c #B29ABA",
"#. c #97A9A4",
"$. c #8FB0B1",
"%. c #B9A8A4",
"&. c #B9B7A9",
"*. c #B8A3B9",
"=. c #ABB1AD",
"-. c #C39C9A",
";. c #C3A89D",
":. c #CABC9B",
">. c #C5B79A",
",. c #D39BA4",
"<. c #C89EAC",
"1. c #C3ABA3",
"2. c #C8A9A6",
"3. c #D4A8AB",
"4. c #CCBCA3",
"5. c #CCB3AB",
"6. c #C7B7A8",
"7. c #D3B9AB",
"8. c #D6ABB2",
"9. c #CAB8B7",
"0. c #D7B9B8",
"q. c #C1ABBA",
"w. c #E2B8B9",
"e. c #9AC6BA",
"r. c #8FC1B6",
"t. c #B6CBBA",
"y. c #AEC6B3",
"u. c #C9C19C",
"i. c #D1C69D",
"p. c #CDC2A3",
"a. c #CAC5AB",
"s. c #D2C4A4",
"d. c #D3C4AB",
"f. c #D5CBAB",
"g. c #DBCCAC",
"h. c #D7C9A6",
"j. c #DBD2AE",
"k. c #D6D2AD",
"l. c #C6C9B7",
"z. c #D4C3B4",
"x. c #DBCCB2",
"c. c #D8C8B8",
"v. c #C6D3B9",
"b. c #DDD3B3",
"n. c #D9D5B8",
"m. c #E2C9BB",
"M. c #E3D4B3",
"N. c #E3DAB5",
"B. c #E3D5BA",
"V. c #E3DCBA",
"C. c #EBDDBB",
"Z. c #E9D7B8",
"A. c #F0DBBE",
"S. c #ECE2BD",
"D. c #E7E1B9",
"F. c #F1E3BC",
"G. c #9D89C3",
"H. c #9A95C5",
"J. c #8995C0",
"K. c #A38DC3",
"L. c #A78DCB",
"P. c #A493C4",
"I. c #AA92C4",
"U. c #AA9CC5",
"Y. c #A694CA",
"T. c #AA95CC",
"R. c #AC9BCC",
"E. c #A59AC7",
"W. c #B39AC9",
"Q. c #AB95D1",
"!. c #AD9BD2",
"~. c #B29DD4",
"^. c #B59DDA",
"/. c #8FAFCC",
"(. c #ACA2C7",
"). c #B7A5C9",
"_. c #AEA2D3",
"`. c #B4A2D4",
"'. c #B9A5D5",
"]. c #B6A3DA",
"[. c #B9A5DB",
"{. c #BCABDB",
"}. c #B8AAD7",
"|. c #B9B6D3",
" X c #BDAAE1",
".X c #C8B7CB",
"XX c #D7BDC3",
"oX c #C1ADDC",
"OX c #C1ACD2",
"+X c #C3B2DE",
"@X c #C9B5D7",
"#X c #CAB2D0",
"$X c #E7BDC3",
"%X c #C5B3E2",
"&X c #CAB5E5",
"*X c #C9B9E7",
"=X c #CBB6E9",
"-X c #86D8D8",
";X c #98DBD8",
":X c #92CACA",
">X c #A5CAC1",
",X c #A8D6CB",
"<X c #B6D4C9",
"1X c #A8DDD6",
"2X c #B1D4D1",
"3X c #98E2DC",
"4X c #80E6DB",
"5X c #A5E2D8",
"6X c #85DAE4",
"7X c #8BD6E8",
"8X c #AFD8E5",
"9X c #87E6E9",
"0X c #95E7E6",
"qX c #87E8F6",
"wX c #96E7F3",
"eX c #A8E8EF",
"rX c #D9C7C6",
"tX c #C6D6C5",
"yX c #D9D5C7",
"uX c #DAD5D4",
"iX c #D0CBD0",
"pX c #E3CCC3",
"aX c #E3CCCA",
"sX c #E9C7C8",
"dX c #F4C6CB",
"fX c #EBD2CD",
"gX c #E7D7C6",
"hX c #F2DCC2",
"jX c #E7CDD3",
"kX c #ECD5D3",
"lX c #EBDAD5",
"zX c #EDDBDB",
"xX c #E6D7D6",
"cX c #F2D5D4",
"vX c #F2DBD5",
"bX c #F2DBDA",
"nX c #F0D7DA",
"mX c #F4CBD2",
"MX c #F2E4C5",
"NX c #F0E2D3",
"BX c #D4C7E9",
"VX c #D6C8F2",
"CX c #D3CAEF",
"ZX c #E6D8F7",
"AX c #E5D2EE",
"SX c #F6E9E9",
"DX c #E9E4FD",
"FX c #F7E9FA",
"GX c #FDF6F3",
"HX c #EAEBEB",
"JX c #D1F8FF",
/* pixels */
"v v v v v b v v v v v v v b v v v v v v z z v v v b b v v v b c N v v v v v v v v v b b v b x v m M z v v v v v v M v m v v v M m v v v v B v v v b b b b v x c ",
"v v v v v v v v v v v v v v v v b b v v M v v v v b v v v M b v v v v v M M v b n b b b G v x x v M M v b b v v N M z v v v v v v x v v v v v v v v v n b v v b ",
"v v v v v v v v v b v v v v v b b b v x m v v v b v v M v v v v v v m M m B x n D D A H G b N N v n b b v b G N b b b b b b n N b v v b v b b b v v v v v v m m ",
"v v v v v v v v v v v v v v v b G b v M B B v v b v v v z v v v N N x x c C C Z qX6X9XqXZ j J V F F H D D c c N b b b G b x x x v v v v b G G b v v v v v v m z ",
"v v v v v v b v v v v v v v v v b b v v v v c b v v v b v v v v b H F V Z 4X3X5X,X>X>Xe.e.:X5X0X-X9XZ Z Z C C B D c c x b v v n v v v b b b b v v z m m v v n v ",
"v v v v v b v v v v v v v v v v b b v M v b x b c b v v b G b A k Z 9X9X3X1X,X<XtXa.&.&.&.&.y.e.,X,X5X5X0X0X0X9XZ Z J D A x M N v v b b b c v v v v m m z v b b ",
"v v v v v v v v v v v v v v v v b M v v v v x b G b v M b V Z ;X1X<Xt.t.t.v.v.k.D.j.:./ / y.a.l.v.v.v.tXtX<XtX<X1X8XeXwXJ D N M v v b b b x m m m m M v v v b G ",
"v b v v v v v v v b b v v v v v v M M v v v b b v v v c V Z 1X<Xt.l.t.a.k.b.M.M.N.h.:.>.:.s.g.M.n.B.n.n.D.D.n.v.l.tX2X5XeXwXZ V b b b b b v v x B x v v v v b b ",
"v v v b v v v v v v v v v v v v v v v v v N v v M M c C -X1XtXn.gXyXv.f.B.C.V.N.D.N.i.>.i.f.M.Z.C.M.M.S.D.D.b.V.n.n.v.tX<X2X8XeXZ D D B N M b b b b v b M v v b ",
"v v v v v b v v v v v v v v v v v v v v v v v v v G C 4X5XtXV.C.MXD.n.j.V.S.S.C.S.N.i.>.i.h.M.C.M.MXMXS.N.j.D.N.N.n.M.c.c.t.tX<XeX0XC D B N b b b b B B v v v v ",
"v v v v v v v v v v v b v v b v v b M M x v v v c Z -X<XtXV.Z.F.F.F.D.N.N.C.MXS.hXA.M.:.p.k.N.D.A.hXA.C.N.b.b.g.M.M.M.M.n.k.k.v.<X5X0XJ D N N G b b B B B B v b ",
"v v v v v v v v v v v v b v v v N b c c v x G S 9X-Xy.t.N.F.S.D.D.F.F.C.C.C.MXMXA.A.Z.i.p.k.V.n.MXA.Z.M.k.h.h.Z.M.M.M.M.N.b.b.k.k.t.1X0XqXF b b b b b B B B x b ",
"v v v v v b v v v v v v v v v v N v b v N G C 6X:X=./ i.i.j.MXS.F.F.F.S.D.MXMXMXC.C.V.h.:.f.n.b.F.Z.M.g.M.M.Z.Z.M.Z.M.j.b.b.b.j.j.f.v.<X5XqXS c b b b b v M B B ",
"v b v v v v v v v v v v v v v v v M v c D S -X:Xt.7.g.h.u.u.k.gXC.D.MXMXS.S.S.gXV.Z.b.g.u.s.b.M.Z.k.h.M.A.MXC.Z.Z.M.x.k.g.M.j.D.N.M.x.l.<X5X9XC D x b v v M v B ",
"b v v v v v v v v v v v v v v v v M M c V -Xe.t.k.M.j.j.b.f.p.p.N.b.gXMXMXS.C.C.V.N.b.k.u.u.h.M.f.f.M.C.S.N.N.D.N.N.N.N.g.x.f.j.M.M.M.g.l.t.1X9XS b v v v v v B ",
"v v v v v v v v v b b v v v v v v M v D Z :Xy.a.g.C.N.Z.MXn.u.f.a.6.f.V.gXS.C.Z.M.b.k.k.u.:.p.M.a.g.B.C.C.C.S.N.S.V.S.S.M.M.h.g.j.j.M.N.k.v.y.1X9XH b z v v v n ",
"v v v v v v v v v b v v v v v v N v x V 3X=./ u.i.g.M.M.B.B.n.n.f.p.>.6.p.d.b.gXx.Z.x.h.p.>.h.p.h.B.x.x.h.h.p.f.k.j.N.N.C.N.g.s.s.j.j.j.k.f.a.e.;XqXD v v v v v ",
"v v v v v v v v v v v v v v v v v v b V ;Xy.u.i.h.s.p.s.s.4.p.p.6.p.6.4./ ^ / 4.d.x.d.h.s.4.g.p.x.f.>.>.Q Q ^ 4.h.k.N.N.M.k.s./ i.g.N.M.N.j.h.a.e.3XJ D x M b v ",
"v v v b v v b v v v v v v v b v v v v V ,Xy.u.u.:.s.4.:.>.>.;.Q / ^ ^ Q Q U U Q Y ^ 6.6.>.6.s.s.4.6.~ ^ ^ ^ ^ / h.N.M.M.j.h.>.Q :.h.g.M.g.g.h.d.=.,XwXF n M v v ",
"v v v v v v v v v v v v v v v v v v v Z ,Xt.k.p.4.:.^ Q R Q Q Q Y ^ ~ >.1.1.;./ 1.Q Q Q 1.4.4.4.z.c.m.c.c.z.7.s.x.hXZ.b.h.:.3 >.4.s.h.g.h.h.h.7.9.(.0XJ c v v v ",
"v v v v v v v b v v v v v v v b v x b 9X1Xt.k.i.z.d.:.:.>.2.5.0.z.m.sXpXpXfXfXaXpXpXpXn.m.yXpXkXcXcXvXfXgXgXc.c.x.Z.B.s.:.Q Q >.4.4.i.s.i.i.i.u.6.=.3X9Xb B v v ",
"v v v v v v v v v v v b v v v v v c F 0Xv.u.s.f.c.c.d.p.0.m.m.m.sXfXsXfXfXfXfXfXkXvXbXbXbXvXNXNXvXvXbXfXcXfXz.x.c.z.f.7.3 Q ;.>.7.4.:.u.u.u.u.u./ =.;X9XD M v v ",
"v v b v v v v v v v b v v v v v v D Z 5Xt.d.n.B.m.x.x.b.m.w.R 9 : : > > > ; K ~ 0.vXcXvXlXvXbXlXfXcXsX..I 2 > I 7.z.a.d.U ^ ;.4.z.c.f.i.u.>.u.>./ W ,X9XD x v v ",
"b v v v v v v v v v v v v v v v b S 3X,Xl.x.B.x.c.z.c.pX0.5.9.jXjX9.%.1.T : - - K 0.vXbXcXcXvXcXvXfX2.- * ; 1 ~ 6.a.6.%.^ ! ~ 9.4.c.b.h.i.>.>.Q / W r.4XF v v b ",
"v v v v v v v b v v v v v b v v N V e.y.a.x.c.7.d.c.c.rXaXaXrXxX9.K &.uXyXzXxXxXzXcXkXcXcXlXcXkXkXvXkXzXfXxXgXpXrX! 1 ^ l.rX9.9.9.6.f.g.g.h.>.Q 3 W r.9XS v v N ",
"v v v v v v v v v v v v v v v v b Z e.d.a.7.;.d.7.z.m.9.E ; % P & + O O $ T xXbXzXkXcXcXcXcXkXfXkXfXkXaXfXrXK @ o o $ ; & ; 5 T 1.5.6.p.f.p.i./ ( W ,X9XD v v b ",
"v v v v v v b v v v v v v v v v c Z =./ p.4.4.7.d.z.z.E @ $ iXuX+         X & lXlXxXkXkXcXfXmXfXfXfXfXaXrX& X       X & rXiX+ @ I 1.6./ / y.:./ y.t.eX9Xc x v b ",
"v v b v v v v v v b v v v v v b N Z r./ 1.;.>.;.6.z.0. .$ iXHX$ .           # ! xXfXfXfXfXfXfXfXaXpXkXyX! # .         X =.SX&.@ 1.1.^ Q ^ / ( / / #.;XZ N x v x ",
"v v v v v v v v v v v v v v v v b V r.y.^ ^ ^ 2.9.&.* =  .HXHXX   .       . % v.gXxXfXfXfXfXfXfXfXgXfXz.% +             $ xXFX+ @ - R U 3 U U ! #.$.h V b B v N ",
"v v v v v v v v v v v v v v v v n Z a #.! ^ Q 5.0.9.XX.XSXGXSXO . .         & zXxXxXxXfXfXfXkXkXfXfXaXxX%.+ .           & HXHX% %.~ ^ Y ( 3 U U #./.j F N M v v ",
"v v b v v v v v v v b v v v v b v F -X$.#./ Q / 9.rXjXnXSXGXSX=.O . . . . $ &.SXlXlXkXkXkXkXfXkXgXvXxXzXSXL O .   . . $ l.GXGX&.9.9.%.U 1 ( ( #.1X9XF N n x b v ",
"v v v v b v v v v v v v b v v v b G J ;Xr./ ^ %.5.rXXXXXlXSXGXGXCX% + @ & uXSXSXzXlXlXlXcXkXcXkXvXfXbXzXlXFX<X% @ + 9 uXGXGXSXl.5.%.^ ( 3 =.! e.7XC c v M x N N ",
"v v v v v v v v v v v v v v v v v N c Z 3Xe.! ^ 5.9.0.sXsXcXSXSXFXSXSXSXSXSXzXzXzXbXzXnXbXbXvXcXfXvXvXlXxXNXSXGXbXSXSXFXSXjXXX9.2.%.~ I U ! #.:XZ D M v v b v c ",
"v v v v v v v b v v v v v v v v v B B C Z e.#.! 1.5.0.c.0.0.sXaXjXSXSXSXzXxXzXzXzXbXnXnXnXnXcXvXcXcXlXlXlXkXfXaXbXSXnXjX$X9.5.6.5.R R K K #.e.4XV b M z v v b x ",
"v v v v v v v v v b v v v v v b v v B C Z e.=. .R 1.5.5.0.0.8.XX0.jXjXjXfXsXfXvXzXkXnXnXnXkXcXcXmXcXcXkXaXaXaXfXpXrXXX5.2.3.2.%.^ Y I K P a -XC c m z v v v v b ",
"v b b v v v v v v v b v v v v v G b B c C j /.$.T %.1.1.2.7.5.3.0.XXXXsXdXmXmXcXmXmXnXbXnXcXcXmXmXmXfXkXfXfXsXsX0.9.5.8.3.2.;.R I Y I L _ :Xj C B m m v v v b v ",
"v v v v v v v v v v v v v v v v b c v b x S 6X/.a #.^ ~ ~ 2.3.3.7.7.m.m.sXdXm.dX$X$XmXmXdXdXdXdXmXmXmXsXsXpXrX0.0.5.2.2.-.-.Y Y 1 2 2 _ :X9XA z v v v v v v v v ",
"v v v v v v v v v v v v v v v b b b v N v b H j g _ _ T ..-.2.3.3.3.w.w.m.m.w.w.8.8.$X$XdXdX$Xw.$X$X3.8.$XsX$X0.7.2.2.;.R R Y , 2 < u :Xj D v z v v b v v z v b ",
"v v v v v b v v v v v v v v v v v v v v v v B C Z h a a #.#.T ~ ;.;.3.3.0.w.m.$X$Xw.,.,.,.,.,.,.,.3.8.0.8.7.8.8.2.%.R R Y U : & < u :Xj D x v v b b G b v v v b ",
"v v v b v v v v v v v b v v v v m v v v v B B B c C h h a _ _ ! ! ;.;.;.>.2.5.8.8.w.8.3.3.3.3.3.3.3.8.8.5.2.1.%.~ R U K K < < p a -XZ C x v n b b b b n v v v v ",
"v v v v v v b v b v v v v v v v m z v b b B M v b G S S j h g a P U ! Y R R ..1.<.<.,.-.-.-.-.2.-.-.~ Q Q ^ ^ U Y I 1 1 & u a a 6XV C c M v b G b v v v b b b v ",
"v v v v v v v v v v v v v v v v m v b b b b B x b b b b D D l -Xa p P K K T Y E Y Y Y Y Y Y E T Y Y U U I U I I 3 1 1 2 P >X0XZ S n c v b b G b v v M M b b b v ",
"v b v v v v v v v v v v v b v v v v v b b v v v b b b v v v x D S 6Xa u P K K : : , , , : : 9 9 9 : ; 1 2 U 3 1 1 3 Y P _ 1X9XG b b v v b G b b v v m v x M v v ",
"v v v v v v v v v v v v v v v v v v v v b b v v v b v v v m v v b J 7XeX$.P 9 9 9 : : : : : : 9 9 ; 2 2 U ( %./ Q ^ >.%.$.3XS x v v v b v b b b v v v B M v v v ",
"v v v v v v v v v v v v v v v v m M b b b b v M v v v v v v b b b J 7XJ._ 0  .| | E E T P L E | y E I K &.6.z.c.d.s.h.t.e.0XS v b b b v v v M b x v v B z v v v ",
"b v v v b v v v v v v b v v v v z v v v b v v v v M v B z n n b G k a i [  .) o.o.|  . . . .| o.| | ` E 5.l.c.x.g.j.n.v.>X9XH v b v v v M B v v v v v v v v v v ",
"v v v v b v v v v v v b v v v v v v v M v v M v v x m m M v b G H h d _ ) o.X.O.X.X.W.*.*.+.O.X.X.| ) T %.9.pXn.b.j.k.v.,X0XH v b B v v v v M v b v M v v v v b ",
"v v v v v v v v v v v v v v v v b v v m v v v v v M M M m x x G S f i E.+.O.X.T.W.~.OX).(.H.o.X.L.P.| | 9 %.c.V.b.j.j.v.,X0XA b b B M M v v b v M v b v v v b b ",
"v v v v v b v v v v v v v v b v b b v m v v b b b v z v v v n c k g J.H.U.O.I.I.R.]. X}.~.~.L.W.T.P.P.| L E c.gXn.D.k.tX8X6XG M N b M v v v v v v v v v v v b b ",
"v v b v v v v v v v v v v v v v v v M v v v b b b v z v v v v b k g /.!.`.I.X.I.R._.|. X^.L.L.W.R.R.I.[ )  .yXgXV.V.MXtX1X9XD N v v b v v v v v v v v v v v v v ",
"v v v v v v v v v v b v v v v v v v v M v b b b v v z v v b b G k f H.~.}.R.X.L.I.R.{.].~.T.L.X.P.T.] [ L K ! n.n.k.k.tX;X9XD x b v v v v v v v v v v v b v v v ",
"v v v v v v v v v v v v v b v v v v M v v b b b z z m v b n b G H g /.!.`.!.K.P.O.R.}._.R.T.W.I.K.I.O.[ ) L *.z.n.b.n.tX;XV D x v v v v v v v v b v v v v v v v ",
"v v v v v b b v v v v b v v v v v v v v b b b v M m m v v b b G H f /.Q.`.`.T.Y.] ] R.`.^.L.I.W.I.X.t t o. .=.aXgXb.v.W 6XS D B v v v v v v v v v v v v v v v v ",
"v v v v v v v v v v v v v v v v v v v v b x b v v m M v b b b b A f /._._.}.].!.U.P.P.P.L.W.X.t [ y e y ) O.*.9.gXn.W s 6XG c N N v v v v v v v v v v b v v v v ",
"b v v v v v v v v v v v v v b v v v v b b b b M v x M v v v v b x h d J.E._.].}.'.W.P.G.L.&XW.I.K.w w W.E.U.*.T 4.yX#./.J b x N v v v v v v b v v v v v v v v v ",
"v v v v v v v v v v v v v v v v v v v b v v v M v M v v v v v v c l i ' { H.R.}.}.'.^.W.L.y 4 q q W.I.W.`.(.+. .9.v.<XeXS v v x v v v v b v v v v v v v v v b v ",
"v v v v v v v v v v v b v v v v v v v v v v v b v G b x v v z v D j i 5 } { ] E.(.).'.@XW.X.y q 9 OX@.OXW.@.+...9.uX2X0XH z v v v v v v v v v v v v v v v v v v ",
"v v b v b v v v v b v v v v v v v v v v v v v v b b b v v v z b V f i e e e e { O.o.W.W.W.OX@.W.OX@X).@.W.| y @.uXuX8X0XG v z v v b v v v v v v v v v b v v v v ",
"v v v v v v v v v v v v v v v v b b v M v v v v b b x v x z n H l g J.G.] r ' y ) { +.+.OX#X*.$X8.jXXX+.| L 9  .uX<X,X0XF v v M v v v v v v v v v v v v v v v v ",
"v v v v v v v v v v v v v v v b v v v v M M v v G b v v v x G l f J.J.L.!.P.P.{ o.0 0 (.@XxXxXiXXX.X.XOX| q q | t.uX>X0XJ c N x v v v v b v v v v v v v v v v v ",
"v v b v v v v v v v v v v v v b b v v v v v v v b b v x c G S 7Xd J.H.I.R.T.'.oX}.(.o.*.OX#XXX.X*.*..X@.) ) y 9 ) =._ ;XZ A n b v v v v v v b v v v v v v v v v ",
"v v v v v v v b v v v b v v v v b b v v z v v b b b z z b S l f J.H.P.U.T.I.[.=X&X@X.X).*.@.*.<. ...@.U.@.+.| | 0 P 5 a wXS b v v v v v v v v v b v v v v v v v ",
"v v v v v v v b v v v v v v v b b b v v v v b b v M m B c S f d r [ O.U.I.~.oX&X&XBX&X&X*X@X@...*.*.).).}.I.o.o.) 0 5 6 7Xk G v v v v v v v v v v v v v v v v v ",
"v v v v v v v v v v v v v v v v b x v v v v v v v v m x S l g p [ P.U.U.K.OX=X%X@X&X&X=X=X@X@X#X#XOX+X`.{.`.P.] [ ) 0 5 s 7XH b b v v v v v v v b v v b v v M v ",
"v b b v v v v v v v v v v v v v b v b N b M b b b v N C Z f i ' H.I.U.P.P.{. X%X&X*X*X*X*X*X*X&X@X+X{.{. X_.R.O.o.) 0 5 7 i qXA n v m m v b v b v v b x v v v v ",
"v v v v v v v v v b v v v v v v v v M c B b v v b b n J 6Xp e [ P.T.T.P.R.oX+X%X=X*X=X=X*X*X=X*X&X%X X X}. X~.X.' ) ) q q s h A G v z m v v v n v v b b v v v v ",
"v v v v v v v v v v v v v v v v v v B v v v v v v b A l /.p } H.P.P.P.P.}.{.%X+X*X&X*X*X&X&X&X&X&X%X X X X].~.I.H.[ ) w 4 6 s k A b N x b v v v v v v v M M v b ",
"v v v v v v b v v v v v b v v v v v b B B v v v v b J h p e ' G.P.P.P.T.}.'.oXoX+X+X%X+X*X%X%X&X%XoX X X X].^.T.G.[ [ [ w 8 p l S n N c b v v v M M v v v v v b ",
"v v v v v v v v v b v v v v v v b v v M M v v v v H 7Xd } e { O.P.P.] !.`.'.{.{.+XoXoXoX+X+X+X+X%XoXoX[.^.^.^.^.G.G.G.G.t 7 8 d qXH n G b n v z z v v v v v b b ",
"v v v b v v v v v v v v v v v v b v v v M B v b b H f p e ) ).X.L.K.G.W.`.}.}.].{.}.oXoX+XoXoXoX XoX^.oX[.^.^.^.G.[ ' Y.r 4 6 8 f qXS A b v v z M m v v v b b v ",
"v v v v v v b v v v v v v v b v v v v v v v v b H l d w w y L.[ L.t K.~.~.].].].'.}.[.oXoXoX'.[.[.'.OX^.^.^.Q.Q.K.t G.w w w 4 8 7 l k n b v z v m z v v b b v v ",
"v v v v v v v v v v v v v b v v v v v v v v v D J g 7 r y y t K.G.t Y.!.Q.~.].].'.}.].[.].[.].'.'.`.~.'.~.~.Q.L.Q.t r r w w 4 4 8 s qXH c N v v v v v v b b v v ",
"v v v v v v v v v v v v v v v v v v v v G n G H 7X7 e r r t t G.G.t L.Q.Q.Q.!.^.~.^.^.!.].].^.`.~.).~.W.!.!.Q.Y.Q.X.r t e w 4 4 6 6 l k A b b b v v v v G b v M ",
"b v v v v v v v b v v v v v v v v v v v b G A j d 7 e w r r t G.t G.Q.L.Q.Q.^.].!.!.].].^. X!.`.`.~.`.[.!.!.Q.L.L.t t r e 7 4 4 8 6 7 wXk n G v v v v v b v v v ",
"b v v v v v v v b v v v v v v v v N v v b H H l i 7 e w r G.t t r G.!.Q.Q.Q.Q.!.].Y.Y.Q.!.=X^.Q.Q.Q.].=XY.Y.L.Y.^.L.t r r ' e 4 5 6 p f wXJ x N v v M v v v v v ",
"v v v v b v v v v v v v b v v v v v v v b H l d i 7 ' e  XG.G.Q.r G. X].H.L.Q. X%XR.!.!.~.VX~.T.!.Q.!.VXR.T.Y.T. XQ.L.t r R.7 4 { 5 6 p wXJ n N m m v v v v v v ",
"v v v v v v v v v v v v v v v v M b v b b H 6Xi } E.) { !.H.E.e ' P.VX*XP.O.U.{.=X_.U.E.P.VX!.P.Y.Y.].VXY.G.O.~.=X X[ K.] ' ' 5 *.} 6 /.g qXG x v v v v v b v v ",
"v v v v v v v v v v v v v v v v b M v v b H wX8X$.P ).).] {.[ 5 [ { *X*X{ ] O.|.BX_.O.{ P.BX(.H.G.Y._.BX+.{ O.U.&X~.[ y U.' +X{ ) P }.|.7X9XG x M v v v v v v v ",
"v v v b v v b v v v v b v v b v n M v b b k eXeX|.` @XBXBX] ) [ ).E.O.+.(.|.).|.(.(.(.(.).|.(.P._.U.(.}.).q.I.+.O.(.(.[ y @XBXBX0 L |.JXeXqXG M v v v v b b v M ",
"v v v v v v v v v v v v v v v v M v v b G J eXJXDXZXDXFXDXZXZXAXZXDXZXZXDXZXZXZXBXBXCXBXCXZXVXBXBXVXVXAXAXZXZXZXZXDXZXVXAXZXFXFXAXHXFXDXeXJ G n b v v v b v N v "
};
